<?xml version="1.0" encoding="utf-8"?>
<!-- Generator: Adobe Illustrator 23.0.1, SVG Export Plug-In . SVG Version: 6.00 Build 0)  -->
<svg version="1.1" id="Domain_Checker_2_" xmlns="http://www.w3.org/2000/svg" xmlns:xlink="http://www.w3.org/1999/xlink" x="0px"
	 y="0px" viewBox="0 0 917.4 894.6" style="enable-background:new 0 0 917.4 894.6;" xml:space="preserve">
<style type="text/css">
	.st0{fill:#1B4F7F;}
	.st1{fill-rule:evenodd;clip-rule:evenodd;fill:#3DD4E9;}
	.st2{fill-rule:evenodd;clip-rule:evenodd;fill:#7DC983;}
	.st3{fill-rule:evenodd;clip-rule:evenodd;fill:#FFFFFF;}
	.st4{fill-rule:evenodd;clip-rule:evenodd;fill:#43B8C9;}
	.st5{fill-rule:evenodd;clip-rule:evenodd;fill:#FFDB79;}
	.st6{fill-rule:evenodd;clip-rule:evenodd;fill:#9BDDE7;}
	.st7{fill-rule:evenodd;clip-rule:evenodd;fill:#F77B55;}
	.st8{fill-rule:evenodd;clip-rule:evenodd;fill:#FFD45B;}
	.st9{fill-rule:evenodd;clip-rule:evenodd;fill:#CCCCCC;}
	.st10{fill-rule:evenodd;clip-rule:evenodd;fill:#6C6D70;}
	.st11{fill-rule:evenodd;clip-rule:evenodd;fill:#ADECF7;}
	.st12{fill-rule:evenodd;clip-rule:evenodd;fill:#F26D6E;}
	.st13{fill-rule:evenodd;clip-rule:evenodd;fill:#A6A9AB;}
	.st14{fill-rule:evenodd;clip-rule:evenodd;fill:#E62C34;}
	.st15{fill-rule:evenodd;clip-rule:evenodd;fill:#08C6A2;}
	.st16{fill-rule:evenodd;clip-rule:evenodd;fill:#FEFEFE;}
	.st17{fill-rule:evenodd;clip-rule:evenodd;fill:#E6E6E6;}
	.st18{fill-rule:evenodd;clip-rule:evenodd;fill:#363F48;}
	.st19{fill:#FEFEFE;}
	.st20{fill-rule:evenodd;clip-rule:evenodd;fill:#01B9AD;}
</style>
<g>
	<g id="Background">
		<circle id="Background_2" class="st0" cx="449.6" cy="477.6" r="399"/>
	</g>
	<g id="Domain_Checker_1_">
		<g>
			<path class="st1" d="M672,467.1c128.6,0,233.5-104.9,233.5-233.5C905.5,104.9,800.6,0,672,0C543.4,0,438.4,104.9,438.4,233.6
				C438.4,362.1,543.4,467.1,672,467.1L672,467.1z"/>
			<path class="st2" d="M901.6,276.3c-3.9,21.4-10.8,41.8-20.2,60.7H695.5c-16.7,0-30.4-13.7-30.4-30.3l0,0
				c0-16.7,13.7-30.4,30.4-30.4H901.6z M883.2,133.8c14.3,30.3,22.3,64.1,22.3,99.8c0,3.8-0.1,7.5-0.3,11.3
				c-6.6,2.7-13.9,4.1-21.4,4.1H727.7c-31.7,0-57.6-25.9-57.6-57.6l0,0c0-31.7,25.9-57.6,57.6-57.6H883.2z M453.9,317.4
				c-9.7-25-15.1-52.2-15.4-80.6h75.4c9.2,0,16.7,7.5,16.7,16.7l0,0c0,2.4-0.5,4.8-1.5,6.9h43c15.7,0,28.6,12.9,28.6,28.6l0,0
				c0,15.7-12.9,28.5-28.6,28.5H453.9z M470.6,115.3c9-15.2,19.6-29.4,31.7-42.2H592c11.6,0,21.1,9.5,21.1,21.1l0,0
				c0,11.6-9.4,21.1-21.1,21.1H470.6z"/>
			<path class="st3" d="M779.3,289.7c13.6,0,25.2-8.6,29.8-20.5c5.4-5.1,8.8-12.4,8.8-20.4l0,0c0-15.4-12.6-28-28-28h-19.3
				c3.2-5.7,5-12.3,5-19.3c0-21.7-17.5-39.2-39.2-39.2c-21.6,0-39.2,17.5-39.2,39.2c0,0.3,0.1,0.7,0.1,1c-2.3-0.7-4.7-1.2-7.2-1.2
				c-11.5,0-21,8.4-22.7,19.4h-14.5c-15.4,0-28,12.6-28,28l0,0c0,15.4,12.6,28,28,28h22.6c5.1,10.7,16,18.2,28.7,18.2
				c12.7,0,23.7-7.4,28.8-18.2h20.9C759.5,284.6,768.8,289.7,779.3,289.7L779.3,289.7z M822.2,54.7c13.2,11.2,25.2,23.7,35.6,37.4
				H753.6c-2.7,2.7-6.3,4.3-10.3,4.3c-1.6,0-3.1-0.3-4.6-0.7c0,0.3,0,0.5,0,0.7c0,13.7-11.2,24.9-24.9,24.9c-13.8,0-25-11.2-25-24.9
				c0-4.5,1.2-8.6,3.3-12.3h-12.3c-9.7,0-17.7-8-17.7-17.7l0,0c0-5.1,2.2-9.7,5.6-12.9c2.9-7.6,10.3-13.1,18.9-13.1
				c6.7,0,12.6,3.2,16.3,8.2h13.3c3.3-6.8,10.2-11.5,18.2-11.5c8,0,15,4.7,18.2,11.5h14.3c5.4,0,10.2,2.4,13.5,6.3H822.2z
				 M490,121.4c4.2,0,8.2,1,11.8,2.6c3-1.4,6.5-2.4,10.2-2.6c-0.6-1.9-1-3.9-1-6.1c0-12.2,10.9-22,24.3-22c13.5,0,24.3,9.8,24.3,22
				c0,4.5-1.6,8.6-4.1,12.2c7.7,2.2,13.3,8.2,13.3,15.4c0,3.1-1.1,6-2.9,8.4c10.9,2.1,17.9,5.4,17.9,9c0,6.3-21,11.5-47,11.5
				c-10.7,0-20.6-0.9-28.6-2.4c-4.8,4.4-11.3,7-18.4,7c-15.2,0-27.5-12.3-27.5-27.5C462.4,133.7,474.7,121.4,490,121.4L490,121.4z"
				/>
		</g>
		<g>
			<g>
				<path class="st3" d="M117,251.6h662.3c10.7,0,19.4,8.8,19.4,19.4v436.3c0,10.6-8.7,19.3-19.4,19.3H117
					c-10.6,0-19.3-8.7-19.3-19.3V271C97.6,260.4,106.3,251.6,117,251.6L117,251.6z"/>
				<g>
					<path class="st4" d="M111.7,251.6h672.7c7.8,0,14.1,6.4,14.1,14.1v43.4c0,0.6-0.5,1.2-1.2,1.2H97.6v-44.5
						C97.6,258,104,251.6,111.7,251.6L111.7,251.6z"/>
					<path class="st5" d="M132.3,293.1c7.1,0,12.9-5.8,12.9-12.9c0-7.1-5.8-12.9-12.9-12.9c-7.1,0-12.9,5.8-12.9,12.9
						C119.4,287.3,125.2,293.1,132.3,293.1L132.3,293.1z"/>
					<path class="st6" d="M168.2,293.1c7.1,0,12.9-5.8,12.9-12.9c0-7.1-5.8-12.9-12.9-12.9c-7.1,0-12.9,5.8-12.9,12.9
						C155.4,287.3,161.1,293.1,168.2,293.1L168.2,293.1z"/>
					<path class="st7" d="M204.2,293.1c7.1,0,12.9-5.8,12.9-12.9c0-7.1-5.8-12.9-12.9-12.9c-7.1,0-12.9,5.8-12.9,12.9
						C191.3,287.3,197.1,293.1,204.2,293.1L204.2,293.1z"/>
					<rect x="236.6" y="269.5" class="st3" width="542.1" height="24.4"/>
				</g>
			</g>
			<g>
				<path class="st8" d="M175.6,385.5h552.9c9.7,0,17.7,8,17.7,17.7v35c0,9.7-8,17.7-17.7,17.7H175.6c-9.8,0-17.7-8-17.7-17.7v-35
					C157.8,393.5,165.8,385.5,175.6,385.5L175.6,385.5z"/>
				<rect x="377.2" y="343.8" class="st9" width="149.2" height="10.8"/>
				<rect x="194.8" y="343.8" class="st9" width="149.3" height="10.8"/>
				<rect x="564.8" y="343.8" class="st9" width="149.3" height="10.8"/>
				<path class="st10" d="M211.4,436.6l-7.9-26h4.6l4.1,15l1.5,5.6c0.1-0.3,0.5-2,1.4-5.4l4.1-15.2h4.6l3.9,15.1l1.3,5l1.5-5l4.5-15
					h4.3l-8.2,26h-4.6l-4.1-15.6l-1-4.5l-5.2,20.1H211.4z M247.6,436.6l-7.9-26h4.6l4.1,15l1.4,5.6c0.1-0.3,0.5-2,1.4-5.4l4.1-15.2
					h4.5l3.9,15.1l1.3,5l1.5-5l4.5-15h4.3l-8.2,26h-4.6l-4.1-15.6l-1-4.5l-5.3,20.1H247.6z M283.8,436.6l-7.8-26h4.6l4.1,15l1.5,5.6
					c0.1-0.3,0.5-2,1.4-5.4l4.1-15.2h4.5l3.9,15.1l1.2,5l1.5-5l4.6-15h4.3l-8.2,26h-4.6l-4.1-15.6l-1.1-4.5l-5.2,20.1H283.8z
					 M313.9,436.6v-5h5v5H313.9z"/>
				<path class="st11" d="M224.3,602c28.4,0,51.5-23.1,51.5-51.5c0-28.4-23.1-51.5-51.5-51.5c-28.4,0-51.5,23.1-51.5,51.5
					C172.8,578.8,196,602,224.3,602L224.3,602z"/>
				<polygon class="st12" points="195.8,539.5 222.5,585.2 285.7,481.6 224.1,552.3 				"/>
				<rect x="323.7" y="525.5" class="st13" width="242.6" height="7.7"/>
				<rect x="420.7" y="547.4" class="st13" width="145.6" height="7.7"/>
				<rect x="320.7" y="569.2" class="st13" width="159.4" height="7.8"/>
				<rect x="520.6" y="569.2" class="st13" width="45.6" height="7.8"/>
				<rect x="349.4" y="547.4" class="st13" width="25.7" height="7.7"/>
			</g>
		</g>
		<g>
			<path class="st14" d="M621.5,502.6H836c13.7,0,25,11.2,25,25v197.6c0,13.7-11.2,25-25,25H621.5c-13.7,0-24.9-11.2-24.9-25V527.6
				C596.7,513.8,607.9,502.6,621.5,502.6L621.5,502.6z"/>
			<rect x="596.7" y="586.7" class="st15" width="264.3" height="79.4"/>
			<path class="st16" d="M718.8,710.7c0,3.9,0.8,6.7,2.5,8.6c1.7,2,3.8,2.9,6.4,2.9c2.5,0,4.7-1,6.3-2.9c1.7-1.9,2.6-4.8,2.6-8.8
				c0-3.7-0.9-6.6-2.6-8.5c-1.7-1.9-3.8-2.9-6.3-2.9c-2.6,0-4.7,0.9-6.4,2.9C719.6,704,718.8,706.8,718.8,710.7L718.8,710.7z
				 M713.5,710.7c0-5.6,1.6-9.7,4.6-12.4c2.6-2.2,5.8-3.4,9.5-3.4c4.1,0,7.5,1.4,10.2,4.1c2.6,2.7,3.9,6.5,3.9,11.3
				c0,3.9-0.6,6.9-1.8,9.1c-1.2,2.2-2.9,3.9-5.1,5.2c-2.2,1.2-4.6,1.8-7.3,1.8c-4.2,0-7.6-1.3-10.3-4
				C714.8,719.7,713.5,715.8,713.5,710.7L713.5,710.7z M700.5,725.8v-26.2h-4.6v-3.9h4.6v-3.2c0-2,0.2-3.5,0.5-4.6
				c0.5-1.3,1.4-2.4,2.6-3.2c1.2-0.8,3-1.2,5.2-1.2c1.4,0,3,0.1,4.8,0.5l-0.7,4.5c-1.1-0.1-2.1-0.3-3.1-0.3c-1.6,0-2.6,0.3-3.3,1
				c-0.7,0.6-1,1.9-1,3.7v2.8h5.8v3.9h-5.8v26.2H700.5z M666.9,725.8v-30.2h4.6v4.3c2.2-3.3,5.4-5,9.6-5c1.8,0,3.5,0.3,5,1
				c1.5,0.6,2.7,1.5,3.4,2.6c0.7,1,1.3,2.3,1.6,3.7c0.2,1,0.3,2.6,0.3,5v18.6h-5.2v-18.4c0-2.1-0.2-3.7-0.5-4.7
				c-0.4-1-1.2-1.8-2.2-2.4c-1-0.6-2.2-1-3.5-1c-2.2,0-4,0.7-5.6,2.1c-1.6,1.4-2.3,4-2.3,7.9v16.5H666.9z M654,725.8v-30.2h5.1v30.2
				H654z M654,689.9v-5.8h5.1v5.8H654z M639.3,725.8v-5.8h5.8v5.8H639.3z"/>
			<path class="st16" d="M729.9,639.3l0.7,4.6c-1.4,0.3-2.7,0.5-3.9,0.5c-1.8,0-3.3-0.3-4.3-0.9c-1-0.6-1.8-1.4-2.2-2.3
				c-0.4-1-0.6-3-0.6-6.1v-17.4h-3.8v-4h3.8v-7.4l5.1-3.1v10.5h5.2v4h-5.2v17.7c0,1.4,0.1,2.4,0.3,2.8c0.2,0.4,0.5,0.7,0.9,1
				c0.4,0.3,1,0.3,1.8,0.3C728.2,639.5,728.9,639.4,729.9,639.3L729.9,639.3z M690.2,625.9H707c-0.2-2.5-0.9-4.4-1.9-5.7
				c-1.6-2-3.7-2.9-6.3-2.9c-2.4,0-4.4,0.8-5.9,2.3C691.2,621.1,690.4,623.2,690.2,625.9L690.2,625.9z M706.9,634.1l5.3,0.7
				c-0.8,3.1-2.4,5.5-4.6,7.1c-2.2,1.7-5.1,2.6-8.6,2.6c-4.4,0-7.9-1.4-10.5-4.1c-2.6-2.7-3.9-6.5-3.9-11.4c0-5,1.3-9,3.9-11.8
				c2.6-2.8,6-4.2,10.1-4.2c4,0,7.3,1.4,9.9,4.1c2.6,2.8,3.9,6.7,3.9,11.6c0,0.3-0.1,0.7-0.1,1.4h-22.5c0.2,3.3,1.2,5.8,2.9,7.6
				c1.6,1.7,3.7,2.6,6.3,2.6c1.9,0,3.5-0.5,4.8-1.4C705.1,637.9,706.2,636.3,706.9,634.1L706.9,634.1z M654,643.9v-30.3h4.6v4.3
				c2.2-3.3,5.4-4.9,9.6-4.9c1.8,0,3.5,0.3,5,1c1.5,0.7,2.7,1.6,3.4,2.6c0.8,1.1,1.3,2.3,1.6,3.8c0.2,1,0.3,2.6,0.3,5v18.6h-5.1
				v-18.4c0-2.1-0.2-3.7-0.6-4.7c-0.3-1-1.1-1.8-2.1-2.4c-1-0.6-2.2-0.9-3.5-0.9c-2.2,0-4.1,0.7-5.6,2.1c-1.6,1.4-2.4,3.9-2.4,7.8
				v16.5H654z M639.3,643.9v-5.8h5.8v5.8H639.3z"/>
			<path class="st16" d="M715.4,560.1V530h4.6v4.3c0.9-1.5,2.2-2.7,3.7-3.6c1.6-0.9,3.3-1.4,5.4-1.4c2.2,0,4.1,0.5,5.5,1.4
				c1.4,0.9,2.4,2.2,3,3.9c2.4-3.5,5.5-5.3,9.4-5.3c3,0,5.3,0.8,6.9,2.5c1.6,1.6,2.4,4.2,2.4,7.6v20.7h-5.2v-19c0-2-0.1-3.5-0.5-4.4
				c-0.3-0.9-1-1.6-1.8-2.1c-0.9-0.6-1.9-0.9-3.1-0.9c-2.1,0-3.9,0.7-5.3,2.1c-1.4,1.4-2.1,3.7-2.1,6.8v17.5h-5.1v-19.6
				c0-2.3-0.4-4-1.3-5.2c-0.8-1.1-2.2-1.7-4.1-1.7c-1.4,0-2.8,0.4-4,1.2c-1.2,0.7-2.1,1.8-2.7,3.3c-0.5,1.4-0.8,3.5-0.8,6.3v15.6
				H715.4z M686.4,545.1c0,3.9,0.8,6.7,2.5,8.6c1.7,2,3.8,2.9,6.4,2.9c2.5,0,4.7-1,6.3-2.9c1.7-1.9,2.6-4.8,2.6-8.8
				c0-3.7-0.9-6.6-2.6-8.5c-1.7-1.9-3.8-2.9-6.3-2.9c-2.6,0-4.7,1-6.4,2.9C687.2,538.3,686.4,541.2,686.4,545.1L686.4,545.1z
				 M681.2,545.1c0-5.6,1.6-9.7,4.6-12.4c2.6-2.2,5.8-3.4,9.5-3.4c4.1,0,7.5,1.4,10.2,4.1c2.6,2.7,3.9,6.5,3.9,11.3
				c0,3.9-0.6,6.9-1.8,9.1c-1.2,2.2-2.9,3.9-5.1,5.2c-2.2,1.2-4.6,1.8-7.3,1.8c-4.2,0-7.6-1.3-10.3-4
				C682.5,554,681.2,550.1,681.2,545.1L681.2,545.1z M673.7,549.1l5,0.7c-0.5,3.4-2,6.1-4.2,8c-2.2,2-5,2.9-8.4,2.9
				c-4.1,0-7.4-1.3-9.9-4c-2.5-2.7-3.7-6.6-3.7-11.6c0-3.3,0.5-6.1,1.6-8.6c1-2.4,2.7-4.3,4.9-5.5c2.2-1.2,4.6-1.8,7.2-1.8
				c3.3,0,6,0.8,8,2.5c2.1,1.6,3.4,4,4,7.1l-5,0.7c-0.5-2-1.3-3.5-2.5-4.6c-1.2-1-2.7-1.6-4.4-1.6c-2.6,0-4.7,1-6.3,2.8
				c-1.6,1.8-2.4,4.8-2.4,8.7c0,4.1,0.7,7,2.3,8.8c1.6,1.8,3.6,2.8,6.1,2.8c2,0,3.7-0.6,5-1.8C672.5,553.6,673.4,551.6,673.7,549.1
				L673.7,549.1z M639.3,560.1v-5.8h5.8v5.8H639.3z"/>
		</g>
		<g>
			<g>
				<path class="st17" d="M362,766.4c6.9,3.1,13.1,7.5,18.2,13.1L401,770l14.6,32.2l-20.8,9.4c0.4,3.7,0.4,7.5,0.1,11.3
					c-0.4,3.8-1.2,7.5-2.2,11l18.6,13.3l-20.6,28.7L372,862.7c-6,4.4-12.9,7.5-20.3,9.2l-2.2,22.7l-35.2-3.5l2.2-22.6
					c-6.9-3.1-13.1-7.6-18.2-13.1l-20.7,9.4l-14.6-32.2l20.7-9.4c-0.3-3.7-0.4-7.4,0-11.2c0.3-3.8,1.2-7.5,2.2-11.1l-18.5-13.3
					l20.5-28.8l18.6,13.3c6.1-4.4,13-7.6,20.4-9.3l2.2-22.7l35.2,3.5L362,766.4z"/>
				<path class="st18" d="M340.9,799.8c9.7,1,16.9,9.6,15.9,19.3c-1,9.7-9.7,16.9-19.3,15.9c-9.7-1-16.9-9.7-15.9-19.4
					C322.6,806,331.2,798.9,340.9,799.8L340.9,799.8z M342.6,782.8c19.1,1.8,33.1,18.9,31.2,38c-1.9,19.1-18.9,33-38,31.2
					c-19.1-1.9-33.1-18.9-31.2-38C306.5,794.9,323.5,780.9,342.6,782.8L342.6,782.8z"/>
			</g>
			<g>
				<path class="st17" d="M234.3,775c2.9,5,4.8,10.4,5.5,16l17,3.3l-5.2,26.2l-16.9-3.3c-1.4,2.4-3.1,4.8-5,6.9
					c-1.9,2.2-3.9,4.1-6.2,5.8l5.6,16.3l-25.4,8.7l-5.6-16.3c-5.6,0-11.4-1-16.7-3.3l-11.4,13.1L150.1,831l11.3-13
					c-2.9-5-4.8-10.5-5.5-16l-16.9-3.3l5.1-26.2l17,3.3c1.4-2.4,3-4.8,4.9-6.9c1.9-2.2,4-4.1,6.2-5.8l-5.6-16.3l25.3-8.7l5.6,16.4
					c5.6-0.1,11.3,1,16.6,3.2l11.4-13l20.2,17.5L234.3,775z"/>
				<path class="st18" d="M206.6,786.4c5.6,4.9,6.2,13.3,1.4,18.9c-4.9,5.6-13.3,6.1-18.9,1.3c-5.6-4.8-6.2-13.3-1.3-18.9
					C192.6,782.1,201.1,781.5,206.6,786.4L206.6,786.4z M215.1,776.6c11,9.5,12.2,26.2,2.6,37.1c-9.5,10.9-26.2,12.1-37.1,2.6
					c-10.9-9.6-12.1-26.2-2.6-37.2C187.6,768.2,204.2,767.1,215.1,776.6L215.1,776.6z"/>
			</g>
		</g>
		<g>
			<polygon class="st16" points="829.4,633.4 862.4,651.3 895.4,669.3 867.3,677.3 889.4,713.6 873.4,723.5 851.2,687.1 
				831.3,708.4 830.4,670.9 			"/>
			<path class="st19" d="M58.7,408.4c-2.9,0.2-5.3-2-5.5-4.9c-0.1-2.9,2-5.4,5-5.5h0.3l0.4-0.1h0.4h0.4H60h0.4h0.4l0.4-0.1h0.4h10.4
				c2.9,0,5.2,2.4,5.2,5.2c0,2.9-2.3,5.2-5.2,5.2H61.7h-0.3H61h-0.3h-0.3l-0.3,0.1h-0.3h-0.3H59H58.7z M26.2,409.3
				c2.3-1.7,5.6-1.2,7.3,1.2c1.7,2.3,1.2,5.6-1.2,7.3l-0.1,0.1l-0.3,0.2l-0.3,0.2l-0.2,0.1l-0.3,0.2l-0.3,0.2l-0.2,0.2l-0.3,0.1
				l-0.2,0.2l-0.3,0.2l-0.2,0.2l-0.3,0.2l-0.2,0.2l-0.3,0.2l-0.2,0.1l-0.3,0.2l-0.2,0.2l-0.3,0.2l-0.2,0.2l-0.2,0.2l-0.3,0.2
				l-0.2,0.2l-0.2,0.3l-0.3,0.2l-0.2,0.2l-0.2,0.2l-0.3,0.2l-0.2,0.2l-0.2,0.2l-0.2,0.3l-0.2,0.2H25c-2,2.1-5.3,2.2-7.3,0.1
				c-2.1-2-2.2-5.3-0.1-7.3l0.1-0.1l0.3-0.2l0.2-0.3l0.3-0.3l0.3-0.3l0.3-0.3l0.3-0.2l0.3-0.3l0.3-0.3l0.3-0.3l0.3-0.2l0.3-0.3
				l0.3-0.3l0.3-0.2l0.3-0.3l0.3-0.2l0.3-0.3l0.3-0.2l0.3-0.3l0.3-0.2l0.3-0.3l0.3-0.2l0.3-0.3l0.3-0.2l0.3-0.2l0.3-0.3l0.3-0.2
				l0.3-0.2l0.3-0.2l0.3-0.2l0.3-0.3L26.2,409.3z M1.4,446.4c0.6-2.9,3.4-4.6,6.3-4c2.8,0.6,4.6,3.4,3.9,6.3v0.1l-0.1,0.3l-0.1,0.3
				l-0.1,0.3l-0.1,0.3l-0.1,0.3v0.3l-0.1,0.3l-0.1,0.3l-0.1,0.3l-0.1,0.3v0.3l-0.1,0.3l-0.1,0.3v0.3l-0.1,0.3v0.3l-0.1,0.3v0.3
				l-0.1,0.3v0.3l-0.1,0.3v0.3v0.3l-0.1,0.3v0.3v0.3v0.3l-0.1,0.3v0.3l0,0c-0.1,2.9-2.4,5.2-5.4,5.1c-2.9-0.1-5.2-2.4-5-5.4v-0.1
				v-0.4v-0.4v-0.3l0.1-0.4v-0.4v-0.4l0.1-0.3v-0.4l0.1-0.4v-0.4l0.1-0.3v-0.4l0.1-0.4l0.1-0.3v-0.4l0.1-0.4l0.1-0.3l0.1-0.4
				l0.1-0.4v-0.3l0.1-0.4l0.1-0.3l0.1-0.4l0.1-0.3l0.1-0.4l0.1-0.4l0.1-0.3l0.1-0.4L1.4,446.4L1.4,446.4z M0,489.2
				c0-2.9,2.4-5.2,5.2-5.2c2.9,0,5.2,2.3,5.2,5.2v10.5c0,2.9-2.4,5.2-5.2,5.2c-2.9,0-5.2-2.3-5.2-5.2V489.2z M0,531
				c0-2.9,2.4-5.2,5.2-5.2c2.9,0,5.2,2.4,5.2,5.2v10.5c0,2.9-2.4,5.2-5.2,5.2c-2.9,0-5.2-2.4-5.2-5.2V531z M0,572.8
				c0-2.9,2.4-5.2,5.2-5.2c2.9,0,5.2,2.3,5.2,5.2v10.4c0,2.9-2.4,5.2-5.2,5.2c-2.9,0-5.2-2.3-5.2-5.2V572.8z M0,614.5
				c0-2.9,2.4-5.2,5.2-5.2c2.9,0,5.2,2.3,5.2,5.2V625c0,2.9-2.4,5.2-5.2,5.2c-2.9,0-5.2-2.4-5.2-5.2V614.5z M0,656.4
				c0-2.9,2.4-5.2,5.2-5.2c2.9,0,5.2,2.4,5.2,5.2v10.5c0,2.9-2.4,5.2-5.2,5.2c-2.9,0-5.2-2.4-5.2-5.2V656.4z M0,698.2
				c0-2.9,2.4-5.2,5.2-5.2c2.9,0,5.2,2.3,5.2,5.2v10.4c0,2.9-2.4,5.2-5.2,5.2c-2.9,0-5.2-2.3-5.2-5.2V698.2z M0,739.9
				c0-2.9,2.4-5.2,5.2-5.2c2.9,0,5.2,2.3,5.2,5.2v10.5c0,2.9-2.4,5.2-5.2,5.2c-2.9,0-5.2-2.4-5.2-5.2V739.9z M2.9,783.1
				c-0.9-2.8,0.6-5.7,3.3-6.6c2.8-0.9,5.7,0.6,6.6,3.4l0.1,0.3l0.1,0.3l0.1,0.3l0.1,0.3l0.1,0.3l0.1,0.3l0.1,0.3l0.1,0.3l0.1,0.3
				l0.1,0.3l0.1,0.3l0.1,0.3l0.1,0.3l0.1,0.3l0.1,0.3l0.1,0.3l0.1,0.3l0.1,0.3l0.1,0.3l0.1,0.3l0.1,0.3l0.1,0.3l0.1,0.3l0.1,0.3
				l0.1,0.3l0.1,0.3l0.1,0.3l0.1,0.3l0.2,0.3l0.1,0.3l0.1,0.1c1.4,2.6,0.4,5.7-2.1,7.1c-2.6,1.4-5.7,0.4-7.1-2.1l-0.1-0.2L6.9,793
				l-0.1-0.3l-0.2-0.3L6.5,792l-0.2-0.3l-0.1-0.3L6,791l-0.2-0.3l-0.1-0.3L5.5,790l-0.2-0.3l-0.1-0.3L5,788.9l-0.1-0.3l-0.1-0.3
				l-0.2-0.3l-0.1-0.3l-0.1-0.3l-0.1-0.3L4,786.5l-0.1-0.3l-0.1-0.3l-0.1-0.3l-0.1-0.3l-0.1-0.4l-0.1-0.3l-0.1-0.3L3,783.7l-0.1-0.4
				L2.9,783.1z M30.7,817.9c-2.5-1.4-3.3-4.6-1.9-7.1c1.5-2.5,4.7-3.3,7.2-1.9v0.1l0.3,0.1l0.3,0.1l0.3,0.1l0.3,0.2l0.3,0.1l0.3,0.1
				l0.3,0.1l0.3,0.1l0.3,0.1l0.3,0.1l0.3,0.1l0.3,0.1l0.3,0.1l0.3,0.1l0.3,0.1l0.3,0.1l0.3,0.1l0.3,0.1l0.3,0.1l0.3,0.1l0.3,0.1
				l0.3,0.1l0.3,0.1l0.3,0.1l0.3,0.1l0.3,0.1l0.3,0.1l0.3,0.1l0.3,0.1l0.3,0.1h0.1c2.7,1,4.1,3.9,3.2,6.7c-1,2.7-3.9,4.1-6.7,3.2
				l-0.1-0.1l-0.3-0.1l-0.4-0.1l-0.3-0.1l-0.3-0.1l-0.3-0.1l-0.3-0.1l-0.3-0.1l-0.3-0.1l-0.4-0.1l-0.3-0.1l-0.3-0.1l-0.3-0.2
				l-0.3-0.1l-0.3-0.1l-0.3-0.1l-0.3-0.2l-0.3-0.1l-0.3-0.2l-0.3-0.1l-0.3-0.2l-0.3-0.1l-0.3-0.1l-0.3-0.2l-0.3-0.2l-0.3-0.1
				l-0.3-0.2l-0.3-0.2l-0.3-0.1l-0.3-0.2L30.7,817.9L30.7,817.9z M73.7,826.3c-2.9,0-5.2-2.4-5.2-5.2c0-2.9,2.4-5.2,5.2-5.2h10.5
				c2.9,0,5.2,2.3,5.2,5.2c0,2.9-2.4,5.2-5.2,5.2H73.7z M115.5,826.3c-2.9,0-5.2-2.4-5.2-5.2c0-2.9,2.3-5.2,5.2-5.2H126
				c2.9,0,5.2,2.3,5.2,5.2c0,2.9-2.3,5.2-5.2,5.2H115.5z M414.1,826.3c-2.9,0-5.2-2.4-5.2-5.2c0-2.9,2.4-5.2,5.2-5.2h5.9
				c2.9,0,5.2,2.3,5.2,5.2c0,2.9-2.3,5.2-5.2,5.2H414.1z M449.9,826.3c-2.9,0-5.2-2.4-5.2-5.2c0-2.9,2.4-5.2,5.2-5.2h10.5
				c2.9,0,5.2,2.3,5.2,5.2c0,2.9-2.4,5.2-5.2,5.2H449.9z M491.7,826.3c-2.9,0-5.2-2.4-5.2-5.2c0-2.9,2.3-5.2,5.2-5.2h10.4
				c2.9,0,5.2,2.3,5.2,5.2c0,2.9-2.3,5.2-5.2,5.2H491.7z M533.4,826.3c-2.9,0-5.2-2.4-5.2-5.2c0-2.9,2.3-5.2,5.2-5.2h10.5
				c2.9,0,5.2,2.3,5.2,5.2c0,2.9-2.3,5.2-5.2,5.2H533.4z M575.2,826.3c-2.9,0-5.2-2.4-5.2-5.2c0-2.9,2.4-5.2,5.2-5.2h10.5
				c2.9,0,5.2,2.3,5.2,5.2c0,2.9-2.4,5.2-5.2,5.2H575.2z M617.1,826.3c-2.9,0-5.2-2.4-5.2-5.2c0-2.9,2.3-5.2,5.2-5.2h10.4
				c2.9,0,5.2,2.3,5.2,5.2c0,2.9-2.3,5.2-5.2,5.2H617.1z M658.8,826.3c-2.9,0-5.2-2.4-5.2-5.2c0-2.9,2.3-5.2,5.2-5.2h10.5
				c2.9,0,5.2,2.3,5.2,5.2c0,2.9-2.4,5.2-5.2,5.2H658.8z M700.6,826.3c-2.9,0-5.2-2.4-5.2-5.2c0-2.9,2.4-5.2,5.2-5.2h10.5
				c2.9,0,5.2,2.3,5.2,5.2c0,2.9-2.4,5.2-5.2,5.2H700.6z M742.4,826.3c-2.9,0-5.2-2.4-5.2-5.2c0-2.9,2.3-5.2,5.2-5.2h10.4
				c2.9,0,5.2,2.3,5.2,5.2c0,2.9-2.3,5.2-5.2,5.2H742.4z M784.2,826.3c-2.9,0-5.2-2.4-5.2-5.2c0-2.9,2.3-5.2,5.2-5.2h10.5
				c2.9,0,5.2,2.3,5.2,5.2c0,2.9-2.4,5.2-5.2,5.2H784.2z M826,826.3c-2.9,0-5.2-2.4-5.2-5.2c0-2.9,2.4-5.2,5.2-5.2h10.5
				c2.9,0,5.2,2.3,5.2,5.2c0,2.9-2.4,5.2-5.2,5.2H826z M868.8,824.9c-2.9,0.6-5.6-1.2-6.3-4c-0.6-2.8,1.2-5.6,4-6.2l0,0l0.3-0.1
				l0.3-0.1l0.3-0.1l0.3-0.1l0.3-0.1l0.3-0.1l0.3-0.1l0.3-0.1l0.3-0.1l0.3-0.1l0.3-0.1l0.3-0.1l0.3-0.1l0.3-0.1l0.3-0.1l0.3-0.1
				l0.3-0.1l0.3-0.1l0.3-0.1l0.3-0.1l0.3-0.1l0.3-0.1l0.3-0.1l0.3-0.1l0.3-0.1l0.3-0.1l0.3-0.1l0.3-0.1l0.3-0.1l0.3-0.1l0,0
				c2.7-1.2,5.7,0.1,6.9,2.7c1.2,2.7-0.1,5.7-2.7,6.9h-0.1l-0.3,0.1l-0.3,0.1l-0.3,0.1l-0.3,0.1l-0.3,0.1l-0.3,0.1l-0.4,0.1
				l-0.3,0.1l-0.3,0.1l-0.3,0.1l-0.4,0.1l-0.3,0.1l-0.3,0.1l-0.3,0.1l-0.4,0.1l-0.3,0.1l-0.3,0.1l-0.4,0.1l-0.3,0.1l-0.3,0.1
				l-0.4,0.1l-0.3,0.1l-0.3,0.1l-0.4,0.1l-0.3,0.1l-0.4,0.1l-0.3,0.1l-0.4,0.1l-0.3,0.1L868.8,824.9L868.8,824.9z M906,800.2
				c-1.7,2.3-5,2.9-7.3,1.2c-2.4-1.6-2.9-4.9-1.3-7.3l0.1-0.2l0.2-0.2l0.2-0.3l0.1-0.3l0.2-0.3l0.1-0.2l0.2-0.3l0.1-0.3l0.2-0.3
				l0.1-0.3l0.1-0.3l0.2-0.3l0.1-0.2l0.1-0.3l0.2-0.3l0.1-0.3l0.1-0.3l0.1-0.3l0.2-0.3l0.1-0.3l0.1-0.3l0.1-0.3l0.1-0.3l0.1-0.3
				l0.2-0.3l0.1-0.3l0.1-0.3l0.1-0.3l0.1-0.3l0.1-0.3l0.1-0.2c1.2-2.7,4.4-3.8,6.9-2.6c2.6,1.2,3.7,4.4,2.6,6.9l-0.1,0.3l-0.2,0.3
				l-0.1,0.3l-0.2,0.3l-0.1,0.3l-0.1,0.3l-0.2,0.3l-0.1,0.3l-0.2,0.3l-0.2,0.3l-0.1,0.3l-0.2,0.3l-0.2,0.3l-0.1,0.3l-0.2,0.3
				l-0.2,0.3l-0.1,0.3l-0.2,0.3l-0.2,0.3l-0.2,0.3l-0.2,0.3l-0.2,0.3l-0.2,0.3l-0.2,0.3l-0.2,0.3l-0.2,0.3l-0.2,0.3l-0.2,0.3
				l-0.2,0.3l-0.2,0.3L906,800.2z M917.4,757.6c0,2.9-2.4,5.2-5.2,5.2c-2.9,0-5.2-2.4-5.2-5.2v-10.5c0-2.9,2.3-5.2,5.2-5.2
				c2.9,0,5.2,2.4,5.2,5.2V757.6z M917.4,715.8c0,2.9-2.4,5.2-5.2,5.2c-2.9,0-5.2-2.3-5.2-5.2v-10.4c0-2.9,2.3-5.2,5.2-5.2
				c2.9,0,5.2,2.3,5.2,5.2V715.8z M917.4,674c0,2.9-2.4,5.2-5.2,5.2c-2.9,0-5.2-2.3-5.2-5.2v-10.5c0-2.9,2.3-5.2,5.2-5.2
				c2.9,0,5.2,2.3,5.2,5.2V674z M917.4,632.2c0,2.9-2.4,5.2-5.2,5.2c-2.9,0-5.2-2.4-5.2-5.2v-10.5c0-2.9,2.3-5.2,5.2-5.2
				c2.9,0,5.2,2.4,5.2,5.2V632.2z M917.4,590.4c0,2.9-2.4,5.2-5.2,5.2c-2.9,0-5.2-2.3-5.2-5.2V580c0-2.9,2.3-5.2,5.2-5.2
				c2.9,0,5.2,2.3,5.2,5.2V590.4z M917.4,548.7c0,2.9-2.4,5.2-5.2,5.2c-2.9,0-5.2-2.3-5.2-5.2v-10.5c0-2.9,2.3-5.2,5.2-5.2
				c2.9,0,5.2,2.4,5.2,5.2V548.7z M917.4,506.8c0,2.9-2.4,5.2-5.2,5.2c-2.9,0-5.2-2.4-5.2-5.2v-10.5c0-2.9,2.3-5.2,5.2-5.2
				c2.9,0,5.2,2.4,5.2,5.2V506.8z M917.4,465c0,2.9-2.4,5.2-5.2,5.2c-2.9,0-5.2-2.3-5.2-5.2v-5.4v-0.3v-0.3v-0.3v-0.3V458l-0.1-0.3
				v-0.3v-0.3v-0.3l-0.1-0.3V456v-0.3l-0.1-0.3v-0.3c-0.3-2.9,1.8-5.4,4.8-5.7c2.9-0.3,5.4,1.9,5.6,4.8l0.1,0.3v0.4v0.3l0.1,0.4v0.4
				l0.1,0.4v0.3v0.4v0.4v0.4l0.1,0.4v0.3v0.4v0.4V465z M905,422.6c1.8,2.3,1.3,5.6-1,7.3c-2.3,1.8-5.6,1.3-7.3-1l-0.1-0.1l-0.2-0.3
				l-0.1-0.2L896,428l-0.2-0.2l-0.2-0.3l-0.2-0.2l-0.1-0.3l-0.2-0.3l-0.2-0.2l-0.2-0.2l-0.2-0.3l-0.2-0.2l-0.2-0.3l-0.2-0.2
				l-0.2-0.2l-0.2-0.3l-0.2-0.2l-0.2-0.2l-0.3-0.3l-0.2-0.2l-0.2-0.2l-0.2-0.2l-0.2-0.3l-0.2-0.2l-0.3-0.2l-0.2-0.2l-0.2-0.2
				l-0.2-0.2l-0.3-0.2l-0.2-0.3h-0.1c-2.1-2-2.3-5.3-0.3-7.4c1.9-2.1,5.2-2.3,7.3-0.3l0.1,0.1l0.3,0.3l0.3,0.3l0.3,0.3l0.3,0.2
				l0.3,0.3l0.3,0.3l0.2,0.3l0.3,0.3l0.3,0.2l0.3,0.3l0.3,0.3l0.2,0.3l0.3,0.3l0.3,0.3l0.2,0.3l0.3,0.3l0.3,0.3l0.2,0.3l0.3,0.3
				l0.2,0.3l0.3,0.3l0.3,0.3l0.2,0.3l0.2,0.3l0.3,0.3l0.2,0.3l0.3,0.3l0.2,0.3l0.2,0.3l0.3,0.3L905,422.6z M870.1,399
				c2.9,0.5,4.7,3.3,4.2,6.1c-0.5,2.8-3.3,4.7-6.1,4.1h-0.1l-0.3-0.1l-0.3-0.1l-0.3-0.1h-0.3l-0.3-0.1l-0.3-0.1l-0.3-0.1h-0.3
				l-0.3-0.1h-0.3l-0.3-0.1h-0.3l-0.3-0.1h-0.3l-0.3-0.1H863l-0.3-0.1h-0.3H862l-0.3-0.1h-0.3H861h-0.3h-0.3l-0.3-0.1h-0.3h-0.3
				h-0.3h-0.3c-2.9,0-5.2-2.3-5.2-5.2c0-2.9,2.3-5.2,5.2-5.2h0.4l0.4,0.1h0.4h0.4h0.3h0.4h0.4l0.4,0.1h0.4h0.3l0.4,0.1h0.4l0.4,0.1
				h0.3l0.4,0.1h0.4l0.3,0.1h0.4l0.4,0.1l0.3,0.1l0.4,0.1h0.4l0.3,0.1l0.4,0.1l0.4,0.1l0.3,0.1l0.4,0.1l0.3,0.1L870.1,399L870.1,399
				z M830.4,397.9c2.9,0,5.2,2.4,5.2,5.2c0,2.9-2.3,5.2-5.2,5.2H820c-2.9,0-5.2-2.3-5.2-5.2c0-2.9,2.4-5.2,5.2-5.2H830.4z"/>
		</g>
		<g>
			<path class="st20" d="M293.5,6.1c-29.2,0-53.9,18.8-60.8,44.2c-28.5,3.1-50.6,25.8-50.6,53.3c0,29.6,25.6,53.7,57.3,53.7l0,0
				h146.4l0,0c0.1,0,0.3,0,0.5,0c27.3,0,49.4-20.7,49.4-46.4c0-19-12.2-35.4-29.9-42.6c0.1-0.3,0.1-0.6,0.1-1
				c0-18.1-15.6-32.8-34.9-32.8c-7.5,0-14.5,2.2-20.2,6.1C340.9,20.3,319,6.1,293.5,6.1L293.5,6.1z"/>
			<path class="st20" d="M135.2,149.1c-14.6,0-26.9,9.4-30.4,22.1c-14.3,1.5-25.3,12.9-25.3,26.7c0,14.8,12.8,26.8,28.6,26.8l0,0
				h73.2l0,0c0.1,0,0.2,0,0.3,0c13.6,0,24.7-10.3,24.7-23.1c0-9.6-6.1-17.7-14.9-21.3c0-0.2,0-0.3,0-0.5c0-9-7.8-16.4-17.5-16.4
				c-3.7,0-7.3,1.1-10.1,3C158.9,156.2,148,149.1,135.2,149.1L135.2,149.1z"/>
		</g>
	</g>
</g>
</svg>
