<?xml version="1.0" encoding="utf-8"?>
<!-- Generator: Adobe Illustrator 23.0.1, SVG Export Plug-In . SVG Version: 6.00 Build 0)  -->
<svg version="1.1" id="Layer_1" xmlns="http://www.w3.org/2000/svg" xmlns:xlink="http://www.w3.org/1999/xlink" x="0px" y="0px"
	 viewBox="0 0 291.36 291.36" style="enable-background:new 0 0 291.36 291.36;" xml:space="preserve">
<style type="text/css">
	.st0{fill:#2A5BD7;}
	.st1{fill:#333333;}
</style>
<g>
	<g>
		<rect x="140.92" y="191.36" class="st0" width="9.52" height="100"/>
		<rect x="117.11" y="191.36" class="st0" width="9.52" height="76.19"/>
		<rect x="93.3" y="234.22" class="st0" width="9.52" height="9.52"/>
		<rect x="93.3" y="191.36" class="st0" width="9.52" height="33.33"/>
		<rect x="164.73" y="258.03" class="st0" width="9.52" height="9.52"/>
		<rect x="164.73" y="191.36" class="st0" width="9.52" height="57.14"/>
		<rect x="188.54" y="191.36" class="st0" width="9.52" height="52.38"/>
		<circle class="st0" cx="145.68" cy="81.84" r="33.33"/>
		<path class="st1" d="M202.82,115.87V84.62c0-30.21-15.21-57.93-40.71-74.16L145.68,0l-16.44,10.46
			c-25.49,16.23-40.71,43.95-40.71,74.16v31.25c-24.71,4.77-42.86,26.38-42.86,51.95v56.88h9.52c0-15.76,12.81-28.57,28.57-28.57
			h123.81c15.76,0,28.57,12.81,28.57,28.57h9.52v-56.88C245.68,142.25,227.53,120.64,202.82,115.87z M134.36,18.5l11.32-7.2
			l11.32,7.2c22.72,14.46,36.29,39.18,36.29,66.12v59.12H98.06V84.62C98.06,57.68,111.63,32.96,134.36,18.5z M83.78,186.6
			c-11.37,0-21.59,5.01-28.57,12.92v-31.71c0-20.34,14-37.6,33.33-42.19v60.97H83.78z M98.06,186.6v-33.33h95.24v33.33H98.06z
			 M236.16,199.52c-6.99-7.92-17.21-12.92-28.57-12.92h-4.76v-60.98c19.33,4.6,33.33,21.86,33.33,42.19L236.16,199.52L236.16,199.52
			z"/>
		<polygon class="st1" points="21.87,38.98 12.35,38.98 12.35,48.51 2.82,48.51 2.82,58.03 12.35,58.03 12.35,67.55 21.87,67.55 
			21.87,58.03 31.4,58.03 31.4,48.51 21.87,48.51 		"/>
		<polygon class="st1" points="45.68,48.51 55.21,48.51 55.21,34.22 69.49,34.22 69.49,24.69 55.21,24.69 55.21,10.41 45.68,10.41 
			45.68,24.69 31.4,24.69 31.4,34.22 45.68,34.22 		"/>
		<polygon class="st1" points="64.73,91.36 64.73,81.84 74.25,81.84 74.25,72.31 64.73,72.31 64.73,62.79 55.21,62.79 55.21,72.31 
			45.68,72.31 45.68,81.84 55.21,81.84 55.21,91.36 		"/>
		<polygon class="st1" points="231.4,62.79 240.92,62.79 240.92,53.27 250.44,53.27 250.44,43.74 240.92,43.74 240.92,34.22 
			231.4,34.22 231.4,43.74 221.87,43.74 221.87,53.27 231.4,53.27 		"/>
		<polygon class="st1" points="288.54,77.08 274.25,77.08 274.25,62.79 264.73,62.79 264.73,77.08 250.44,77.08 250.44,86.6 
			264.73,86.6 264.73,100.89 274.25,100.89 274.25,86.6 288.54,86.6 		"/>
		<polygon class="st1" points="221.87,105.65 231.4,105.65 231.4,96.12 240.92,96.12 240.92,86.6 231.4,86.6 231.4,77.08 
			221.87,77.08 221.87,86.6 212.35,86.6 212.35,96.12 221.87,96.12 		"/>
	</g>
</g>
</svg>
