<?xml version="1.0" encoding="utf-8"?>
<!-- Generator: Adobe Illustrator 23.0.1, SVG Export Plug-In . SVG Version: 6.00 Build 0)  -->
<svg version="1.1" id="Layer_5" xmlns="http://www.w3.org/2000/svg" xmlns:xlink="http://www.w3.org/1999/xlink" x="0px" y="0px"
	 viewBox="0 0 512 512" style="enable-background:new 0 0 512 512;" xml:space="preserve">
<style type="text/css">
	.st0{fill:#2A5BD7;}
</style>
<g>
	<path class="st0" d="M392,232h-80c-8.82,0-16,7.18-16,16v16c0,8.82,7.18,16,16,16h80c8.82,0,16-7.18,16-16v-16
		C408,239.18,400.82,232,392,232z"/>
	<path class="st0" d="M392,328h-80c-8.82,0-16,7.18-16,16v16c0,8.82,7.18,16,16,16h80c8.82,0,16-7.18,16-16v-16
		C408,335.18,400.82,328,392,328z"/>
	<path class="st0" d="M336,424h64v16h-64V424z"/>
</g>
<path d="M504,144c0-54.9-42.8-99.9-96.77-103.63C403.65,21.95,387.44,8,368,8H48C25.94,8,8,25.94,8,48v224c0,22.06,17.94,40,40,40
	h120v16h-46.11c-9.15,0-17.37,5.09-21.46,13.26L88,366.11V408h144v56c0,22.06,17.94,40,40,40h160c22.06,0,40-17.94,40-40V218.86
	C492.32,199.3,504,172.29,504,144z M453.46,174.36c1.16-7.27,1.87-14.73,2.18-22.36h31.94c-1.5,16.34-7.54,31.87-17.34,44.9
	C467.5,187.5,461.53,179.52,453.46,174.36L453.46,174.36z M430.34,88h-60.67c7.89-20.01,19.46-32,30.34-32S422.45,67.99,430.34,88z
	 M487.59,136h-31.81c-0.45-11.3-1.78-22.06-3.96-32h26.46C483.3,113.77,486.56,124.56,487.59,136z M439.8,136h-79.59
	c0.5-11.67,2.09-22.4,4.45-32h70.7C437.71,113.6,439.3,124.33,439.8,136z M352.62,88h-20.45c8.55-10.34,19.44-18.63,31.82-24.21
	C359.54,70.66,355.72,78.85,352.62,88z M321.71,104h26.46c-2.17,9.94-3.51,20.7-3.96,32H312.4
	C313.44,124.56,316.7,113.77,321.71,104z M315.38,168c-1.48-5.22-2.5-10.57-2.99-16h31.96c0.22,5.42,0.64,10.74,1.3,16H315.38z
	 M361.75,168c-0.71-5.23-1.18-10.56-1.42-16h79.3c-0.25,5.66-0.74,11.19-1.5,16.62c-2.01-0.32-4.03-0.62-6.13-0.62H361.75z
	 M467.83,88h-20.45c-3.1-9.15-6.91-17.34-11.37-24.21C448.38,69.37,459.28,77.66,467.83,88z M24,272v-24h112v8
	c0,13.23,10.77,24,24,24h72v16H48C34.77,296,24,285.23,24,272z M232,248v16h-32v-16H232z M184,264h-24c-4.41,0-8-3.58-8-8v-8h32V264
	z M232,312v48h-48v-48H232z M121.89,344H168v16h-59.06l5.79-11.58C116.1,345.7,118.84,344,121.89,344z M104,392v-16h128v16H104z
	 M232.81,200H120v-40h-16v56h128v16H24V48c0-13.23,10.77-24,24-24h320c10.59,0,19.5,6.94,22.67,16.47
	C337.69,45.21,296,89.81,296,144c0,8.14,1.01,16.17,2.86,24H280V88h-88v16h72v64.81C248.35,172,236,184.35,232.81,200z M456,464
	c0,13.23-10.77,24-24,24H272c-13.23,0-24-10.77-24-24V208c0-13.23,10.77-24,24-24h160c13.23,0,24,10.77,24,24V464z"/>
<path d="M424,200H280c-8.82,0-16,7.18-16,16v240c0,8.82,7.18,16,16,16h144c8.82,0,16-7.18,16-16V216C440,207.18,432.82,200,424,200z
	 M280,216h144v80H279.99L280,216L280,216z M424,312v80H280v-80H424z M280,456v-48h144v48H280z"/>
<path d="M392,424h16v16h-16V424z"/>
<path d="M328,424h16v16h-16V424z"/>
<path d="M360,424h16v16h-16V424z"/>
<path d="M280,40h16v16h-16V40z"/>
<path d="M248,40h16v16h-16V40z"/>
<path d="M312,40h16v16h-16V40z"/>
<path d="M216,40h16v16h-16V40z"/>
<path class="st0" d="M200,168H40V40h160V168z"/>
</svg>
