<?xml version="1.0" encoding="utf-8"?>
<!-- Generator: Adobe Illustrator 23.0.1, SVG Export Plug-In . SVG Version: 6.00 Build 0)  -->
<svg version="1.1" id="Layer_5" xmlns="http://www.w3.org/2000/svg" xmlns:xlink="http://www.w3.org/1999/xlink" x="0px" y="0px"
	 viewBox="0 0 512 512" style="enable-background:new 0 0 512 512;" xml:space="preserve">
<style type="text/css">
	.st0{fill:#2A5BD7;}
</style>
<g>
	<g>
		<g>
			<path class="st0" d="M216,216H88v-96h128V216z"/>
		</g>
	</g>
	<g>
		<g>
			<path class="st0" d="M216,328H88v-96h128V328z"/>
		</g>
	</g>
	<g>
		<path class="st0" d="M232,128h64v64h-64V128z"/>
	</g>
	<g>
		<circle cx="224" cy="384" r="8"/>
		<circle cx="256" cy="384" r="8"/>
		<circle cx="288" cy="384" r="8"/>
		<path d="M471.98,32.42c-20.33-18.18-47.66-26.84-75-23.81c-15.14,1.69-29.36,7.18-41.7,15.38H80c-13.23,0-24,10.77-24,24v56h-8
			c-22.06,0-40,17.94-40,40v240c0,22.06,17.94,40,40,40h136v32h-8c-22.06,0-40,17.94-40,40v8h240v-8c0-22.06-17.94-40-40-40h-8v-32
			h136c22.06,0,40-17.94,40-40V104C504,76.71,492.33,50.63,471.98,32.42L471.98,32.42z M398.75,24.51c3.14-0.34,6.26-0.52,9.35-0.52
			c19.73,0,38.34,7.06,53.21,20.36C478.27,59.52,488,81.26,488,104c0,24.21-10.83,46.86-29.7,62.13
			c-10.62,8.58-17.03,20.78-18.08,33.87h-15.66l4.8-72H440c13.23,0,24-10.77,24-24s-10.77-24-24-24h-1.03
			c-12.58,0-23.1,9.84-23.94,22.41l-0.64,9.59h-12.77l-0.64-9.6C400.14,89.84,389.62,80,377.03,80H376c-13.23,0-24,10.77-24,24
			s10.77,24,24,24h10.65l4.8,72h-15.67c-1.08-13.04-7.62-25.32-18.41-34.14c-22.18-18.14-32.79-46.05-28.38-74.64
			C334.34,56.49,363.69,28.43,398.75,24.51L398.75,24.51z M72,344V104h240.13c0,28.73,12.47,55.72,35.12,74.24
			c8.1,6.63,12.75,15.94,12.75,25.56V216c0,26.47,21.53,48,48,48c12.3,0,23.5-4.69,32-12.32V344H72z M440,216
			c0,17.65-14.35,32-32,32s-32-14.35-32-32H440z M402.68,128h10.63l-4.8,72h-1.03L402.68,128z M430.42,112l0.57-8.53
			c0.28-4.19,3.79-7.47,7.98-7.47H440c4.41,0,8,3.59,8,8s-3.59,8-8,8H430.42z M385.58,112H376c-4.41,0-8-3.59-8-8s3.59-8,8-8h1.03
			c4.19,0,7.7,3.28,7.98,7.47L385.58,112z M80,40h256.68c-12.02,13.3-20.38,29.88-23.34,48H72V48C72,43.59,75.59,40,80,40z M48,120
			h8v224H24V144C24,130.77,34.77,120,48,120z M358.63,488H153.37c3.3-9.31,12.2-16,22.63-16h160
			C346.43,472,355.33,478.69,358.63,488L358.63,488z M312,456H200v-32h112V456z M464,408H48c-13.23,0-24-10.77-24-24v-24h464v24
			C488,397.23,477.23,408,464,408z M488,344h-32V216v-8v-4.24c0-9.66,4.5-18.84,12.35-25.19c7.76-6.27,14.29-13.65,19.65-21.72V344z
			"/>
		<path d="M88,56h16v16H88V56z"/>
		<path d="M120,56h16v16h-16V56z"/>
		<path d="M152,56h16v16h-16V56z"/>
		<path d="M144,284.69l-10.34-10.34l-11.31,11.31L144,307.31l37.66-37.66l-11.31-11.31L144,284.69z"/>
		<path d="M144,172.69l-10.34-10.34l-11.31,11.31L144,195.31l37.66-37.66l-11.31-11.31L144,172.69z"/>
		<path d="M232,120h64v16h-64V120z"/>
		<path d="M232,152h64v16h-64V152z"/>
		<path d="M232,184h64v16h-64V184z"/>
		<path d="M360,312h-16v-96h-48v96h-16v-64h-48v80h176v-64h-48V312z M264,312h-16v-48h16V312z M312,232h16v80h-16V232z M376,280h16
			v32h-16V280z"/>
	</g>
</g>
</svg>
