<?xml version="1.0" encoding="utf-8"?>
<!-- Generator: Adobe Illustrator 23.0.1, SVG Export Plug-In . SVG Version: 6.00 Build 0)  -->
<svg version="1.1" id="Layer_5" xmlns="http://www.w3.org/2000/svg" xmlns:xlink="http://www.w3.org/1999/xlink" x="0px" y="0px"
	 viewBox="0 0 512 512" style="enable-background:new 0 0 512 512;" xml:space="preserve">
<style type="text/css">
	.st0{fill:#2A5BD7;}
</style>
<g>
	<g>
		<path class="st0" d="M307.15,187.29c-3.18-12.1-8.08-23.72-14.58-35.01c-18.95-4.44-38.27-7.14-57.74-7.98
			C257.55,163.38,272,192,272,224c0,57.44-46.56,104-104,104S64,281.44,64,224c0-39.78,22.34-74.35,55.15-91.84l0.2,0.02
			C114.83,126.66,112,119.7,112,112V91.84l-0.6-0.18l-2.7,1.22c-4.45,2.02-8.83,4.29-13.1,6.78l-19.69-9.85l-42.1,42.1l9.85,19.69
			c-6.55,11.22-11.52,23.19-14.82,35.68L8,194.23v59.53l20.85,6.95c3.29,12.49,8.26,24.46,14.82,35.68l-9.85,19.69l42.1,42.1
			l19.69-9.85c11.22,6.55,23.19,11.52,35.68,14.82l6.94,20.85h59.53l6.95-20.85c12.49-3.29,24.46-8.26,35.68-14.82l19.69,9.85
			l42.1-42.1l-9.85-19.69c6.55-11.22,11.52-23.19,14.82-35.68l20.85-6.94v-59.53L307.15,187.29z"/>
	</g>
	<g>
		<path class="st0" d="M24,400h112v72H24V400z"/>
	</g>
	<g>
		<path d="M368,232c-15.11,0-28.3,1.61-40,4.86v16.86c0.23-0.08,0.48-0.13,0.71-0.2c-18.7,22.65-31.17,61.27-32.5,106.48h-47.88
			c0.18-2.45,0.44-4.89,0.74-7.32l-8.68-4.34c-2.45,1.42-4.94,2.74-7.46,4.02c-0.58,5.17-0.94,10.39-0.94,15.63
			c0,74.99,61.01,136,136,136s136-61.01,136-136S442.99,232,368,232L368,232z M368,488c-17.86,0-34.03-19.1-44.37-48h88.74
			C402.03,468.9,385.86,488,368,488L368,488z M318.73,424c-3.7-14.57-5.97-30.86-6.53-48h111.61c-0.56,17.14-2.83,33.43-6.53,48
			H318.73z M248.41,376h47.8c0.5,17.11,2.58,33.28,6.02,48h-40.27C254.26,409.5,249.55,393.24,248.41,376L248.41,376z M439.79,376
			h47.8c-1.14,17.24-5.86,33.5-13.54,48h-40.27C437.22,409.28,439.29,393.11,439.79,376L439.79,376z M439.79,360
			c-0.5-17.11-2.58-33.28-6.02-48h40.27c7.69,14.5,12.4,30.76,13.54,48H439.79z M463.78,296h-34.46
			c-5.26-16.18-12.22-30.1-20.53-40.71C430.86,263.3,449.88,277.57,463.78,296z M412.37,296h-88.74c10.34-28.9,26.51-48,44.37-48
			S402.03,267.1,412.37,296L412.37,296z M318.73,312h98.55c3.7,14.57,5.97,30.86,6.53,48H312.19
			C312.75,342.86,315.03,326.57,318.73,312L318.73,312z M272.22,440h34.46c5.26,16.18,12.22,30.1,20.53,40.71
			C305.14,472.7,286.12,458.43,272.22,440L272.22,440z M408.78,480.71c8.3-10.62,15.26-24.53,20.53-40.71h34.46
			C449.88,458.43,430.86,472.7,408.78,480.71L408.78,480.71z"/>
		<path d="M280,224c0-25.78-8.9-50.35-24.76-70.07c19.54,2.18,38.83,6.29,57.66,12.24C315.65,176.41,324.91,184,336,184h16
			c13.23,0,24-10.77,24-24v-25.75l32-8v-60.5l-32-8V32c0-13.23-10.77-24-24-24h-16c-11.09,0-20.35,7.59-23.1,17.83
			C283.27,35.2,252.52,40,221.41,40H144c-22.06,0-40,17.94-40,40v32c0,6.24,1.56,12.08,4.13,17.35C75.78,149.82,56,185.34,56,224
			c0,61.76,50.24,112,112,112S280,285.76,280,224L280,224z M392,78.25v35.5l-16,4v-43.5L392,78.25z M328,32c0-4.41,3.58-8,8-8h16
			c4.42,0,8,3.59,8,8v128c0,4.41-3.58,8-8,8h-16c-4.42,0-8-3.59-8-8V32z M312,42.86v106.26c-29.42-8.7-59.84-13.13-90.59-13.13H184
			V56h37.41C252.16,56,282.58,51.57,312,42.86L312,42.86z M209.5,209.69c4.01,2.01,6.5,6.05,6.5,10.54
			c0,6.49-5.28,11.78-11.78,11.78h-24.46c-6.49,0-11.77-5.29-11.77-11.78V152h32v52.94L209.5,209.69z M120,80
			c0-13.23,10.77-24,24-24h24v80h-24c-13.23,0-24-10.77-24-24V80z M168,320c-52.94,0-96-43.06-96-96c0-33.63,17.47-64.49,45.94-81.9
			c7.02,6.09,16.06,9.9,26.06,9.9h8v68.22c0,15.31,12.46,27.78,27.78,27.78h24.46c15.3,0,27.77-12.46,27.77-27.78
			c0-10.59-5.88-20.11-15.35-24.84l-0.65-0.33V152h5.41c3.39,0,6.78,0.09,10.16,0.2C252.16,170.46,264,196.42,264,224
			C264,276.94,220.94,320,168,320z"/>
		<path d="M120,456h16v16h-16V456z"/>
		<path d="M88,456h16v16H88V456z"/>
		<path d="M24,456h16v16H24V456z"/>
		<path d="M56,456h16v16H56V456z"/>
		<path d="M24,424h112v16H24V424z"/>
		<path d="M24,392h112v16H24V392z"/>
		<path d="M110.19,251.5l-14.43,6.9c2.55,5.34,5.7,10.42,9.38,15.07l12.56-9.9C114.76,259.84,112.23,255.78,110.19,251.5z"/>
		<path d="M149.15,301.76c5.73,1.38,11.64,2.14,17.58,2.22l0.25-16c-4.77-0.07-9.5-0.67-14.09-1.78L149.15,301.76z"/>
		<path d="M104,224H88c0,5.93,0.66,11.86,1.95,17.62l15.61-3.5C104.52,233.5,104,228.75,104,224z"/>
		<path d="M117.55,286.1c4.58,3.74,9.6,6.97,14.9,9.61l7.13-14.33c-4.24-2.11-8.26-4.7-11.94-7.69L117.55,286.1z"/>
	</g>
</g>
</svg>
