<?xml version="1.0" encoding="utf-8"?>
<!-- Generator: Adobe Illustrator 23.0.1, SVG Export Plug-In . SVG Version: 6.00 Build 0)  -->
<svg version="1.1" id="Layer_1" xmlns="http://www.w3.org/2000/svg" xmlns:xlink="http://www.w3.org/1999/xlink" x="0px" y="0px"
	 viewBox="0 0 910 262" style="enable-background:new 0 0 910 262;" xml:space="preserve">
<g>
	<path d="M78.58,195.36c14.45,16.22,35.8,24.79,61.75,24.79c22.88,0,42.98-7.89,58.11-22.82l4.99-4.92l-27.88-28.19l-4.98,4.98
		c-7.38,7.38-19.25,12.15-30.25,12.15c-28.72,0-37.52-17.77-40.13-30.51l-40.34,1.33C61.91,168.87,68.38,183.92,78.58,195.36z"/>
	<path d="M86.13,140.9c-0.1-11.88,4.09-22.99,11.51-30.47c7.29-7.35,17.28-11.07,29.69-11.07c11.25,0,21.52,3.98,28.9,11.2
		l4.86,4.76l27.65-26.71l-5.11-5.04c-15.53-15.32-35.01-23.42-56.31-23.42c-23.67,0-43.88,7.74-58.45,22.4
		C54.3,97.22,46,118.52,46.13,141c0.01,2.22,0.12,4.41,0.28,6.58l40.06-1.32C86.22,144.12,86.14,142.28,86.13,140.9z"/>
	<polygon points="319.52,59.36 281.32,59.36 281.32,139.82 319.52,138.55 	"/>
	<polygon points="234.32,59.36 195.93,59.36 195.93,142.64 234.32,141.37 	"/>
	<path d="M294.32,160.76c0,10.24-3.45,22.88-27.32,21.24c-15.13-1.04-19.68-13.21-19.68-19.04v-16.97l-38.4,1.27v15.91
		c0,33.14,19.21,55.4,47.8,55.4c10.72,0,31.44-2.48,39.97-8.22l0.81,8.82h35.01v-75.99l-38.2,1.26V160.76z"/>
	<polygon points="390.32,96.56 427.72,96.56 427.72,61.56 390.52,61.56 390.52,32.77 352.13,33.87 352.13,61.56 333.72,61.56 
		333.72,96.56 352.13,96.56 352.13,137.48 390.32,136.22 	"/>
	<path d="M365.13,175.16c0,13.86,4.13,25.16,11.94,32.69c7.05,6.8,16.88,10.35,28.47,10.35c0.72,0,1.44-0.01,2.17-0.04
		c8.28-0.22,14.83-1.59,22.61-4.7l6.09-2.44l-11.36-34.75l-7.26,3.63c-2.79,1.39-6.11,2.26-8.67,2.26c-2.81,0-5.8-0.54-5.8-7v-34.33
		l-38.2,1.26V175.16z"/>
	<path d="M480.13,141c0.12,21.11,7.02,40.42,19.45,54.37c14.45,16.22,35.8,24.79,61.75,24.79c22.88,0,42.98-7.89,58.11-22.82
		l4.99-4.92l-27.88-28.19l-4.98,4.98c-7.38,7.38-19.25,12.15-30.25,12.15c-37.9,0-41.12-30.97-41.2-40.46
		c-0.01-1.32,0.04-2.63,0.13-3.93l-40.08,1.32C480.15,139.19,480.12,140.09,480.13,141z"/>
	<path d="M518.63,110.43c7.29-7.35,17.28-11.07,29.69-11.07c11.25,0,21.52,3.98,28.9,11.2l4.86,4.76l27.65-26.71l-5.11-5.04
		c-15.53-15.32-35.01-23.42-56.31-23.42c-23.67,0-43.88,7.74-58.45,22.4c-12.99,13.06-20.97,31.38-22.47,51.12l40.41-1.33
		C509.28,123.79,513.04,116.08,518.63,110.43z"/>
	<polygon points="655.32,59.36 616.93,59.36 616.93,128.73 655.32,127.47 	"/>
	<polygon points="740.52,59.36 702.32,59.36 702.32,125.91 740.52,124.65 	"/>
	<path d="M715.32,160.76c0,10.24-3.45,22.88-27.32,21.24c-15.13-1.04-19.68-13.21-19.68-19.04v-30.88l-38.4,1.27v29.81
		c0,33.14,19.21,55.4,47.8,55.4c10.72,0,31.44-2.48,39.97-8.22l0.81,8.82h35.01v-89.89l-38.2,1.26V160.76z"/>
	<polygon points="848.72,96.56 848.72,61.56 811.52,61.56 811.52,32.77 773.13,33.87 773.13,61.56 754.72,61.56 754.72,96.56 
		773.13,96.56 773.13,123.58 811.32,122.31 811.32,96.56 	"/>
	<path d="M786.13,175.16c0,13.86,4.13,25.16,11.94,32.69c7.05,6.8,16.88,10.35,28.47,10.35c0.72,0,1.44-0.01,2.17-0.04
		c8.28-0.22,14.83-1.59,22.61-4.7l6.09-2.44l-11.36-34.75l-7.26,3.63c-2.79,1.39-6.11,2.26-8.67,2.26c-2.81,0-5.8-0.54-5.8-7v-48.23
		l-38.2,1.26V175.16z"/>
</g>
</svg>
