<?xml version="1.0" encoding="utf-8"?>
<!-- Generator: Adobe Illustrator 23.0.1, SVG Export Plug-In . SVG Version: 6.00 Build 0)  -->
<svg version="1.1" xmlns="http://www.w3.org/2000/svg" xmlns:xlink="http://www.w3.org/1999/xlink" x="0px" y="0px"
	 viewBox="0 0 500 500" style="enable-background:new 0 0 500 500;" xml:space="preserve">
<style type="text/css">
	.st0{fill:#FAFAFA;}
	.st1{fill:#E0E0E0;}
	.st2{fill:#EBEBEB;}
	.st3{fill:#F5F5F5;}
	.st4{fill:#263238;}
	.st5{opacity:0.6;}
	.st6{display:none;}
	.st7{display:inline;}
	.st8{fill:#80A0E0;}
	.st9{fill:#9BB5E0;}
	.st10{fill:#455A64;}
	.st11{fill:#FFFFFF;}
	.st12{fill:#2A5BD7;}
	.st13{opacity:0.3;}
	.st14{fill:#FF725E;}
	.st15{fill:#FFBE9D;}
	.st16{fill:#EB996E;}
</style>
<g id="Background_Complete">
	<g>
		<g>
			<circle class="st0" cx="409.5" cy="152.76" r="34.81"/>
		</g>
		<g>
			<g>
				<g>
					<g>
						<g>
							<path class="st1" d="M374.35,152.69c0.07,0,0.16-0.77,0.28-2.23c0.04-0.73,0.12-1.63,0.33-2.68c0.18-1.05,0.34-2.27,0.75-3.6
								c0.62-2.69,1.89-5.86,3.86-9.23c1.99-3.35,4.85-6.85,8.75-9.83c3.88-2.95,8.78-5.47,14.44-6.51
								c5.62-1.01,11.97-0.89,18.03,1.35c3.05,1.03,5.99,2.59,8.71,4.58c1.4,0.94,2.63,2.13,3.91,3.26c1.16,1.26,2.39,2.5,3.39,3.93
								c4.27,5.55,6.72,12.72,6.88,20.13c0.02,7.42-2.26,14.64-6.4,20.29c-0.97,1.46-2.17,2.72-3.3,4.01
								c-1.26,1.17-2.46,2.38-3.84,3.35c-2.66,2.05-5.57,3.69-8.6,4.78c-6,2.38-12.35,2.65-17.99,1.77
								c-5.68-0.91-10.63-3.32-14.59-6.17c-3.96-2.89-6.91-6.32-8.98-9.62c-2.05-3.32-3.39-6.46-4.07-9.13
								c-0.44-1.32-0.63-2.53-0.83-3.58c-0.24-1.04-0.34-1.94-0.4-2.67C374.53,153.46,374.41,152.69,374.35,152.69
								c-0.07,0-0.08,0.77-0.05,2.25c0,0.74,0.04,1.66,0.22,2.73c0.14,1.07,0.28,2.32,0.67,3.68c0.59,2.76,1.85,6.03,3.88,9.51
								c2.04,3.46,5.02,7.08,9.08,10.15c4.05,3.04,9.19,5.63,15.13,6.66c5.89,0.99,12.55,0.77,18.89-1.69
								c3.19-1.13,6.27-2.83,9.09-4.98c1.46-1.02,2.73-2.29,4.06-3.52c1.2-1.35,2.46-2.68,3.5-4.22c4.39-5.95,6.82-13.59,6.79-21.42
								c-0.16-7.83-2.77-15.41-7.3-21.25c-1.07-1.51-2.36-2.81-3.6-4.13c-1.36-1.2-2.66-2.43-4.14-3.42
								c-2.87-2.08-5.98-3.71-9.2-4.76c-6.4-2.31-13.06-2.37-18.93-1.24c-5.91,1.17-10.98,3.87-14.97,7.01
								c-3.99,3.17-6.88,6.85-8.84,10.36c-1.95,3.52-3.13,6.82-3.66,9.6c-0.36,1.37-0.47,2.62-0.59,3.7
								c-0.16,1.07-0.17,1.99-0.15,2.73C374.24,151.92,374.28,152.69,374.35,152.69z"/>
						</g>
					</g>
				</g>
			</g>
			<g>
				<g>
					<g>
						<g>
							<path class="st1" d="M381.65,130.82c-0.08,0.11,0.55,0.67,1.76,1.59c0.67,0.49,1.41,1.04,2.24,1.65
								c0.44,0.31,0.91,0.67,1.43,1c0.55,0.3,1.12,0.6,1.72,0.93c4.67,2.78,12.08,5.65,20.6,5.46c1.06-0.03,2.1-0.07,3.13-0.1
								c1.02-0.15,2.02-0.29,3.01-0.43c0.49-0.08,0.98-0.14,1.46-0.23c0.47-0.12,0.94-0.24,1.41-0.36c0.92-0.24,1.84-0.45,2.71-0.72
								c3.46-1.16,6.46-2.52,8.82-3.93c4.75-2.79,7.07-5.35,6.89-5.52c-0.19-0.22-2.77,1.92-7.55,4.32
								c-2.37,1.22-5.32,2.4-8.67,3.42c-0.84,0.23-1.73,0.41-2.61,0.62c-0.45,0.1-0.9,0.21-1.35,0.32c-0.46,0.06-0.93,0.13-1.4,0.19
								c-0.94,0.13-1.9,0.26-2.87,0.39c-0.98,0.03-1.98,0.05-2.98,0.08c-8.09,0.18-15.23-2.34-19.95-4.74
								c-0.6-0.27-1.18-0.53-1.74-0.78c-0.53-0.29-1.01-0.59-1.47-0.85c-0.88-0.5-1.67-0.95-2.38-1.35
								C382.51,131.07,381.73,130.72,381.65,130.82z"/>
						</g>
					</g>
				</g>
			</g>
			<g>
				<g>
					<g>
						<g>
							<path class="st1" d="M437.34,174.26c0.08-0.11-0.55-0.67-1.76-1.59c-0.67-0.49-1.41-1.04-2.24-1.65
								c-0.44-0.31-0.91-0.67-1.43-1c-0.55-0.3-1.12-0.6-1.72-0.93c-4.67-2.78-12.08-5.65-20.6-5.46c-1.06,0.03-2.1,0.07-3.13,0.1
								c-1.02,0.15-2.02,0.29-3.01,0.43c-0.49,0.08-0.98,0.14-1.46,0.23c-0.47,0.12-0.94,0.24-1.41,0.36
								c-0.92,0.24-1.84,0.45-2.71,0.72c-3.46,1.16-6.46,2.52-8.82,3.93c-4.75,2.79-7.07,5.35-6.89,5.52
								c0.19,0.22,2.77-1.92,7.55-4.32c2.37-1.22,5.32-2.4,8.67-3.42c0.84-0.23,1.73-0.41,2.62-0.62c0.45-0.1,0.9-0.21,1.35-0.32
								c0.46-0.06,0.93-0.13,1.4-0.19c0.94-0.13,1.9-0.26,2.87-0.39c0.98-0.03,1.98-0.05,2.98-0.08c8.09-0.18,15.23,2.34,19.95,4.74
								c0.6,0.27,1.18,0.53,1.74,0.78c0.53,0.29,1.01,0.59,1.47,0.85c0.88,0.5,1.67,0.95,2.38,1.35
								C436.48,174.01,437.26,174.37,437.34,174.26z"/>
						</g>
					</g>
				</g>
			</g>
			<g>
				<g>
					<g>
						<g>
							<path class="st1" d="M374.36,153.51c0.01,0.53,15.75,0.78,35.16,0.55c19.41-0.23,35.14-0.84,35.14-1.38
								c-0.01-0.53-15.74-0.78-35.16-0.55C390.08,152.36,374.35,152.97,374.36,153.51z"/>
						</g>
					</g>
				</g>
			</g>
			<g>
				<g>
					<g>
						<g>
							<path class="st1" d="M410.69,187.4c0.53-0.01,0.78-15.74,0.56-35.14c-0.23-19.41-0.84-35.13-1.38-35.13
								c-0.53,0.01-0.78,15.74-0.55,35.15C409.54,171.68,410.16,187.41,410.69,187.4z"/>
						</g>
					</g>
				</g>
			</g>
			<g>
				<g>
					<g>
						<g>
							<path class="st1" d="M410.69,187.35c0.13,0.21,4.03-2.37,8.58-8.26c2.25-2.94,4.61-6.73,6.42-11.33
								c1.8-4.59,2.96-10,2.92-15.71c-0.03-5.73-1.4-11.11-3.35-15.63c-1.95-4.54-4.42-8.25-6.72-11.14
								c-4.66-5.78-8.53-8.36-8.67-8.16c-0.19,0.22,3.31,3.14,7.58,8.99c2.11,2.92,4.39,6.6,6.17,11c1.78,4.38,3.03,9.51,3.06,14.96
								c0.04,5.45-1.01,10.63-2.65,15.07c-1.65,4.45-3.82,8.19-5.86,11.15C414.02,184.23,410.5,187.14,410.69,187.35z"/>
						</g>
					</g>
				</g>
			</g>
			<g>
				<g>
					<g>
						<g>
							<path class="st1" d="M409.08,117.13c-0.13-0.21-4.03,2.37-8.58,8.26c-2.25,2.94-4.61,6.73-6.42,11.33
								c-1.8,4.59-2.96,10-2.92,15.71c0.03,5.73,1.4,11.11,3.35,15.63c1.95,4.54,4.42,8.25,6.72,11.14
								c4.66,5.78,8.53,8.36,8.67,8.16c0.19-0.22-3.31-3.14-7.58-8.99c-2.11-2.92-4.38-6.6-6.17-11c-1.78-4.38-3.03-9.51-3.06-14.96
								c-0.04-5.45,1.01-10.63,2.65-15.07c1.65-4.45,3.82-8.19,5.86-11.15C405.75,120.26,409.27,117.35,409.08,117.13z"/>
						</g>
					</g>
				</g>
			</g>
		</g>
	</g>
	<g>
		<g>
			<path class="st2" d="M409.92,186.33c-0.14,0-0.26,5.07-0.26,11.32c0,6.26,0.12,11.32,0.26,11.32c0.14,0,0.26-5.07,0.26-11.32
				C410.18,191.4,410.06,186.33,409.92,186.33z"/>
		</g>
	</g>
	<g>
		<g>
			<path class="st2" d="M383.34,97.22c0,0.02,0.16,0.04,0.47,0.05c0.37,0.01,0.81,0.03,1.34,0.05c1.24,0.02,2.9,0.05,4.91,0.08
				c4.15,0.05,9.87,0.08,16.2,0.08c1.39,0,2.76,0,4.07,0l-0.26-0.26c0.03,5.31,0.07,9.99,0.09,13.44c0.03,1.62,0.06,2.95,0.08,3.96
				c0.03,0.93,0.06,1.44,0.09,1.44c0.03,0,0.06-0.51,0.09-1.44c0.02-1.01,0.05-2.34,0.08-3.96c0.02-3.45,0.05-8.13,0.09-13.44
				l0-0.26l-0.26,0c-1.31,0-2.68,0-4.07,0c-6.33,0-12.05,0.03-16.2,0.08c-2.01,0.03-3.67,0.06-4.91,0.08
				c-0.53,0.02-0.97,0.04-1.34,0.05C383.5,97.18,383.34,97.2,383.34,97.22z"/>
		</g>
	</g>
	<g>
		<g>
			<g>
				<g>
					<g>
						<g>
							
								<rect x="161.4" y="428.28" transform="matrix(-1 -4.486779e-11 4.486779e-11 -1 333.5744 907.4572)" class="st2" width="10.78" height="50.89"/>
						</g>
					</g>
				</g>
				<g>
					<g>
						<g>
							
								<rect x="69.76" y="428.28" transform="matrix(-1 -4.486823e-11 4.486823e-11 -1 150.3055 907.4572)" class="st2" width="10.78" height="50.89"/>
						</g>
					</g>
				</g>
				<g>
					<g>
						<g>
							
								<rect x="53.98" y="364.3" transform="matrix(-1 -4.488688e-11 4.488688e-11 -1 243.994 741.1933)" class="st2" width="136.04" height="12.58"/>
						</g>
					</g>
				</g>
				<g>
					<g>
						<g>
							<polygon class="st2" points="59.4,428.92 181.74,429.19 181.74,376.89 59.4,376.89 							"/>
						</g>
					</g>
				</g>
				<g>
					<g>
						<g>
							<g>
								<path class="st1" d="M53.98,376.89c0,0.14,30.46,0.24,68.02,0.24c37.57,0,68.02-0.11,68.02-0.24
									c0-0.14-30.45-0.24-68.02-0.24C84.43,376.64,53.98,376.75,53.98,376.89z"/>
							</g>
						</g>
					</g>
				</g>
				<g>
					<g>
						<g>
							<g>
								<path class="st1" d="M59.85,429.19c0,0.14,27.19,0.24,60.72,0.24c33.54,0,60.72-0.11,60.72-0.24
									c0-0.14-27.18-0.24-60.72-0.24C87.03,428.94,59.85,429.05,59.85,429.19z"/>
							</g>
						</g>
					</g>
				</g>
				<g>
					<g>
						<g>
							<g>
								<path class="st1" d="M69.48,418.59c0,0,0.01-0.21,0.02-0.6c0-0.41,0.01-0.98,0.02-1.74c0.01-1.54,0.02-3.78,0.04-6.69
									c0.02-5.83,0.05-14.29,0.09-24.91l-0.16,0.16c24.53,0.02,61.24,0.05,102.16,0.08h0.01l-0.24-0.24
									c0,11.79,0.01,23.23,0.01,33.94l0.24-0.24c-29.38,0.04-54.89,0.08-73.07,0.11c-9.09,0.03-16.35,0.05-21.35,0.07
									c-2.49,0.01-4.42,0.02-5.74,0.03c-0.65,0.01-1.14,0.01-1.49,0.01C69.66,418.58,69.48,418.59,69.48,418.59
									s0.16,0.01,0.49,0.02c0.34,0,0.83,0.01,1.46,0.01c1.31,0.01,3.22,0.02,5.69,0.03c4.99,0.02,12.23,0.04,21.3,0.07
									c18.22,0.03,43.78,0.07,73.23,0.11l0.24,0l0-0.24c0-10.71,0.01-22.15,0.01-33.94l0-0.24h-0.24h-0.01
									c-40.92,0.03-77.62,0.06-102.16,0.08l-0.16,0l0,0.16c0.04,10.66,0.07,19.15,0.09,25c0.02,2.89,0.03,5.13,0.04,6.66
									c0.01,0.74,0.01,1.31,0.02,1.71C69.47,418.4,69.48,418.59,69.48,418.59z"/>
							</g>
						</g>
					</g>
				</g>
				<g>
					<g>
						<g>
							<g>
								<path class="st1" d="M167.6,414.14c-0.1,0.09,0.7,1.11,1.77,2.26c1.08,1.16,2.03,2.02,2.13,1.93c0.1-0.09-0.7-1.1-1.77-2.26
									C168.65,414.91,167.7,414.05,167.6,414.14z"/>
							</g>
						</g>
					</g>
				</g>
				<g>
					<g>
						<g>
							<g>
								<path class="st1" d="M167.6,389.1c0.1,0.09,1.09-0.83,2.2-2.06c1.12-1.23,1.94-2.3,1.84-2.39c-0.1-0.09-1.09,0.83-2.2,2.06
									C168.32,387.94,167.5,389.01,167.6,389.1z"/>
							</g>
						</g>
					</g>
				</g>
				<g>
					<g>
						<g>
							<g>
								<path class="st1" d="M69.3,384.76c-0.11,0.1,0.87,1.19,2.22,2.36c1.35,1.16,2.46,2.07,2.55,1.99
									c0.11-0.1-0.87-1.19-2.22-2.36C70.5,385.58,69.39,384.67,69.3,384.76z"/>
							</g>
						</g>
					</g>
				</g>
				<g>
					<g>
						<g>
							<g>
								<path class="st1" d="M69.48,418.59c0.09,0.1,1.2-0.82,2.46-2.05c1.27-1.23,2.22-2.3,2.12-2.4c-0.09-0.1-1.2,0.82-2.47,2.05
									C70.34,417.42,69.39,418.5,69.48,418.59z"/>
							</g>
						</g>
					</g>
				</g>
				<g>
					<g>
						<g>
							<g>
								<path class="st1" d="M74.07,414.14c0,0,0.01-0.15,0.01-0.44c0-0.3,0.01-0.72,0.02-1.27c0.01-1.13,0.02-2.78,0.04-4.91
									c0.02-4.29,0.05-10.53,0.08-18.41l-0.15,0.15c21.34,0.02,55.32,0.06,93.52,0.1h0.01l-0.24-0.24c0,8.6,0,17,0.01,25.04
									l0.24-0.24c-26.7,0.04-50.05,0.08-66.74,0.11c-8.35,0.03-15.03,0.05-19.64,0.07c-2.29,0.01-4.07,0.02-5.29,0.03
									c-0.59,0.01-1.05,0.01-1.38,0.02C74.24,414.13,74.07,414.14,74.07,414.14s0.15,0.01,0.45,0.02c0.32,0,0.77,0.01,1.35,0.02
									c1.21,0.01,2.97,0.02,5.24,0.03c4.6,0.02,11.26,0.04,19.59,0.07c16.73,0.03,40.14,0.07,66.9,0.11l0.24,0v-0.24
									c0-8.04,0-16.43,0.01-25.04v-0.24h-0.24h-0.01c-38.2,0.04-72.18,0.07-93.52,0.1l-0.15,0l0,0.15
									c0.04,7.92,0.06,14.19,0.08,18.5c0.02,2.12,0.03,3.75,0.04,4.88c0.01,0.54,0.01,0.95,0.02,1.25
									C74.06,414.01,74.07,414.14,74.07,414.14z"/>
							</g>
						</g>
					</g>
				</g>
				<g>
					<g>
						<g>
							<g>
								<path class="st1" d="M111.57,399.29c0.77-0.51,1.63-0.86,2.51-1.14c0.8-0.26,1.64-0.39,2.48-0.39h6.88
									c2.03,0,4.02,0.72,5.48,2.12c0.36,0.35,0.65,0.69,0.82,0.99c0.59,1.06,0.62,2.54-0.27,3.37c-0.88,0.83-2.69,0.43-2.84-0.78
									c0.04,1.59-1.58,2.92-3.17,2.81c-1.59-0.11-2.94-1.41-3.39-2.94c0.02,1.35-1.14,2.61-2.48,2.71
									c-1.35,0.1-2.68-0.97-2.86-2.31c-0.85,1.11-2.11,2.14-3.56,1.67c-0.83-0.27-1.44-1-1.65-1.84
									C109.1,401.83,110.18,400.22,111.57,399.29z"/>
							</g>
						</g>
					</g>
					<g>
						<g>
							<g>
								<g>
									<path class="st2" d="M122.22,397.73c-0.07,0.13,1.59,0.85,2.83,2.59c1.27,1.72,1.45,3.51,1.59,3.49
										c0.06,0,0.1-0.46-0.04-1.18c-0.14-0.72-0.5-1.69-1.16-2.6c-0.66-0.91-1.48-1.55-2.11-1.9
										C122.69,397.77,122.24,397.67,122.22,397.73z"/>
								</g>
							</g>
						</g>
					</g>
					<g>
						<g>
							<g>
								<g>
									<path class="st2" d="M119.58,398.01c-0.13,0.02-0.12,1.25,0.04,2.74c0.16,1.49,0.39,2.69,0.53,2.69
										c0.13-0.01,0.12-1.23-0.04-2.74C119.95,399.2,119.72,397.99,119.58,398.01z"/>
								</g>
							</g>
						</g>
					</g>
					<g>
						<g>
							<g>
								<g>
									<path class="st2" d="M116.26,397.94c-0.03-0.05-0.39,0.09-0.8,0.55c-0.41,0.44-0.81,1.21-0.97,2.12
										c-0.15,0.9-0.09,1.72-0.01,2.3c0.08,0.58,0.17,0.92,0.24,0.92c0.07-0.01,0.1-0.37,0.1-0.94c0.01-0.57,0.01-1.36,0.15-2.19
										c0.14-0.83,0.45-1.54,0.76-1.99C116.04,398.23,116.31,398,116.26,397.94z"/>
								</g>
							</g>
						</g>
					</g>
				</g>
			</g>
			<g>
				
					<rect x="78.76" y="445.42" transform="matrix(-1 -4.489621e-11 4.489621e-11 -1 241.337 900.6572)" class="st2" width="83.83" height="9.82"/>
			</g>
		</g>
		<g>
			<g>
				<g>
					<g>
						<g>
							<g>
								<g>
									<path class="st1" d="M99.83,351.56v12.64h54.37c3.49,0,6.32-2.83,6.32-6.32v0c0-3.49-2.83-6.32-6.32-6.32"/>
								</g>
							</g>
						</g>
					</g>
				</g>
				<g>
					<g>
						<g>
							<g>
								<g>
									<path class="st2" d="M99.83,361.56h18.3c1.81,0,3.28-1.47,3.28-3.28v-0.79c0-1.81-1.47-3.28-3.28-3.28h-18.3V361.56z"/>
								</g>
							</g>
						</g>
					</g>
				</g>
			</g>
			<g>
				<g>
					<g>
						<g>
							<g>
								<g>
									<path class="st2" d="M99.83,338.92v12.64h54.37c3.49,0,6.32-2.83,6.32-6.32v0c0-3.49-2.83-6.32-6.32-6.32H99.83z"/>
								</g>
							</g>
						</g>
					</g>
				</g>
				<g>
					<g>
						<g>
							<g>
								<g>
									<path class="st3" d="M99.83,348.91h18.3c1.81,0,3.28-1.47,3.28-3.28v-0.79c0-1.81-1.47-3.28-3.28-3.28h-18.3V348.91z"/>
								</g>
							</g>
						</g>
					</g>
				</g>
			</g>
			<g>
				<g>
					<g>
						<polygon class="st1" points="139.1,318.64 147.73,338.92 142.17,338.92 138.34,328.09 						"/>
					</g>
				</g>
				<g>
					<g>
						<g>
							<g>
								<polygon class="st3" points="112.58,300.29 109.25,338.92 137.47,338.92 140.57,300.29 								"/>
							</g>
						</g>
						<g>
							<g>
								<polygon class="st0" points="115.34,303.35 112.42,335.71 133.6,335.99 136.46,303.16 								"/>
							</g>
						</g>
					</g>
					<g>
						<g>
							<polygon class="st1" points="119.83,307.83 118.17,330.1 129.47,330.1 131.47,307.83 							"/>
						</g>
					</g>
				</g>
			</g>
		</g>
	</g>
	<g>
		<g>
			<g>
				<g>
					<g>
						<g>
							<path class="st4" d="M161.35,96.54c0.09-0.93,0.19-1.85,0.32-2.77c0.13-0.97,0.27-1.94,0.43-2.9
								c-0.16,0.96-0.31,1.93-0.43,2.9C161.54,94.69,161.44,95.61,161.35,96.54z"/>
						</g>
					</g>
				</g>
				<g>
					<g>
						<g>
							<path class="st3" d="M168.78,108.03c0.8-1.81,0.98-3.82,1.51-5.72c0.28-1.02,0.76-2.11,1.72-2.56
								c0.63-0.3,1.39-0.26,2.06-0.47c2.42-0.73,3.08-4.1,5.37-5.15c0.73-0.32,1.53-0.39,2.3-0.48c3.07-0.36,6.24-1.42,8.17-3.83
								c0.63-0.78,1.11-1.7,1.89-2.33c0.79-0.63,2.01-0.91,2.77-0.26c-0.65,1.29-1.28,2.59-1.92,3.87
								c-0.58,1.17-1.18,2.37-2.15,3.22c-0.98,0.87-2.43,1.32-3.61,0.78c-0.39-0.18-0.78-0.48-1.22-0.43
								c-0.31,0.04-0.58,0.26-0.79,0.51c-1.67,1.85-1.13,4.92,0.5,6.81c1.62,1.88,4.03,2.86,6.34,3.78c0.83,0.32,1.71,0.66,2.59,0.5
								c1.61-0.3,2.46-2.05,2.93-3.61c1.05-3.47,1.55-7.24,3.7-10.16c0.69-0.92,1.54-1.76,1.95-2.84c0.44-1.17,0.34-2.52,1.04-3.55
								c0.73-1.07,2.27-1.7,2.37-2.99c0.06-0.91-0.69-1.71-1.51-2.1c-0.83-0.4-1.76-0.52-2.62-0.87c-0.34-0.14-0.71-0.39-0.73-0.75
								c0-0.54,0.75-0.76,0.95-1.27c0.21-0.57-0.38-1.1-0.62-1.66c-0.53-1.27,0.79-2.55,2.07-3.07c1.27-0.52,2.81-0.89,3.41-2.14
								c0.27-0.57,0.3-1.23,0.41-1.85c0.3-1.57,1.45-3.08,3.03-3.34c1.59-0.26,3.35,1.15,3.09,2.73c-0.16,0.87-0.8,1.54-1.15,2.34
								c-0.36,0.8-0.26,1.99,0.57,2.25c1.36,0.41,2.67-2.07,3.81-1.22c-0.47,1.59-0.92,3.19-1.39,4.79c1.79,0.91,3.92-0.74,4.69-2.6
								c0.76-1.85,0.79-3.98,1.7-5.76c0.91-1.8,3.35-3.13,4.91-1.86c0.08,2.3-2.97,3.24-4.31,5.1c-0.97,1.35-0.83,3.53,0.61,4.39
								c1.42,0.85,3.69-0.63,3.15-2.2c-0.19-0.54-0.65-1-0.7-1.58c-0.05-0.73,0.56-1.31,1.11-1.77c0.87-0.74,1.74-1.46,2.6-2.19
								c0.56-0.47,1.15-0.96,1.85-1.17c1.79-0.52,3.57,0.93,4.52,2.53c0.95,1.61,1.48,3.48,2.78,4.82c1.88,1.94,5.44,2.06,7.2,0.03
								c1.77-2.03,0.87-5.84-1.74-6.58c-0.98-0.27-2.23-0.25-2.75-1.11c-0.91-1.54,1.68-3.51,0.79-5.06
								c-0.69-1.19-2.5-0.65-3.82-1.05c-1.31-0.4-2.05-1.72-2.82-2.86c-0.76-1.13-1.97-2.27-3.31-1.97c0.1-0.79,0.21-1.64-0.14-2.36
								c-0.35-0.72-1.33-1.19-1.98-0.72c0.66,1.09-0.13,2.6-1.28,3.15c-1.15,0.54-2.5,0.41-3.77,0.27
								c-1.27-0.16-2.86-0.62-2.97-1.89c-0.04-0.41,0.12-0.85-0.04-1.24c-0.56-1.51-3.35,0.57-4.43-0.65
								c-0.62-0.63,0.06-1.76,0.93-1.97c0.85-0.22,1.75,0.1,2.63,0.13c0.88,0.04,1.96-0.43,1.99-1.31c0.04-0.87-0.93-1.49-1.04-2.34
								c-0.17-1.45,2.29-1.83,3.16-0.65c0.85,1.18,0.56,2.8,0.3,4.23c-0.27,1.44-0.4,3.13,0.66,4.14c0.45,0.69,1.63,0.32,2.02-0.4
								c0.4-0.73,0.31-1.61,0.38-2.42c0.06-0.83,0.43-1.76,1.23-1.98c0.56-0.16,1.15,0.12,1.72,0.19c2.25,0.27,3.82-2.64,3.11-4.79
								c-0.7-2.16-2.75-3.55-4.73-4.65c-1.45-0.8-3.25-1.55-4.69-0.74c-0.67,0.38-1.14,1.02-1.8,1.41
								c-1.14,0.67-2.55,0.43-3.86,0.45c-2.06,0.05-4.09,0.84-5.63,2.19c-0.58,0.53-1.13,1.41-0.67,2.05
								c0.49,0.67,1.9,0.82,1.66,1.61c-1.53,0.5-3.35-0.67-3.52-2.27c-0.75,0.34-1.29,1.1-1.36,1.92c-1.64-1.67-4.8-1.42-6.15,0.51
								c-0.36,0.5-0.62,1.11-1.14,1.46c-0.52,0.34-1.42,0.17-1.49-0.44c-0.03-0.19,0.04-0.39,0.1-0.57
								c0.31-0.88,0.63-1.75,0.95-2.62c-1.2-0.65-2.63,0.36-3.44,1.45c-3.03,4.05-5.19,1.62-9.47,2.28
								c-2.89,0.44-4.16,2.29-5.79,4.53c-5,6.89-11.6,12.53-16.15,19.73c-0.48,0.75-0.92,1.51-1.33,2.29
								c0.08-0.19,0.14-0.39,0.22-0.58c1.79-4.7,4-9.19,6.6-13.43c0.56-0.91,1.13-1.8,1.71-2.68c0.36-0.54,0.74-1.1,1.11-1.63
								c0.48-0.7,0.98-1.37,1.49-2.05c0.4-0.54,0.8-1.07,1.22-1.59c0.28-0.36,0.58-0.73,0.88-1.09c0.31-0.41,0.65-0.82,1.01-1.22
								l1.09-1.26c0.1-0.13,0.22-0.26,0.35-0.39c0.38-0.44,0.78-0.87,1.18-1.29c0.03-0.05,0.06-0.09,0.12-0.13
								c0.1-0.12,0.22-0.23,0.34-0.35c0.32-0.36,0.67-0.71,1.01-1.06c0.56-0.57,1.13-1.14,1.71-1.68c0.48-0.48,0.97-0.93,1.48-1.39
								c0.44-0.4,0.88-0.8,1.33-1.19c0.44-0.39,0.88-0.76,1.33-1.14c0.54-0.47,1.1-0.92,1.67-1.37h0.01
								c1.57-1.26,3.18-2.45,4.84-3.56c0.41-0.28,0.82-0.56,1.23-0.83c0.41-0.28,0.84-0.54,1.26-0.8c0.43-0.26,0.84-0.53,1.27-0.78
								c0.43-0.27,0.85-0.52,1.28-0.76c0.35-0.21,0.69-0.4,1.04-0.58c0.18-0.12,0.35-0.21,0.53-0.3c0.74-0.41,1.49-0.82,2.24-1.19
								c0.38-0.19,0.75-0.39,1.14-0.57c0.48-0.25,0.97-0.48,1.46-0.7c0.06-0.04,0.14-0.08,0.22-0.1c0.44-0.21,0.88-0.41,1.33-0.61
								c0.63-0.27,1.27-0.54,1.9-0.8c0.73-0.3,1.45-0.6,2.19-0.87c0.82-0.31,1.63-0.61,2.46-0.88c0.83-0.28,1.67-0.56,2.51-0.82
								c0.84-0.26,1.68-0.49,2.54-0.73c1.68-0.45,3.39-0.85,5.11-1.2c0.03-0.01,0.06-0.01,0.09-0.03c0.66-0.13,1.32-0.26,1.98-0.36
								c0.05-0.01,0.09-0.03,0.13-0.03c0.28-0.05,0.58-0.1,0.88-0.14c1.23-0.21,2.47-0.38,3.73-0.52c0.14-0.03,0.3-0.04,0.45-0.05
								c0.36-0.05,0.72-0.08,1.1-0.12c0.83-0.08,1.66-0.14,2.5-0.19c0.87-0.06,1.75-0.1,2.63-0.13c0.92-0.04,1.84-0.05,2.76-0.05
								c2.43,0,4.84,0.1,7.23,0.32c0.57,0.04,1.13,0.09,1.68,0.16c0.58,0.06,1.17,0.13,1.75,0.21c0.58,0.08,1.17,0.16,1.74,0.25
								c0.58,0.09,1.15,0.18,1.74,0.28c0.49,0.08,1,0.17,1.49,0.27c1.22,0.23,2.42,0.49,3.61,0.78c0.56,0.13,1.11,0.27,1.67,0.43
								c0.56,0.14,1.11,0.3,1.66,0.45c0.92,0.26,1.81,0.54,2.71,0.83h0.01c0.72,0.25,1.46,0.49,2.18,0.74
								c0.01,0,0.04,0.01,0.05,0.03c0.74,0.26,1.45,0.53,2.18,0.82c0.04,0.01,0.08,0.03,0.12,0.04c0.66,0.26,1.32,0.53,1.97,0.8
								c0.82,0.34,1.62,0.7,2.41,1.06c0.67,0.31,1.33,0.62,1.98,0.95c0.7,0.35,1.4,0.7,2.08,1.06c0.03,0.01,0.05,0.03,0.08,0.04
								c0.66,0.35,1.32,0.71,1.97,1.09c0.67,0.38,1.33,0.76,1.99,1.18h0.01c0.62,0.38,1.23,0.75,1.84,1.14
								c0.23,0.14,0.45,0.3,0.69,0.45c0.65,0.41,1.27,0.84,1.9,1.28c0.78,0.53,1.53,1.09,2.28,1.64c0.66,0.49,1.31,1,1.94,1.5
								c3.66,2.93,7.08,6.15,10.18,9.65c1.1,1.22,2.14,2.46,3.15,3.73c0.85,1.09,1.68,2.19,2.47,3.33c0.71,0.99,1.4,2,2.06,3.03
								c-0.66-1.03-1.35-2.04-2.06-3.03c-0.21-0.03-0.41-0.05-0.62-0.06c-1.17-0.09-2.4-0.05-3.44-0.56
								c-0.97-0.48-1.66-1.35-2.54-1.97c-2.25-1.61-5.94-1.9-6.55-4.6c-0.21-0.91,0.04-1.89-0.3-2.76c-0.63-1.62-2.8-1.85-4.53-1.83
								c-0.74,0-1.61,0.1-1.94,0.75c-0.25,0.45-0.1,1.02,0.08,1.5c1.06,3.03,3.21,5.65,5.94,7.3c2.25,1.37,5.19,2.43,5.81,5
								c-0.31,0.87-1.89,0.8-2.02,1.71c-0.09,0.73,0.84,1.1,1.18,1.75c0.49,0.95-0.63,2.1-1.71,2.05c-1.07-0.05-1.97-0.83-2.76-1.55
								c-2.36-2.19-4.83-4.54-5.68-7.65c-0.36-1.28-0.49-2.78-1.53-3.64c-1.23-1.01-3.43-0.31-3.85,1.23
								c-1.02-0.57-2.62-1-3.15,0.06c-0.18,0.38-0.13,0.82-0.22,1.22c-0.34,1.66-2.6,2.41-2.84,4.08c-0.27,1.93,2.2,2.93,4.13,3.22
								c1.75,0.27,3.5,0.54,5.24,0.83c0.76,0.12,1.55,0.25,2.18,0.7c0.62,0.47,1.01,1.35,0.65,2.03c-0.21,0.38-0.61,0.62-0.91,0.93
								c-1.45,1.45-0.26,4.44,1.79,4.51c0.7,0.03,1.39-0.23,2.08-0.26c2.07-0.09,3.72,1.73,4.7,3.56c0.98,1.83,1.72,3.91,3.38,5.15
								c2.67,2.01,7.26,1.54,8.56,4.62c0.52,1.24,0.25,2.64,0.04,3.98c-0.21,1.32-0.3,2.8,0.48,3.9c0.76,1.09,2.76,1.32,3.33,0.1
								c0.25-0.53,0.17-1.15,0.08-1.72c-0.31-1.92-0.61-3.83-0.91-5.75c-0.22-1.42-0.41-3.02,0.43-4.18
								c1.18-1.63,3.82-1.48,5.35-0.17c1.51,1.31,2.15,3.35,2.58,5.31c0.31,1.45,0.67,3.5,1.48,5.15c0,0,0,0,0,0
								c0.27,1.61,0.49,3.24,0.66,4.88c0.17,1.68,0.28,3.35,0.35,5.06c-0.21-0.17-0.43-0.38-0.66-0.62
								c-0.82-0.84-2.46-4.4-3.94-2.65c-0.38,0.44-0.39,1.15-0.03,1.62c0.45,0.58,1.36,0.71,1.71,1.35
								c0.43,0.75-0.17,1.68-0.87,2.18c-0.7,0.5-1.55,0.82-2.05,1.53c-0.95,1.36-0.04,3.42-0.96,4.8c-0.79,1.19-2.47,1.27-3.91,1.42
								c-0.17,0.03-0.32,0.05-0.49,0.08c-0.4-2.85-1.74-5.17-5.62-6.05c-5.36-1.22-12.4,3.22-15.42,7.26
								c-3.37,4.52-4.96,10.92-10.11,13.18c-3.69,1.62-8.93,1.04-10.73,4.65c-1.61,3.24,1.19,6.88,1.62,10.46
								c0.27,2.37-0.5,4.73-0.69,7.1c-0.17,2.38,0.53,5.15,2.69,6.15c1.2,0.54,2.72,0.48,3.69,1.39c1.72,1.63,0.31,5,2.03,6.63
								c0.61,0.57,1.45,0.78,2.19,1.15c3.87,1.96,3.77,7.65,1.97,11.6c-0.06,0.14-0.13,0.27-0.19,0.41
								c-5.72,3.43-11.89,6.18-18.4,8.12c-7.46,2.27-15.37,3.47-23.57,3.47c-13.87,0-26.95-3.46-38.39-9.56h-0.01
								c-2.49-1.33-4.91-2.78-7.24-4.36c-3.61-2.42-7.01-5.13-10.16-8.08c-2.19-2.05-4.27-4.21-6.22-6.49
								c-1.37-1.58-2.67-3.22-3.91-4.91c-0.63-0.87-1.26-1.74-1.84-2.63c-1.79-2.62-3.42-5.35-4.88-8.17
								c-2.12-4.07-3.9-8.34-5.3-12.77c-1.44-4.47-2.49-9.1-3.12-13.87c-0.25-1.84-0.44-3.7-0.57-5.58
								c0.89,0.87,2.06,1.49,3.29,1.46C166.37,111.49,167.99,109.84,168.78,108.03z"/>
						</g>
					</g>
				</g>
				<g>
					<g>
						<g>
							<path class="st3" d="M313.88,126.16c0.26-2.34-0.52-4.69-0.56-7.06c-0.03-1.63,0.09-3.35,0.12-5c1.4-0.06,2.8-0.26,4.16-0.58
								c0.29-0.06,0.6-0.16,0.76-0.39c0.18-0.25,0.16-0.57,0.17-0.87c0.1-1.84,1.88-3.06,3.47-3.97c0.82-0.48,1.64-0.95,2.52-1.24
								c0,0.19,0,0.38-0.01,0.57c-0.32,9.1-2.14,17.84-5.21,25.96c-1.4,3.7-3.07,7.29-5,10.72c-0.8,1.49-1.68,2.95-2.6,4.39
								c-1.14,1.77-2.33,3.51-3.61,5.18c-1.19,1.61-2.46,3.17-3.79,4.67c-1.83,2.08-3.76,4.07-5.79,5.96
								c-1.8,1.68-3.68,3.28-5.63,4.79c4.47-11.99,8.68-24.23,16.31-34.43C311.2,132.19,313.5,129.47,313.88,126.16z"/>
						</g>
					</g>
				</g>
				<g>
					<g>
						<g>
							<path class="st4" d="M324.53,103.17c0.01,0.49,0.03,0.98,0.03,1.48c0,0.4-0.01,0.8-0.02,1.2c0.01-0.4,0.02-0.8,0.02-1.2
								C324.56,104.16,324.54,103.67,324.53,103.17z"/>
						</g>
					</g>
				</g>
				<g class="st5">
					<g>
						<g>
							<path class="st4" d="M288.3,172.6c-0.69,0.46-1.38,0.92-2.09,1.36c-0.49,0.31-0.98,0.61-1.49,0.91c0.5-0.3,1-0.6,1.49-0.91
								C286.91,173.52,287.61,173.07,288.3,172.6z"/>
						</g>
					</g>
				</g>
				<g>
					<g>
						<g>
							<path class="st1" d="M214.19,165.76c-2.93-2.51-3.89-6.53-4.45-10.13c-0.06-0.41-0.13-0.82-0.19-1.24
								c-0.48-3.24-0.98-6.58-2.77-9.28c-0.48-0.72-1.06-1.41-1.63-2.07c-0.92-1.08-1.87-2.2-2.43-3.55
								c-0.65-1.56-0.73-3.27-0.8-4.92c-0.07-1.55-0.13-3.14-0.69-4.57c-1.03-2.67-3.42-4.3-5.95-6.02
								c-1.11-0.76-2.26-1.54-3.28-2.42l0,0c-2.19-1.9-3.49-5.27-3.01-7.85c0.29-1.56,1.18-2.65,2.57-3.15
								c0.79-0.29,1.62-0.32,2.43-0.35c0.83-0.03,1.61-0.06,2.34-0.34c1.85-0.72,2.75-2.85,3.44-4.8l5.59-15.63
								c1.14-3.2,2.9-6.92,6.34-7.41c1.31-0.19,2.6,0.18,3.84,0.53c0.58,0.16,1.19,0.33,1.78,0.44c2.36,0.43,5.37-1.52,8.55-3.59
								c3.49-2.26,7.09-4.6,10.05-3.76c1.35,0.39,2.45,1.39,3.33,3.05c0.35-0.69,1-1.13,1.88-1.26c1.85-0.27,4.15,0.86,5.13,2.52
								c0.54,0.92,0.93,1.95,1.3,2.95c0.67,1.79,1.31,3.49,2.74,4.56c0.74,0.56,1.67,0.9,2.56,1.23c1.21,0.44,2.45,0.9,3.32,1.9
								c1.12,1.29,1.27,3.18,1.39,4.56l0.74,8.93c0.18,2.22,0.41,4.97-0.86,7.21c-0.72,1.27-2.13,2.25-3.59,2.48
								c-1.11,0.18-2.14-0.1-2.88-0.78c-0.52-0.48-0.86-1.09-1.18-1.69c-0.21-0.38-0.42-0.77-0.68-1.11
								c-1.02-1.35-2.87-1.99-4.5-1.55c-1.41,0.37-2.52,1.41-3.51,2.49c-7.16,7.71-11.17,19.39-11.6,33.78l-0.01,0.5
								c-0.06,2.08-0.12,4.24-0.9,6.2c-0.42,1.07-1.05,2.06-1.66,3.02c-0.82,1.29-1.59,2.5-1.92,3.91
								c-0.18,0.78-0.22,1.62-0.26,2.44c-0.05,1.2-0.11,2.44-0.63,3.56c-0.64,1.39-1.92,2.36-3.61,2.73
								c-0.5,0.11-1.01,0.16-1.53,0.16C217.25,167.47,215.47,166.86,214.19,165.76z"/>
						</g>
					</g>
				</g>
				<g class="st5">
					<g>
						<g>
							<path class="st4" d="M324.48,101.24v-0.01l0,0l0,0V101.24c0.01,0.16,0.03,0.3,0.03,0.45c0.02,0.49,0.02,0.98,0.03,1.48
								c-0.01-0.49-0.01-0.99-0.03-1.48C324.51,101.54,324.5,101.4,324.48,101.24z"/>
						</g>
					</g>
				</g>
				<g class="st5">
					<g>
						<g>
							<path class="st4" d="M324.54,105.85c-0.01,0.4-0.01,0.8-0.02,1.2l0,0l0,0C324.53,106.65,324.53,106.25,324.54,105.85z"/>
						</g>
					</g>
				</g>
				<g>
					<g>
						<g>
							<path class="st1" d="M313.3,110.93c0.17-0.03,0.32-0.05,0.49-0.08c1.44-0.16,3.12-0.23,3.91-1.42
								c0.92-1.39,0.01-3.44,0.96-4.8c0.49-0.71,1.35-1.02,2.05-1.53c0.7-0.49,1.29-1.42,0.87-2.18c-0.35-0.63-1.26-0.76-1.71-1.35
								c-0.36-0.47-0.35-1.18,0.03-1.62c1.48-1.75,3.12,1.81,3.94,2.65c0.23,0.25,0.45,0.45,0.66,0.62v0.01
								c0.01,0.16,0.03,0.3,0.03,0.45c0.02,0.49,0.02,0.98,0.03,1.48c0.01,0.49,0.03,0.98,0.03,1.48c0,0.4-0.01,0.8-0.02,1.2
								c-0.01,0.4-0.01,0.8-0.02,1.2c-0.88,0.3-1.71,0.76-2.52,1.24c-1.59,0.92-3.37,2.14-3.47,3.97c-0.01,0.3,0.01,0.62-0.17,0.87
								c-0.17,0.23-0.48,0.32-0.76,0.39c-1.36,0.32-2.76,0.52-4.16,0.58"/>
						</g>
					</g>
				</g>
				<g>
					<g>
						<g>
							<path class="st1" d="M313.44,114.1c-0.03,1.64-0.14,3.37-0.12,5c0.04,2.37,0.82,4.71,0.56,7.06
								c-0.38,3.31-2.68,6.03-4.69,8.7c-7.64,10.2-11.85,22.44-16.31,34.43h-0.01c-0.83,0.66-1.67,1.28-2.53,1.89
								c-0.67,0.49-1.35,0.96-2.04,1.43c-0.69,0.46-1.38,0.92-2.09,1.36c-0.49,0.31-0.98,0.61-1.49,0.91
								c0.06-0.14,0.13-0.27,0.19-0.41c1.8-3.95,1.9-9.65-1.97-11.6c-0.74-0.38-1.58-0.58-2.19-1.15c-1.72-1.63-0.31-5-2.03-6.63
								c-0.97-0.91-2.49-0.84-3.69-1.39c-2.16-1-2.86-3.77-2.69-6.15c0.18-2.37,0.96-4.73,0.69-7.1c-0.43-3.59-3.22-7.23-1.62-10.46
								c1.8-3.61,7.04-3.03,10.73-4.65c5.15-2.27,6.75-8.66,10.11-13.18c3.02-4.04,10.06-8.48,15.42-7.26
								c3.88,0.88,5.22,3.2,5.62,6.05"/>
						</g>
					</g>
				</g>
				<g>
					<g>
						<g>
							<path class="st1" d="M319.42,80.82c-1.53-1.31-4.17-1.46-5.35,0.17c-0.84,1.17-0.65,2.76-0.43,4.18
								c0.3,1.92,0.6,3.83,0.91,5.75c0.09,0.57,0.17,1.19-0.08,1.72c-0.57,1.22-2.56,0.98-3.33-0.1c-0.78-1.1-0.69-2.58-0.48-3.9
								c0.21-1.33,0.48-2.73-0.04-3.98c-1.29-3.08-5.89-2.62-8.56-4.62c-1.66-1.24-2.4-3.33-3.38-5.15
								c-0.98-1.83-2.63-3.65-4.7-3.56c-0.7,0.03-1.39,0.28-2.08,0.26c-2.05-0.06-3.24-3.06-1.79-4.51c0.3-0.31,0.7-0.56,0.91-0.93
								c0.36-0.69-0.03-1.57-0.65-2.03c-0.62-0.45-1.41-0.58-2.18-0.7c-1.75-0.28-3.5-0.56-5.24-0.83c-1.93-0.3-4.4-1.29-4.13-3.22
								c0.23-1.67,2.5-2.42,2.84-4.08c0.09-0.4,0.04-0.84,0.22-1.22c0.53-1.06,2.12-0.63,3.15-0.06c0.41-1.54,2.62-2.24,3.85-1.23
								c1.04,0.85,1.17,2.36,1.53,3.64c0.85,3.11,3.33,5.46,5.68,7.65c0.79,0.73,1.68,1.5,2.76,1.55c1.07,0.05,2.2-1.1,1.71-2.05
								c-0.34-0.65-1.27-1.02-1.18-1.75c0.13-0.91,1.71-0.84,2.02-1.71c-0.62-2.56-3.56-3.63-5.81-5c-2.73-1.66-4.88-4.27-5.94-7.3
								c-0.18-0.48-0.32-1.05-0.08-1.5c0.34-0.65,1.2-0.75,1.94-0.75c1.74-0.03,3.9,0.21,4.53,1.83c0.34,0.87,0.09,1.85,0.3,2.76
								c0.61,2.69,4.3,2.99,6.55,4.6c0.88,0.62,1.57,1.49,2.54,1.97c1.05,0.5,2.28,0.47,3.44,0.56c0.21,0.01,0.41,0.04,0.62,0.06
								c0.71,0.99,1.4,2,2.06,3.03c0.66,1.03,1.3,2.07,1.91,3.12c2.9,4.96,5.28,10.26,7.1,15.82c0.63,1.94,1.19,3.9,1.68,5.9
								c0.49,2,0.9,4.02,1.23,6.08c-0.8-1.66-1.17-3.7-1.48-5.15C321.57,84.18,320.94,82.13,319.42,80.82z"/>
						</g>
					</g>
				</g>
				<g>
					<g>
						<g>
							<path class="st1" d="M250.79,42.87c-0.77-1.01-0.55-2.47-1.05-3.65c-0.83-1.95-3.42-2.65-4.32-4.57
								c-0.35-0.74-0.43-1.64-1.03-2.19c-0.5-0.46-1.25-0.55-1.79-0.96c-1.21-0.92-0.71-3.03,0.57-3.84
								c3.21-2.05,9.12,0.32,11.89,2.33c3.57,2.58,7.05,5.68,11.8,5.38c1.31-0.08,2.67-0.44,3.89,0.02c1.23,0.46,1.98,2.3,0.93,3.08
								c-0.59,0.43-1.42,0.31-2.08,0.62c-1.22,0.57-1.34,2.34-0.75,3.54c0.6,1.21,1.67,2.11,2.38,3.26c0.68,1.11,1,2.45,0.88,3.75
								c-0.08,0.91-0.4,1.84-1.11,2.41c-1.48,1.18-3.72,0.17-4.97-1.25c-1.25-1.42-2.11-3.24-3.73-4.21
								c-0.81-0.48-1.74-0.71-2.66-0.93c-2.06-0.49-4.12-0.98-6.18-1.47C252.46,43.96,251.4,43.68,250.79,42.87z"/>
						</g>
					</g>
				</g>
				<g class="st5">
					<g>
						<g>
							<path class="st4" d="M160.97,103.52c0.01-1.18,0.04-2.35,0.11-3.51C161.01,101.18,160.98,102.34,160.97,103.52
								c-0.03,0.38-0.03,0.75-0.03,1.13c0,1.81,0.06,3.6,0.17,5.39c-0.1-1.79-0.17-3.57-0.17-5.39
								C160.95,104.27,160.95,103.9,160.97,103.52z"/>
						</g>
					</g>
				</g>
				<g class="st5">
					<g>
						<g>
							<path class="st4" d="M166.09,76.07c-0.39,1.04-0.75,2.08-1.1,3.13C165.33,78.15,165.7,77.11,166.09,76.07
								c0,0-0.01-0.01,0-0.01c0,0,0,0,0,0c0,0,0,0,0,0C166.09,76.07,166.09,76.07,166.09,76.07z"/>
						</g>
					</g>
				</g>
				<g>
					<g>
						<g>
							<path class="st1" d="M160.97,103.52c0.01-1.18,0.04-2.35,0.11-3.51c0.06-1.16,0.15-2.32,0.27-3.47
								c0.09-0.93,0.19-1.85,0.32-2.77c0.13-0.97,0.27-1.94,0.43-2.9c0.48-2.88,1.13-5.72,1.91-8.5c0.3-1.07,0.63-2.13,0.97-3.18
								c0.34-1.05,0.71-2.09,1.1-3.13c0,0,0,0,0-0.01c0,0,0,0,0,0c0.41-0.78,0.85-1.54,1.33-2.29c4.54-7.2,11.15-12.84,16.15-19.73
								c1.63-2.24,2.9-4.09,5.79-4.53c4.27-0.66,6.44,1.77,9.47-2.28c0.82-1.09,2.24-2.1,3.44-1.45c-0.31,0.87-0.63,1.73-0.95,2.62
								c-0.06,0.18-0.13,0.38-0.1,0.57c0.06,0.61,0.97,0.78,1.49,0.44c0.52-0.35,0.78-0.96,1.14-1.46c1.35-1.93,4.51-2.18,6.15-0.51
								c0.06-0.82,0.61-1.58,1.36-1.92c0.17,1.59,1.99,2.77,3.52,2.27c0.25-0.79-1.17-0.93-1.66-1.61
								c-0.45-0.63,0.09-1.52,0.67-2.05c1.54-1.35,3.57-2.14,5.63-2.19c1.31-0.03,2.72,0.22,3.86-0.45c0.66-0.39,1.13-1.04,1.8-1.41
								c1.44-0.82,3.24-0.06,4.69,0.74c1.98,1.1,4.03,2.49,4.73,4.65c0.71,2.15-0.85,5.06-3.11,4.79c-0.57-0.08-1.17-0.35-1.72-0.19
								c-0.8,0.22-1.17,1.15-1.23,1.98c-0.06,0.82,0.03,1.7-0.38,2.42c-0.39,0.73-1.57,1.09-2.02,0.4
								c-1.06-1.01-0.93-2.71-0.66-4.14c0.26-1.44,0.56-3.06-0.3-4.23c-0.87-1.18-3.33-0.8-3.16,0.65c0.1,0.85,1.07,1.48,1.04,2.34
								c-0.04,0.88-1.11,1.35-1.99,1.31c-0.88-0.03-1.77-0.35-2.63-0.13c-0.87,0.21-1.55,1.33-0.93,1.97
								c1.07,1.22,3.87-0.87,4.43,0.65c0.16,0.39,0,0.83,0.04,1.24c0.1,1.27,1.7,1.74,2.97,1.89c1.27,0.14,2.62,0.27,3.77-0.27
								c1.15-0.54,1.94-2.06,1.28-3.15c0.65-0.47,1.63,0,1.98,0.72c0.35,0.71,0.25,1.57,0.14,2.36c1.35-0.3,2.55,0.84,3.31,1.97
								c0.78,1.14,1.51,2.46,2.82,2.86c1.32,0.4,3.13-0.14,3.82,1.05c0.89,1.55-1.7,3.52-0.79,5.06c0.52,0.87,1.76,0.84,2.75,1.11
								c2.6,0.74,3.51,4.54,1.74,6.58c-1.76,2.03-5.32,1.92-7.2-0.03c-1.31-1.33-1.84-3.21-2.78-4.82
								c-0.95-1.59-2.73-3.04-4.52-2.53c-0.7,0.21-1.29,0.7-1.85,1.17c-0.87,0.73-1.73,1.45-2.6,2.19
								c-0.56,0.47-1.17,1.05-1.11,1.77c0.05,0.58,0.5,1.04,0.7,1.58c0.54,1.57-1.72,3.06-3.15,2.2c-1.44-0.85-1.58-3.04-0.61-4.39
								c1.35-1.86,4.39-2.8,4.31-5.1c-1.55-1.27-4,0.06-4.91,1.86c-0.91,1.79-0.93,3.91-1.7,5.76c-0.76,1.86-2.9,3.51-4.69,2.6
								c0.47-1.61,0.92-3.2,1.39-4.79c-1.14-0.85-2.45,1.63-3.81,1.22c-0.83-0.26-0.93-1.45-0.57-2.25c0.35-0.8,1-1.48,1.15-2.34
								c0.26-1.58-1.5-2.99-3.09-2.73c-1.58,0.26-2.73,1.77-3.03,3.34c-0.12,0.62-0.14,1.28-0.41,1.85
								c-0.6,1.24-2.14,1.62-3.41,2.14c-1.28,0.52-2.6,1.8-2.07,3.07c0.25,0.56,0.83,1.09,0.62,1.66c-0.19,0.5-0.95,0.73-0.95,1.27
								c0.01,0.36,0.39,0.61,0.73,0.75c0.85,0.35,1.79,0.47,2.62,0.87c0.83,0.39,1.58,1.19,1.51,2.1c-0.1,1.29-1.64,1.92-2.37,2.99
								c-0.7,1.02-0.6,2.38-1.04,3.55c-0.41,1.07-1.27,1.92-1.95,2.84c-2.15,2.93-2.65,6.69-3.7,10.16
								c-0.47,1.57-1.32,3.31-2.93,3.61c-0.88,0.16-1.76-0.18-2.59-0.5c-2.32-0.92-4.73-1.9-6.34-3.78
								c-1.63-1.89-2.18-4.96-0.5-6.81c0.21-0.25,0.48-0.47,0.79-0.51c0.44-0.05,0.83,0.25,1.22,0.43c1.18,0.54,2.63,0.09,3.61-0.78
								c0.97-0.85,1.57-2.06,2.15-3.22c0.63-1.28,1.27-2.58,1.92-3.87c-0.76-0.65-1.98-0.38-2.77,0.26
								c-0.78,0.63-1.26,1.55-1.89,2.33c-1.93,2.41-5.1,3.47-8.17,3.83c-0.78,0.09-1.58,0.16-2.3,0.48
								c-2.29,1.05-2.95,4.43-5.37,5.15c-0.67,0.21-1.42,0.17-2.06,0.47c-0.96,0.45-1.44,1.54-1.72,2.56
								c-0.53,1.9-0.71,3.91-1.51,5.72c-0.79,1.81-2.41,3.46-4.38,3.48c-1.23,0.03-2.4-0.6-3.29-1.46v-0.01
								c-0.1-1.79-0.17-3.57-0.17-5.39C160.95,104.27,160.95,103.9,160.97,103.52z"/>
						</g>
					</g>
				</g>
				<g>
					<g>
						<g>
							<path class="st1" d="M194.09,137.49c1.22,0.24,1.46,0.96,2.12,1.86c0.86,1.18,2.1,2.35,2.88,3.51
								c1.33,1.97,0.13,5.03,1.88,6.69c0.36,0.34,0.82,0.56,1.14,0.93c0.7,0.82,0.44,2.21-0.42,2.86c-0.86,0.65-2.12,0.6-3.05,0.06
								c-0.93-0.55-1.55-1.52-1.87-2.55c-0.23-0.74-0.36-1.58-0.95-2.09c-1-0.88-2.56-0.23-3.88-0.41
								C186.35,147.55,188.76,136.44,194.09,137.49z"/>
						</g>
					</g>
				</g>
			</g>
		</g>
	</g>
	<g>
		<g>
			
				<rect x="42.59" y="156.08" transform="matrix(-1 -4.490109e-11 4.490109e-11 -1 192.5688 392.3507)" class="st3" width="107.39" height="80.19"/>
		</g>
		<g>
			
				<rect x="42.59" y="156.08" transform="matrix(-1 -4.490109e-11 4.490109e-11 -1 192.5688 320.2607)" class="st1" width="107.39" height="8.1"/>
		</g>
		<g>
			<path class="st3" d="M144.86,160.13c0,0.6,0.48,1.08,1.08,1.08c0.6,0,1.08-0.48,1.08-1.08c0-0.6-0.48-1.08-1.08-1.08
				C145.34,159.05,144.86,159.53,144.86,160.13z"/>
		</g>
		<g>
			<path class="st3" d="M141.49,160.13c0,0.6,0.48,1.08,1.08,1.08c0.6,0,1.08-0.48,1.08-1.08c0-0.6-0.48-1.08-1.08-1.08
				C141.97,159.05,141.49,159.53,141.49,160.13z"/>
		</g>
		<g>
			<path class="st3" d="M138.12,160.13c0,0.6,0.48,1.08,1.08,1.08c0.6,0,1.08-0.48,1.08-1.08c0-0.6-0.48-1.08-1.08-1.08
				C138.6,159.05,138.12,159.53,138.12,160.13z"/>
		</g>
	</g>
	<g>
		<g>
			
				<rect x="54.45" y="170.14" transform="matrix(-1 -4.489266e-11 4.489266e-11 -1 216.2992 420.4578)" class="st2" width="107.39" height="80.19"/>
		</g>
		<g>
			
				<rect x="54.45" y="170.14" transform="matrix(-1 -4.489266e-11 4.489266e-11 -1 216.2992 348.3678)" class="st1" width="107.39" height="8.1"/>
		</g>
		<g>
			<path class="st3" d="M156.72,174.18c0,0.6,0.48,1.08,1.08,1.08c0.6,0,1.08-0.48,1.08-1.08s-0.48-1.08-1.08-1.08
				C157.21,173.1,156.72,173.59,156.72,174.18z"/>
		</g>
		<g>
			<path class="st3" d="M153.35,174.18c0,0.6,0.48,1.08,1.08,1.08c0.6,0,1.08-0.48,1.08-1.08s-0.48-1.08-1.08-1.08
				C153.84,173.1,153.35,173.59,153.35,174.18z"/>
		</g>
		<g>
			<circle class="st3" cx="151.06" cy="174.18" r="1.08"/>
		</g>
	</g>
	<g>
		<g>
			
				<rect x="72.42" y="184.31" transform="matrix(-1 -4.490109e-11 4.490109e-11 -1 252.2316 448.7969)" class="st3" width="107.39" height="80.19"/>
		</g>
		<g>
			
				<rect x="72.42" y="184.31" transform="matrix(-1 -4.489266e-11 4.489266e-11 -1 252.2316 376.7069)" class="st1" width="107.39" height="8.1"/>
		</g>
		<g>
			<path class="st3" d="M174.69,188.35c0,0.6,0.48,1.08,1.08,1.08c0.6,0,1.08-0.48,1.08-1.08c0-0.6-0.48-1.08-1.08-1.08
				C175.17,187.27,174.69,187.76,174.69,188.35z"/>
		</g>
		<g>
			<path class="st3" d="M171.32,188.35c0,0.6,0.48,1.08,1.08,1.08c0.6,0,1.08-0.48,1.08-1.08c0-0.6-0.48-1.08-1.08-1.08
				C171.8,187.27,171.32,187.76,171.32,188.35z"/>
		</g>
		<g>
			<path class="st3" d="M167.95,188.35c0,0.6,0.48,1.08,1.08,1.08s1.08-0.48,1.08-1.08c0-0.6-0.48-1.08-1.08-1.08
				S167.95,187.76,167.95,188.35z"/>
		</g>
	</g>
	<g>
		<g>
			<path class="st2" d="M117.36,264.49c-0.01,0-0.02,0.11-0.03,0.32c-0.01,0.24-0.01,0.55-0.02,0.94c-0.01,0.86-0.03,2.08-0.05,3.64
				c-0.02,3.2-0.05,7.8-0.08,13.5l0,0.18l0.18,0c12.2,0.02,29.64,0.05,48.99,0.08c18.6-0.03,35.44-0.06,47.67-0.08
				c6.07-0.03,11-0.06,14.44-0.08c1.68-0.02,3-0.04,3.93-0.05c0.43-0.01,0.76-0.02,1.02-0.03c0.23-0.01,0.35-0.02,0.35-0.03
				s-0.12-0.02-0.35-0.03c-0.26-0.01-0.59-0.02-1.02-0.03c-0.93-0.01-2.25-0.03-3.93-0.05c-3.44-0.02-8.37-0.05-14.44-0.08
				c-12.23-0.02-29.06-0.05-47.67-0.08c-19.35,0.03-36.79,0.06-48.99,0.08l0.18,0.18c-0.03-5.71-0.06-10.3-0.08-13.5
				c-0.02-1.56-0.04-2.78-0.05-3.64c-0.01-0.39-0.02-0.7-0.02-0.94C117.38,264.6,117.37,264.49,117.36,264.49z"/>
		</g>
	</g>
	<g>
		<g>
			<path class="st2" d="M118.39,155.96c0.14,0,0.26-9.17,0.26-20.49c0-11.32-0.12-20.49-0.26-20.49c-0.14,0-0.26,9.17-0.26,20.49
				C118.13,146.78,118.24,155.96,118.39,155.96z"/>
		</g>
	</g>
</g>
<g id="Background_Simple" class="st6">
	<g class="st7">
		<path class="st3" d="M94.04,178.92l1.66-3.46c14.02-29.19,42.62-48.75,74.69-49.86c4.12-0.14,8.26,0.01,12.36,0.48
			c29.58,3.37,56.94,22.81,70.14,49.85c7.76,15.9,11.34,34.74,24.29,46.7c16.85,15.56,42.67,13.58,65.26,10.65
			c22.59-2.92,48.44-4.85,65.22,10.79c10.51,9.79,15.01,24.74,15.65,39.17c1.7,38.21-21.46,74.78-53.48,94.97
			s-71.54,25.58-109.13,21.76c-52.66-5.35-104.57-29.13-138.41-70.4S75.09,228.89,94.04,178.92z"/>
	</g>
	<g class="st7">
		<circle class="st3" cx="319.13" cy="169.08" r="36.41"/>
	</g>
</g>
<g id="Plant">
	<g>
		<g>
			<g>
				<g>
					<path class="st8" d="M75.57,365.3c7.84-12,6.7-29.13-2.67-39.98c-2.91-3.37-6.97-6.29-11.4-5.91
						c-4.54,0.39-8.19,4.28-9.58,8.62c-1.38,4.34-0.9,9.04-0.09,13.52c1.14,6.28,3.04,12.7,7.39,17.36
						C63.58,363.57,69.98,368.36,75.57,365.3"/>
				</g>
			</g>
			<g>
				<g>
					<path class="st9" d="M71.24,423.04c2.95-6.89,0.81-15.62-5-20.36c-1.8-1.47-4.16-2.61-6.41-2.01c-2.3,0.61-3.83,2.95-4.15,5.31
						c-0.32,2.36,0.35,4.74,1.18,6.98c1.15,3.13,2.72,6.27,5.38,8.27C64.9,423.23,68.63,425.12,71.24,423.04"/>
				</g>
			</g>
			<g>
				<g>
					<path class="st9" d="M90.15,418.92c-2.16-10.63,3.45-22.37,13.08-27.38c2.99-1.55,6.67-2.47,9.68-0.97
						c3.08,1.54,4.56,5.31,4.32,8.75c-0.24,3.44-1.9,6.61-3.72,9.54c-2.56,4.1-5.69,8.08-10.06,10.14
						C99.07,421.06,93.23,422.64,90.15,418.92"/>
				</g>
			</g>
			<g>
				<g>
					<path class="st9" d="M88.79,390.16c-3.75-12.12,2.61-26.81,13.22-33.76c3.29-2.16,7.46-3.66,11.14-2.26
						c3.77,1.43,5.93,5.64,6.05,9.67c0.12,4.03-1.43,7.92-3.21,11.53c-2.49,5.06-5.67,10.07-10.51,12.97
						C100.64,391.22,92.81,394.13,88.79,390.16"/>
				</g>
			</g>
			<g>
				<g>
					<g>
						<path class="st4" d="M81.25,449.39c0.02,0,0.06-0.2,0.12-0.59c0.07-0.44,0.15-1,0.25-1.69c0.05-0.37,0.11-0.78,0.17-1.22
							c0.09-0.45,0.18-0.93,0.28-1.44c0.2-1.03,0.4-2.21,0.74-3.5c0.16-0.65,0.32-1.32,0.49-2.02c0.2-0.69,0.42-1.42,0.63-2.16
							c0.4-1.5,1-3.06,1.56-4.72c1.24-3.27,2.78-6.8,4.68-10.37c1.93-3.55,4.02-6.79,6.06-9.63c1.07-1.38,2.04-2.74,3.07-3.91
							c0.5-0.59,0.98-1.17,1.45-1.72c0.49-0.53,0.96-1.04,1.41-1.52c0.88-0.99,1.75-1.81,2.5-2.55c0.37-0.37,0.72-0.71,1.05-1.03
							c0.33-0.29,0.64-0.57,0.92-0.82c0.52-0.47,0.94-0.85,1.27-1.14c0.29-0.27,0.43-0.41,0.42-0.43c-0.01-0.01-0.18,0.11-0.49,0.35
							c-0.35,0.28-0.79,0.64-1.33,1.07c-0.29,0.24-0.61,0.5-0.96,0.79c-0.34,0.31-0.7,0.64-1.08,1c-0.77,0.72-1.67,1.53-2.57,2.51
							c-0.46,0.48-0.94,0.99-1.45,1.51c-0.48,0.55-0.97,1.12-1.48,1.71c-1.05,1.16-2.03,2.52-3.12,3.9
							c-2.07,2.85-4.19,6.1-6.13,9.67c-1.91,3.59-3.44,7.15-4.67,10.45c-0.55,1.67-1.14,3.24-1.53,4.76
							c-0.21,0.75-0.41,1.48-0.61,2.18c-0.16,0.71-0.31,1.39-0.46,2.04c-0.32,1.29-0.5,2.48-0.67,3.53c-0.08,0.52-0.16,1-0.24,1.45
							c-0.05,0.44-0.09,0.86-0.13,1.23c-0.06,0.7-0.12,1.26-0.16,1.71C81.24,449.18,81.23,449.39,81.25,449.39z"/>
					</g>
				</g>
			</g>
			<g>
				<g>
					<g>
						<path class="st4" d="M81.52,451.57c0.01,0,0.01-0.08,0-0.24c-0.01-0.19-0.03-0.42-0.05-0.7c-0.06-0.66-0.14-1.56-0.25-2.69
							c-0.06-0.59-0.12-1.24-0.19-1.94c-0.05-0.71-0.07-1.49-0.12-2.32c-0.06-1.67-0.22-3.56-0.16-5.66
							c0.01-1.05,0.01-2.15,0.02-3.29c0.01-1.14,0.12-2.33,0.18-3.56c0.08-2.47,0.42-5.08,0.71-7.83
							c0.75-5.49,1.93-11.48,3.72-17.62c1.85-6.13,4.13-11.79,6.49-16.8c1.25-2.47,2.4-4.85,3.67-6.96
							c0.62-1.06,1.18-2.12,1.79-3.08c0.62-0.96,1.21-1.88,1.78-2.77c1.09-1.79,2.26-3.29,3.22-4.65c0.49-0.67,0.93-1.31,1.36-1.88
							c0.44-0.55,0.85-1.06,1.22-1.52c0.71-0.89,1.27-1.6,1.68-2.12c0.17-0.23,0.31-0.41,0.43-0.56c0.09-0.13,0.14-0.2,0.13-0.2
							s-0.06,0.05-0.17,0.17c-0.12,0.14-0.28,0.32-0.47,0.53c-0.43,0.5-1.01,1.19-1.75,2.06c-0.38,0.45-0.8,0.95-1.26,1.5
							c-0.45,0.56-0.9,1.19-1.4,1.86c-0.98,1.35-2.17,2.84-3.29,4.62c-0.58,0.88-1.18,1.8-1.81,2.76c-0.63,0.96-1.19,2.02-1.82,3.08
							c-1.3,2.11-2.46,4.49-3.73,6.96c-2.4,5.02-4.7,10.71-6.56,16.86c-1.8,6.17-2.96,12.19-3.69,17.71
							c-0.28,2.77-0.61,5.39-0.67,7.87c-0.05,1.24-0.15,2.43-0.15,3.58c0.01,1.15,0.01,2.25,0.02,3.3c-0.04,2.1,0.15,4,0.24,5.67
							c0.06,0.83,0.09,1.61,0.16,2.32c0.09,0.71,0.17,1.35,0.24,1.94c0.15,1.13,0.26,2.03,0.34,2.68c0.04,0.28,0.07,0.51,0.1,0.7
							C81.5,451.49,81.52,451.57,81.52,451.57z"/>
					</g>
				</g>
			</g>
			<g>
				<g>
					<g>
						<path class="st4" d="M61.11,333.89c-0.01,0,0.03,0.08,0.1,0.22c0.09,0.17,0.2,0.38,0.34,0.63c0.33,0.58,0.77,1.38,1.34,2.39
							c0.29,0.52,0.63,1.09,0.97,1.73c0.32,0.65,0.67,1.36,1.05,2.11c0.38,0.76,0.78,1.57,1.21,2.42c0.41,0.87,0.8,1.8,1.23,2.77
							c0.42,0.98,0.89,1.99,1.33,3.06c0.42,1.08,0.85,2.21,1.3,3.38c0.22,0.58,0.45,1.18,0.68,1.78c0.21,0.61,0.42,1.23,0.63,1.87
							c0.43,1.26,0.86,2.56,1.31,3.89c1.66,5.38,3.24,11.36,4.57,17.72c1.29,6.37,2.19,12.49,2.86,18.08
							c0.57,5.6,0.99,10.65,1.11,14.91c0.11,2.13,0.13,4.05,0.14,5.74c0.03,1.69,0.03,3.15-0.01,4.34
							c-0.02,1.16-0.03,2.07-0.04,2.74c0,0.29,0,0.52,0,0.71c0,0.16,0.01,0.24,0.02,0.24c0.01,0,0.02-0.08,0.03-0.24
							c0.01-0.19,0.03-0.42,0.05-0.71c0.03-0.67,0.08-1.58,0.13-2.74c0.07-1.19,0.09-2.65,0.09-4.34c0.02-1.69,0.02-3.62-0.06-5.76
							c-0.07-4.27-0.46-9.34-1-14.95c-0.64-5.6-1.53-11.75-2.83-18.13c-1.33-6.37-2.93-12.37-4.62-17.76
							c-0.46-1.33-0.9-2.64-1.34-3.9c-0.22-0.63-0.43-1.25-0.64-1.87c-0.24-0.6-0.47-1.2-0.7-1.78c-0.46-1.17-0.91-2.29-1.33-3.38
							c-0.45-1.08-0.93-2.09-1.36-3.06c-0.44-0.97-0.85-1.9-1.27-2.77c-0.44-0.85-0.86-1.66-1.25-2.41
							c-0.39-0.75-0.75-1.45-1.09-2.1c-0.35-0.64-0.71-1.2-1.01-1.71c-0.6-0.99-1.08-1.78-1.43-2.35c-0.15-0.24-0.28-0.44-0.38-0.6
							C61.16,333.95,61.11,333.89,61.11,333.89z"/>
					</g>
				</g>
			</g>
			<g>
				<g>
					<g>
						<path class="st4" d="M63.77,407.5c-0.03,0.02,0.27,0.54,0.83,1.46c0.57,0.92,1.36,2.27,2.28,3.97
							c0.93,1.69,1.94,3.76,2.97,6.1c1,2.35,2,4.97,2.88,7.78c0.86,2.82,1.51,5.55,2.01,8.05c0.47,2.51,0.8,4.79,0.99,6.71
							c0.19,1.92,0.31,3.48,0.35,4.56c0.05,1.08,0.1,1.68,0.14,1.68c0.04,0,0.06-0.6,0.06-1.68c0.02-1.09-0.04-2.66-0.19-4.59
							c-0.14-1.94-0.43-4.23-0.88-6.76c-0.47-2.53-1.12-5.28-1.98-8.12c-0.89-2.83-1.91-5.47-2.94-7.82
							c-1.06-2.34-2.11-4.4-3.09-6.08c-0.97-1.68-1.81-3.01-2.43-3.9C64.16,407.96,63.8,407.48,63.77,407.5z"/>
					</g>
				</g>
			</g>
		</g>
		<g>
			<g>
				<polygon class="st10" points="96.65,443.99 62.2,443.99 66.37,479.17 92.36,479.17 				"/>
			</g>
		</g>
		<g>
			<g>
				<polygon class="st4" points="95.39,475.38 92.47,479.17 66.37,479.17 63.36,475.5 				"/>
			</g>
		</g>
		<g>
			<g>
				<g>
					<path class="st0" d="M63.54,454.34c0,0.14,7.15,0.26,15.97,0.26c8.82,0,15.97-0.11,15.97-0.26c0-0.14-7.15-0.26-15.97-0.26
						C70.69,454.08,63.54,454.2,63.54,454.34z"/>
				</g>
			</g>
		</g>
		<g>
			<g>
				<g>
					<path class="st0" d="M63.54,456.68c0,0.14,7.15,0.26,15.97,0.26c8.82,0,15.97-0.11,15.97-0.26c0-0.14-7.15-0.26-15.97-0.26
						C70.69,456.42,63.54,456.54,63.54,456.68z"/>
				</g>
			</g>
		</g>
		<g>
			<g>
				<g>
					<path class="st0" d="M63.97,458.95c0,0.14,6.9,0.26,15.41,0.26c8.51,0,15.41-0.11,15.41-0.26c0-0.14-6.9-0.26-15.41-0.26
						C70.87,458.69,63.97,458.81,63.97,458.95z"/>
				</g>
			</g>
		</g>
	</g>
</g>
<g id="Search">
	<g>
		<g>
			<g>
				<path class="st11" d="M388.29,85.4H130.2c-10.53,0-19.06,8.53-19.06,19.06l0,0c0,10.53,8.53,19.06,19.06,19.06h184.9h28.53
					h44.66c10.53,0,19.06-8.53,19.06-19.06v0C407.35,93.93,398.82,85.4,388.29,85.4z"/>
			</g>
			<g>
				<g>
					<path class="st12" d="M388.81,123.52h-37.3V85.4h37.3c10.24,0,18.54,8.3,18.54,18.54v1.03
						C407.35,115.22,399.05,123.52,388.81,123.52z"/>
				</g>
			</g>
			<g>
				<g>
					<g>
						<path class="st11" d="M376.52,109.69c-4.58,0-8.31-3.73-8.31-8.31s3.73-8.31,8.31-8.31s8.31,3.73,8.31,8.31
							S381.1,109.69,376.52,109.69z M376.52,94.29c-3.91,0-7.09,3.18-7.09,7.09c0,3.91,3.18,7.09,7.09,7.09
							c3.91,0,7.09-3.18,7.09-7.09C383.61,97.47,380.43,94.29,376.52,94.29z"/>
					</g>
				</g>
				<g>
					<g>
						<path class="st11" d="M388.97,114.98c-0.16,0-0.31-0.06-0.43-0.18l-7.29-7.29c-0.24-0.24-0.24-0.62,0-0.86
							c0.24-0.24,0.62-0.24,0.86,0l7.29,7.29c0.24,0.24,0.24,0.62,0,0.86C389.28,114.92,389.12,114.98,388.97,114.98z"/>
					</g>
				</g>
			</g>
		</g>
		<g>
			<g>
				<g>
					<g>
						<g>
							<path class="st1" d="M145.79,104.01c-0.02,0-0.05-0.24-0.09-0.69c-0.01-0.23-0.04-0.51-0.1-0.83
								c-0.05-0.33-0.11-0.71-0.23-1.12c-0.19-0.84-0.59-1.82-1.2-2.87c-0.62-1.04-1.51-2.13-2.72-3.05
								c-1.21-0.92-2.73-1.7-4.48-2.02c-1.75-0.31-3.72-0.28-5.6,0.42c-0.95,0.32-1.86,0.81-2.7,1.42
								c-0.44,0.29-0.82,0.66-1.22,1.01c-0.36,0.39-0.74,0.78-1.05,1.22c-1.33,1.72-2.09,3.95-2.14,6.25
								c-0.01,2.3,0.7,4.55,1.99,6.3c0.3,0.45,0.67,0.85,1.02,1.25c0.39,0.36,0.76,0.74,1.19,1.04c0.83,0.64,1.73,1.14,2.67,1.49
								c1.86,0.74,3.84,0.82,5.59,0.55c1.76-0.28,3.3-1.03,4.53-1.92c1.23-0.9,2.15-1.96,2.79-2.99c0.64-1.03,1.05-2.01,1.27-2.84
								c0.14-0.41,0.2-0.79,0.26-1.11c0.07-0.32,0.1-0.6,0.12-0.83C145.73,104.25,145.77,104.01,145.79,104.01
								c0.02,0,0.03,0.24,0.02,0.7c0,0.23-0.01,0.51-0.07,0.85c-0.04,0.33-0.09,0.72-0.21,1.14c-0.18,0.86-0.58,1.87-1.21,2.95
								c-0.63,1.07-1.56,2.2-2.82,3.15c-1.26,0.95-2.85,1.75-4.7,2.07c-1.83,0.31-3.9,0.24-5.87-0.52
								c-0.99-0.35-1.95-0.88-2.82-1.55c-0.45-0.32-0.85-0.71-1.26-1.09c-0.37-0.42-0.77-0.83-1.09-1.31
								c-1.36-1.85-2.12-4.22-2.11-6.65c0.05-2.43,0.86-4.78,2.27-6.6c0.33-0.47,0.73-0.87,1.12-1.28c0.42-0.37,0.83-0.76,1.29-1.06
								c0.89-0.65,1.86-1.15,2.86-1.48c1.99-0.72,4.06-0.74,5.88-0.39c1.84,0.36,3.41,1.2,4.65,2.18c1.24,0.98,2.14,2.13,2.75,3.22
								c0.6,1.09,0.97,2.12,1.14,2.98c0.11,0.42,0.15,0.81,0.18,1.15c0.05,0.33,0.05,0.62,0.05,0.85
								C145.82,103.77,145.81,104.01,145.79,104.01z"/>
						</g>
					</g>
				</g>
			</g>
			<g>
				<g>
					<g>
						<g>
							<path class="st1" d="M143.52,97.22c0.02,0.03-0.17,0.21-0.55,0.49c-0.21,0.15-0.44,0.32-0.7,0.51
								c-0.14,0.1-0.28,0.21-0.44,0.31c-0.17,0.09-0.35,0.19-0.53,0.29c-1.45,0.86-3.75,1.75-6.4,1.7
								c-0.33-0.01-0.65-0.02-0.97-0.03c-0.32-0.05-0.63-0.09-0.93-0.13c-0.15-0.02-0.31-0.04-0.45-0.07
								c-0.15-0.04-0.29-0.07-0.44-0.11c-0.29-0.08-0.57-0.14-0.84-0.22c-1.08-0.36-2.01-0.78-2.74-1.22
								c-1.47-0.87-2.2-1.66-2.14-1.71c0.06-0.07,0.86,0.6,2.34,1.34c0.74,0.38,1.65,0.75,2.69,1.06c0.26,0.07,0.54,0.13,0.81,0.19
								c0.14,0.03,0.28,0.07,0.42,0.1c0.14,0.02,0.29,0.04,0.43,0.06c0.29,0.04,0.59,0.08,0.89,0.12c0.3,0.01,0.61,0.02,0.93,0.03
								c2.51,0.06,4.73-0.73,6.2-1.47c0.19-0.08,0.37-0.17,0.54-0.24c0.16-0.09,0.31-0.18,0.46-0.27c0.27-0.16,0.52-0.3,0.74-0.42
								C143.25,97.29,143.49,97.18,143.52,97.22z"/>
						</g>
					</g>
				</g>
			</g>
			<g>
				<g>
					<g>
						<g>
							<path class="st1" d="M126.22,110.71c-0.02-0.03,0.17-0.21,0.55-0.49c0.21-0.15,0.44-0.32,0.7-0.51
								c0.14-0.1,0.28-0.21,0.44-0.31c0.17-0.09,0.35-0.19,0.53-0.29c1.45-0.86,3.75-1.75,6.4-1.7c0.33,0.01,0.65,0.02,0.97,0.03
								c0.32,0.05,0.63,0.09,0.93,0.13c0.15,0.02,0.31,0.04,0.45,0.07c0.15,0.04,0.29,0.07,0.44,0.11c0.29,0.08,0.57,0.14,0.84,0.22
								c1.08,0.36,2.01,0.78,2.74,1.22c1.47,0.87,2.2,1.66,2.14,1.71c-0.06,0.07-0.86-0.6-2.34-1.34c-0.74-0.38-1.65-0.75-2.69-1.06
								c-0.26-0.07-0.54-0.13-0.81-0.19c-0.14-0.03-0.28-0.07-0.42-0.1c-0.14-0.02-0.29-0.04-0.43-0.06
								c-0.29-0.04-0.59-0.08-0.89-0.12c-0.3-0.01-0.61-0.02-0.93-0.03c-2.51-0.05-4.73,0.73-6.2,1.47
								c-0.19,0.08-0.37,0.17-0.54,0.24c-0.16,0.09-0.31,0.18-0.46,0.27c-0.27,0.16-0.52,0.3-0.74,0.42
								C126.49,110.63,126.25,110.74,126.22,110.71z"/>
						</g>
					</g>
				</g>
			</g>
			<g>
				<g>
					<g>
						<g>
							<path class="st1" d="M145.78,104.26c0,0.17-4.89,0.24-10.92,0.17c-6.03-0.07-10.91-0.26-10.91-0.43
								c0-0.17,4.89-0.24,10.92-0.17C140.9,103.9,145.79,104.09,145.78,104.26z"/>
						</g>
					</g>
				</g>
			</g>
			<g>
				<g>
					<g>
						<g>
							<path class="st1" d="M134.5,114.79c-0.17,0-0.24-4.89-0.17-10.92c0.07-6.03,0.26-10.91,0.43-10.91
								c0.17,0,0.24,4.89,0.17,10.92C134.86,109.91,134.67,114.79,134.5,114.79z"/>
						</g>
					</g>
				</g>
			</g>
			<g>
				<g>
					<g>
						<g>
							<path class="st1" d="M134.5,114.77c-0.04,0.06-1.25-0.74-2.66-2.56c-0.7-0.91-1.43-2.09-2-3.52
								c-0.56-1.42-0.92-3.1-0.91-4.88c0.01-1.78,0.44-3.45,1.04-4.85c0.61-1.41,1.37-2.56,2.09-3.46c1.45-1.79,2.65-2.6,2.69-2.53
								c0.06,0.07-1.03,0.97-2.35,2.79c-0.66,0.91-1.36,2.05-1.92,3.42c-0.55,1.36-0.94,2.95-0.95,4.65
								c-0.01,1.69,0.31,3.3,0.82,4.68c0.51,1.38,1.18,2.54,1.82,3.46C133.47,113.8,134.56,114.7,134.5,114.77z"/>
						</g>
					</g>
				</g>
			</g>
			<g>
				<g>
					<g>
						<g>
							<path class="st1" d="M135,92.96c0.04-0.06,1.25,0.74,2.66,2.56c0.7,0.91,1.43,2.09,2,3.52c0.56,1.42,0.92,3.1,0.91,4.88
								c-0.01,1.78-0.44,3.45-1.04,4.85c-0.61,1.41-1.37,2.56-2.09,3.46c-1.45,1.79-2.65,2.6-2.69,2.53
								c-0.06-0.07,1.03-0.97,2.35-2.79c0.66-0.91,1.36-2.05,1.92-3.42c0.55-1.36,0.94-2.95,0.95-4.65c0.01-1.69-0.31-3.3-0.82-4.68
								c-0.51-1.38-1.18-2.54-1.82-3.46C136.03,93.93,134.94,93.03,135,92.96z"/>
						</g>
					</g>
				</g>
			</g>
		</g>
		<g>
			<g>
				<path class="st1" d="M156.24,118.13c-0.14,0-0.26-5.81-0.26-12.97c0-7.17,0.12-12.97,0.26-12.97c0.14,0,0.26,5.81,0.26,12.97
					C156.5,112.32,156.39,118.13,156.24,118.13z"/>
			</g>
		</g>
		<g>
			<path class="st4" d="M172.74,106.24v4.67h-1.09v-4.57c0-1.7-0.89-2.57-2.42-2.57c-1.73,0-2.82,1.07-2.82,2.91v4.23h-1.09V99.55
				h1.09v4.72c0.6-0.93,1.65-1.47,3.02-1.47C171.39,102.79,172.74,103.93,172.74,106.24z"/>
			<path class="st4" d="M179.94,110.42c-0.43,0.38-1.07,0.57-1.7,0.57c-1.52,0-2.36-0.86-2.36-2.34v-4.87h-1.44v-0.92h1.44v-1.76
				h1.09v1.76h2.45v0.92h-2.45v4.81c0,0.95,0.49,1.47,1.39,1.47c0.44,0,0.89-0.14,1.2-0.41L179.94,110.42z"/>
			<path class="st4" d="M185.95,110.42c-0.43,0.38-1.07,0.57-1.7,0.57c-1.52,0-2.36-0.86-2.36-2.34v-4.87h-1.44v-0.92h1.44v-1.76
				h1.09v1.76h2.45v0.92h-2.45v4.81c0,0.95,0.49,1.47,1.39,1.47c0.44,0,0.89-0.14,1.2-0.41L185.95,110.42z"/>
			<path class="st4" d="M196.09,106.88c0,2.45-1.72,4.11-4.01,4.11c-1.29,0-2.39-0.55-3.06-1.59v4.49h-1.09v-11.03h1.04v1.59
				c0.66-1.07,1.78-1.65,3.11-1.65C194.38,102.79,196.09,104.45,196.09,106.88z M195,106.88c0-1.87-1.3-3.14-3-3.14
				c-1.72,0-3,1.27-3,3.14c0,1.88,1.29,3.14,3,3.14C193.7,110.02,195,108.77,195,106.88z"/>
			<path class="st4" d="M197.61,103.62c0-0.48,0.37-0.83,0.81-0.83c0.44,0,0.83,0.35,0.83,0.83c0,0.47-0.38,0.84-0.83,0.84
				C197.98,104.46,197.61,104.1,197.61,103.62z M197.61,110.15c0-0.47,0.37-0.83,0.81-0.83c0.44,0,0.83,0.35,0.83,0.83
				c0,0.48-0.38,0.84-0.83,0.84C197.98,110.99,197.61,110.62,197.61,110.15z"/>
			<path class="st4" d="M205.41,98.01h1l-5.06,14.43h-1L205.41,98.01z"/>
			<path class="st4" d="M218.75,102.85l-3.05,8.06h-1.03l-2.54-6.6l-2.54,6.6h-1.03l-3.03-8.06h1.04l2.53,6.85l2.59-6.85h0.93
				l2.57,6.85l2.56-6.85H218.75z"/>
			<path class="st4" d="M232.14,102.85l-3.05,8.06h-1.03l-2.54-6.6l-2.54,6.6h-1.03l-3.03-8.06h1.04l2.53,6.85l2.59-6.85h0.93
				l2.57,6.85l2.56-6.85H232.14z"/>
			<path class="st4" d="M245.53,102.85l-3.05,8.06h-1.03l-2.54-6.6l-2.54,6.6h-1.03l-3.03-8.06h1.04l2.53,6.85l2.59-6.85h0.93
				l2.57,6.85l2.56-6.85H245.53z"/>
			<path class="st4" d="M245.95,110.15c0-0.47,0.37-0.83,0.81-0.83s0.83,0.35,0.83,0.83c0,0.48-0.38,0.84-0.83,0.84
				S245.95,110.62,245.95,110.15z"/>
		</g>
		<g>
			<g>
				<g>
					<path class="st12" d="M253.95,115.39c-0.18,0-0.33-3.7-0.33-8.27c0-4.57,0.15-8.27,0.33-8.27c0.18,0,0.33,3.7,0.33,8.27
						C254.28,111.69,254.13,115.39,253.95,115.39z"/>
				</g>
			</g>
		</g>
		<g>
			<g>
				<path class="st4" d="M388.29,85.4c0,0,0.56,0.01,1.64,0.06c0.54,0.02,1.21,0.16,2.01,0.26c0.4,0.06,0.82,0.19,1.27,0.3
					c0.46,0.1,0.94,0.24,1.43,0.43c2,0.69,4.39,1.91,6.68,4.02c0.6,0.5,1.1,1.14,1.68,1.74c0.26,0.32,0.51,0.67,0.77,1.02l0.39,0.52
					l0.35,0.57c0.98,1.5,1.75,3.27,2.27,5.22c1.09,3.88,0.91,8.66-1.19,13.13c-2.08,4.44-6.24,8.5-11.79,10.17
					c-1.39,0.38-2.83,0.69-4.32,0.76c-1.49,0.11-2.98,0.04-4.51,0.07c-3.05,0-6.2,0.01-9.44,0.01c-6.48,0.01-13.33,0.01-20.52,0.02
					c-57.54,0.02-137.02,0.05-224.81,0.08c-5.58,0.03-11.04-2.53-14.62-6.7c-3.66-4.13-5.26-9.86-4.52-15.22
					c0.7-5.38,3.8-10.32,8.21-13.34c2.19-1.52,4.71-2.54,7.31-3.04c2.62-0.51,5.25-0.3,7.82-0.35c20.7,0.01,40.67,0.01,59.69,0.02
					c38.04,0.02,72.3,0.04,101.07,0.06c28.76,0.03,52.04,0.06,68.14,0.08c8.04,0.02,14.28,0.04,18.52,0.05
					c2.11,0.01,3.72,0.02,4.82,0.03C387.73,85.38,388.29,85.4,388.29,85.4s-0.56,0.02-1.64,0.03c-1.09,0.01-2.71,0.01-4.82,0.03
					c-4.24,0.01-10.49,0.03-18.52,0.05c-16.1,0.02-39.37,0.05-68.14,0.08c-28.77,0.02-63.03,0.03-101.07,0.06
					c-19.02,0-38.99,0.01-59.69,0.02c-2.59,0.04-5.2-0.16-7.73,0.34c-2.53,0.48-4.98,1.47-7.11,2.96
					c-4.29,2.93-7.31,7.74-7.99,12.98c-0.72,5.22,0.84,10.79,4.4,14.81c3.49,4.06,8.79,6.54,14.23,6.52
					c87.78,0.03,167.26,0.06,224.81,0.08c7.19,0.01,14.04,0.01,20.52,0.02c3.24,0,6.39,0.01,9.44,0.01
					c1.52-0.02,3.04,0.05,4.49-0.06c1.47-0.06,2.89-0.36,4.25-0.74c5.47-1.63,9.59-5.62,11.65-10c2.09-4.4,2.28-9.13,1.22-12.97
					c-0.51-1.93-1.26-3.69-2.23-5.18l-0.34-0.57l-0.39-0.52c-0.26-0.34-0.5-0.69-0.76-1.01c-0.57-0.6-1.06-1.24-1.66-1.74
					c-2.26-2.11-4.63-3.34-6.61-4.04c-0.49-0.2-0.97-0.34-1.42-0.44c-0.45-0.11-0.87-0.25-1.26-0.31c-0.79-0.11-1.46-0.26-2-0.29
					C388.85,85.45,388.29,85.4,388.29,85.4z"/>
			</g>
		</g>
	</g>
</g>
<g id="Character">
	<g>
		<g>
			<g>
				<g>
					<path class="st4" d="M444.69,441.44l4.95,37.73l-11.23,0.1l-15.95-37.8L444.69,441.44z"/>
				</g>
				<g>
					<path class="st4" d="M383.45,441.55l4.91,37.57l-11.23,0.1l-15.73-37.63L383.45,441.55z"/>
				</g>
				<g>
					<path class="st10" d="M448.68,214.77c-6.16-9.24-127.84-10.6-133.05-0.97l-44.45,84.49l-66.86-3.07
						c0-0.02-8.99-0.43-17.78,7.99c-4.34,4.15-4.12,30.32-2.9,40.43c0.81,6.73,11.07,98.3,11.07,98.3l251.91-0.51
						C446.61,441.42,454.84,224.01,448.68,214.77z"/>
				</g>
				<g>
					<g>
						<path class="st4" d="M375.17,443.81c0,0-0.03-0.27-0.05-0.8c-0.02-0.55-0.04-1.34-0.07-2.36c-0.05-2.09-0.12-5.14-0.22-9.04
							c-0.16-7.86-0.4-19.16-0.69-33.02l0.21,0.2c-20.61,0.15-47.36,0.34-76.5,0.55c-30.43,0.17-58.26,0.32-79.27,0.44l0.2-0.17
							c-2.16,12.9-1.92,23.6-1.4,30.91c0.27,3.66,0.62,6.5,0.87,8.42c0.13,0.95,0.23,1.67,0.31,2.19c0.07,0.49,0.09,0.75,0.09,0.75
							s-0.86-4-1.49-11.34c-0.59-7.32-0.89-18.04,1.23-30.99l0.03-0.17l0.17,0c21.01-0.15,48.83-0.35,79.27-0.57
							c29.14-0.16,55.89-0.31,76.5-0.43l0.21,0l0,0.21c0.21,13.86,0.39,25.16,0.51,33.02c0.05,3.91,0.08,6.95,0.11,9.05
							c0.01,1.02,0.01,1.81,0.01,2.36C375.19,443.54,375.17,443.81,375.17,443.81z"/>
					</g>
				</g>
				<g>
					<g>
						<path class="st4" d="M367.45,302.03c0,0,0.17-0.01,0.51-0.01c0.34,0.01,0.85-0.02,1.51,0.08c1.32,0.13,3.3,0.55,5.59,1.75
							c2.28,1.19,4.83,3.21,7.03,6.2c2.23,2.98,3.91,7.01,4.78,11.67c0.91,4.66,1.04,9.92,1.02,15.57
							c-0.01,5.66-0.2,11.76-0.57,18.24c-0.75,12.96-2.36,27.42-4.09,43.01l-0.02,0.22l-0.22,0c-19.6,0.13-41.14,0.28-63.7,0.43
							c-44.72,0.26-85.42,0.5-115.53,0.68l-0.19,0l-0.01-0.18c-0.49-8.53-0.01-16.27,1.13-22.96c1.18-6.67,3.19-12.31,5.98-16.22
							c1.38-1.96,2.93-3.48,4.49-4.47c0.19-0.13,0.38-0.26,0.56-0.39c0.2-0.1,0.39-0.2,0.58-0.3c0.38-0.2,0.74-0.38,1.09-0.56
							c0.74-0.25,1.39-0.53,2-0.69c0.61-0.13,1.16-0.24,1.63-0.34c0.47-0.06,0.88-0.07,1.2-0.1c0.64-0.05,0.97-0.05,0.97-0.05
							s-0.33,0.05-0.97,0.11c-0.32,0.04-0.72,0.06-1.19,0.13c-0.47,0.11-1,0.23-1.61,0.37c-0.6,0.16-1.25,0.45-1.97,0.7
							c-0.34,0.18-0.7,0.37-1.07,0.57c-0.19,0.1-0.38,0.2-0.57,0.3c-0.18,0.13-0.36,0.26-0.55,0.39c-1.53,1-3.05,2.51-4.4,4.46
							c-2.74,3.89-4.7,9.51-5.85,16.15c-1.11,6.66-1.56,14.4-1.05,22.88l-0.2-0.18c30.11-0.21,70.81-0.5,115.53-0.82
							c22.56-0.14,44.09-0.27,63.7-0.39l-0.25,0.22c1.75-15.59,3.38-30.04,4.16-42.98c0.39-6.47,0.6-12.56,0.63-18.21
							c0.04-5.65-0.07-10.88-0.96-15.51c-0.84-4.63-2.49-8.62-4.67-11.58c-2.16-2.98-4.67-5-6.92-6.2
							c-2.25-1.21-4.21-1.65-5.52-1.81C368.14,302.01,367.44,302.07,367.45,302.03z"/>
					</g>
				</g>
				<g>
					<polygon class="st4" points="198.4,441.92 194.75,479.17 205.98,479.07 220.04,441.88 					"/>
				</g>
			</g>
			<g>
				<g>
					<path class="st4" d="M219.38,354.1c0.01,0.04,0.4-0.01,1.12-0.12c0.82-0.14,1.83-0.3,3.01-0.5c2.54-0.43,6.04-1.05,9.93-1.47
						c3.9-0.42,7.45-0.49,10.02-0.47c1.2,0.02,2.21,0.03,3.05,0.04c0.72,0.01,1.12,0,1.12-0.04c0-0.04-0.39-0.09-1.11-0.16
						c-0.72-0.08-1.76-0.14-3.05-0.21c-2.58-0.11-6.16-0.1-10.08,0.32c-3.92,0.42-7.42,1.11-9.94,1.63
						c-1.26,0.27-2.28,0.49-2.98,0.66C219.75,353.95,219.37,354.06,219.38,354.1z"/>
				</g>
			</g>
			<g>
				<g>
					<path class="st4" d="M201.63,295.37c-0.02,0.05,0.81,0.41,2.24,1.2c1.43,0.78,3.41,2.1,5.55,4.06
						c2.15,1.96,4.37,4.66,6.34,7.96c1.95,3.31,3.6,7.25,4.7,11.55c2.13,8.66,1.99,16.83,1.86,22.65c-0.08,2.92-0.2,5.29-0.27,6.92
						c-0.03,0.77-0.05,1.4-0.07,1.88c-0.01,0.43-0.01,0.66,0.01,0.66c0.02,0,0.05-0.22,0.09-0.65c0.04-0.48,0.1-1.11,0.16-1.88
						c0.13-1.63,0.3-3.99,0.43-6.92c0.13-2.92,0.21-6.42,0.03-10.29c-0.18-3.87-0.67-8.13-1.75-12.49
						c-1.11-4.35-2.79-8.33-4.79-11.67c-2.01-3.33-4.29-6.04-6.5-7.99c-2.2-1.96-4.23-3.24-5.7-3.97c-0.71-0.4-1.33-0.61-1.72-0.79
						C201.85,295.44,201.63,295.36,201.63,295.37z"/>
				</g>
			</g>
			<g class="st13">
				<g>
					<path d="M333.32,365.4c-7.58,1.77-15.4,2.55-23.18,2.31c-0.57,24.32-2.67,48.61-6.29,72.67c-1.95,0.86-3.96,1.74-6.09,1.8
						c-2.13,0.06-4.43-0.91-5.31-2.86c-0.52-1.15-0.48-2.47-0.42-3.73c1.05-24.23,3.54-48.39,7.46-72.32
						c0.29-1.77,0.71-3.74,2.2-4.74c1.42-0.96,3.3-0.7,4.98-0.38c9.39,1.75,18.7,3.93,27.89,6.51"/>
				</g>
			</g>
			<g class="st13">
				<path d="M344.42,363.37l-2.35,33.28c0,0-7.87-18-5.85-24.89C338.23,364.87,344.42,363.37,344.42,363.37z"/>
			</g>
		</g>
		<g>
			<g>
				<g>
					<g>
						<path class="st4" d="M346.43,231.01c0.78-26.24,1.56-52.48,2.34-78.71l2.55-4.53c2.24-1.98,5.87-1.63,8.29,0.11
							c2.42,1.74,3.84,4.56,4.81,7.38c4.67,13.54,0.97,28.42,1.96,42.71c0.21,3.1,0.7,6.32,2.51,8.85c2.45,3.43,6.98,5.13,8.86,8.91
							c1.69,3.41,0.43,7.99-2.76,10.06c2.29,1.34,4.66,2.74,6.19,4.91c1.52,2.18,1.95,5.36,0.26,7.41
							c-1.83,2.22-5.16,2.25-8.02,1.99c-8.09-0.73-16.13-2.25-23.87-4.71c-0.97-0.31-2.01-0.68-2.58-1.52
							C346.39,233.06,346.4,232,346.43,231.01z"/>
					</g>
					<g>
						<g>
							<path class="st10" d="M363.13,217.45c0.05-0.07-1.01-0.21-2.18-1.48c-1.17-1.26-2.07-3.69-2.33-6.76
								c-0.45-6.18-0.62-14.78,0.12-24.21c0.36-4.72,0.93-9.2,1.57-13.25c0.66-4.04,1.01-7.85,0.13-10.92
								c-0.85-3.06-2.62-5.1-4.08-6.07c-0.73-0.5-1.38-0.74-1.81-0.89c-0.45-0.12-0.68-0.17-0.68-0.16
								c-0.03,0.06,0.97,0.21,2.37,1.22c1.38,0.99,3.06,3.01,3.84,6c0.8,2.99,0.44,6.72-0.25,10.75c-0.66,4.06-1.25,8.55-1.61,13.29
								c-0.74,9.47-0.51,18.09,0.04,24.29c0.31,3.11,1.28,5.6,2.55,6.86c0.62,0.64,1.24,0.96,1.66,1.15
								C362.9,217.41,363.13,217.47,363.13,217.45z"/>
						</g>
					</g>
				</g>
				<g>
					<g>
						<g>
							<path class="st14" d="M345.23,151.94C345.46,153.04,344.69,151.01,345.23,151.94L345.23,151.94z"/>
						</g>
						<g>
							<path class="st12" d="M346.11,147.53c0.91-0.95,2.31-0.55,3.35,0.2c1.78,1.28,3.14,3.39,4.03,5.72
								c0.89,2.33,1.33,4.88,1.61,7.44c0.16,1.47,0.16,3.24-0.8,4.09c-0.68,0.6-1.65,0.48-2.39-0.04c-0.74-0.52-1.29-1.37-1.8-2.22
								c-1.99-3.31-3.63-6.95-4.88-10.78C345,150.83,345.41,148.26,346.11,147.53z"/>
						</g>
					</g>
					<g>
						<g>
							<g>
								<path class="st4" d="M353.52,167.21c-2.01-8.53-5.6-17.25-12.67-22.44c-6.3-4.62-15.49-6.38-23.28-5.8
									c-3.84,0.29-8.12,2.2-11.4,4.2c-4.5,2.75-6.27,8.08-8.33,12.93c-4.12,9.73-3.14,22.69-0.02,26.2l40.74,19.85
									c6.97-3.92,14.52-9.2,16.15-17.03C355.81,179.8,354.77,172.51,353.52,167.21z"/>
							</g>
							<g>
								<g>
									<path class="st15" d="M338.09,152.07l-25.45-6.62c-8.16-0.92-13.65,9.1-14.23,17.29c-0.64,9.1-1.05,20.23-0.02,27.03
										c2.08,13.67,12.54,16.92,12.54,16.92c0-0.05,0.02,11.87,0.07,15.93l11.87,36.16l16.88-36.16l2.6-65.65
										C342.42,154.48,340.57,152.35,338.09,152.07z"/>
								</g>
								<g>
									<g>
										<path class="st4" d="M302.96,173.76c-0.04,0.92,0.71,1.72,1.68,1.78c0.96,0.06,1.78-0.64,1.82-1.57
											c0.04-0.92-0.71-1.72-1.67-1.78C303.82,172.14,303,172.84,302.96,173.76z"/>
									</g>
								</g>
								<g>
									<g>
										<path class="st4" d="M300.79,168.55c0.22,0.23,1.55-0.74,3.43-0.73c1.88-0.01,3.26,0.97,3.47,0.74
											c0.1-0.1-0.12-0.52-0.72-0.96c-0.59-0.44-1.6-0.87-2.77-0.88c-1.17,0-2.16,0.42-2.74,0.86
											C300.89,168.04,300.69,168.45,300.79,168.55z"/>
									</g>
								</g>
								<g>
									<g>
										<path class="st4" d="M320.07,173.76c-0.04,0.92,0.71,1.72,1.68,1.78c0.96,0.06,1.78-0.64,1.82-1.57
											c0.04-0.92-0.71-1.72-1.68-1.78C320.92,172.14,320.11,172.84,320.07,173.76z"/>
									</g>
								</g>
								<g>
									<g>
										<path class="st4" d="M319.32,169.03c0.22,0.23,1.55-0.74,3.43-0.72c1.88-0.01,3.26,0.97,3.47,0.74
											c0.1-0.1-0.12-0.52-0.72-0.96c-0.59-0.44-1.6-0.87-2.77-0.88c-1.17,0-2.16,0.42-2.74,0.86
											C319.41,168.51,319.21,168.92,319.32,169.03z"/>
									</g>
								</g>
								<g>
									<g>
										<path class="st4" d="M312.38,182.96c0.01-0.11-1.16-0.32-3.06-0.57c-0.48-0.05-0.94-0.15-1.01-0.48
											c-0.11-0.35,0.09-0.87,0.33-1.42c0.46-1.16,0.94-2.38,1.45-3.65c2.01-5.2,3.47-9.49,3.26-9.56
											c-0.21-0.08-2.01,4.07-4.02,9.28c-0.48,1.28-0.95,2.51-1.39,3.68c-0.19,0.55-0.5,1.16-0.26,1.89
											c0.13,0.36,0.48,0.62,0.79,0.71c0.31,0.1,0.58,0.1,0.82,0.12C311.19,183.05,312.37,183.07,312.38,182.96z"/>
									</g>
								</g>
								<g>
									<path class="st16" d="M310.9,206.79l0.08,3.4c13.66,1.37,18.25-8.15,18.25-8.15C320.09,207.45,310.9,206.79,310.9,206.79z"
										/>
								</g>
								<g>
									<path class="st16" d="M313.14,190.66c0.08-1.03-0.44-1.97-1.24-2.59c-1.14-0.88-2.41-1.19-3.95-0.66
										c-0.48,0.12-1.1,1.02-1.17,1.34c-0.07,0.32-0.07,0.14,0,0.44c0.25,1.1,0.53,2.22,1.26,3.07c0.73,0.84,2.01,1.34,3.2,0.9
										C312.31,192.76,313.06,191.68,313.14,190.66z"/>
								</g>
								<g>
									<g>
										<path class="st4" d="M313.89,188.46c-0.24-0.19-1.44,1.46-3.71,1.61c-2.27,0.16-3.9-1.31-4.08-1.09
											c-0.1,0.09,0.16,0.61,0.89,1.17c0.71,0.55,1.95,1.09,3.34,1c1.39-0.1,2.46-0.79,3-1.43
											C313.9,189.08,314.01,188.54,313.89,188.46z"/>
									</g>
								</g>
								<g>
									<g>
										<path class="st4" d="M318.47,162.99c0.18,0.51,2.07,0.28,4.27,0.57c2.22,0.24,3.99,0.9,4.29,0.44
											c0.13-0.22-0.18-0.7-0.89-1.2c-0.71-0.5-1.85-0.98-3.17-1.14c-1.33-0.15-2.54,0.05-3.35,0.37
											C318.81,162.34,318.39,162.74,318.47,162.99z"/>
									</g>
								</g>
								<g>
									<g>
										<path class="st4" d="M301.52,162.04c0.33,0.43,1.63-0.01,3.19-0.02c1.56-0.06,2.88,0.31,3.19-0.14
											c0.14-0.22-0.07-0.65-0.65-1.06c-0.57-0.41-1.52-0.74-2.59-0.72c-1.07,0.03-2,0.41-2.55,0.84
											C301.56,161.39,301.38,161.83,301.52,162.04z"/>
									</g>
								</g>
								<g>
									<g>
										<path class="st15" d="M338.68,173.59c0.19-0.09,7.6-2.44,7.54,5.18c-0.07,7.62-7.71,5.98-7.72,5.76
											C338.49,184.32,338.68,173.59,338.68,173.59z"/>
									</g>
								</g>
								<g>
									<g>
										<path class="st16" d="M340.85,181.67c0.03-0.02,0.13,0.09,0.36,0.2c0.22,0.1,0.59,0.17,0.99,0.03
											c0.81-0.29,1.5-1.56,1.55-2.93c0.03-0.69-0.11-1.36-0.36-1.9c-0.23-0.56-0.58-0.95-0.99-1.03
											c-0.4-0.1-0.69,0.14-0.79,0.36c-0.1,0.21-0.06,0.37-0.1,0.38c-0.02,0.02-0.16-0.13-0.1-0.44c0.03-0.15,0.12-0.33,0.3-0.48
											c0.18-0.15,0.45-0.22,0.74-0.19c0.59,0.05,1.11,0.59,1.38,1.19c0.3,0.61,0.47,1.35,0.44,2.13
											c-0.06,1.54-0.86,2.97-1.97,3.28c-0.54,0.14-0.98-0.03-1.21-0.21C340.87,181.86,340.83,181.69,340.85,181.67z"/>
									</g>
								</g>
							</g>
							<g>
								<g>
									<path class="st1" d="M343.37,184.21c0.03-0.04,0.33,0.32,0.29,1c-0.03,0.32-0.13,0.77-0.54,1.07
										c-0.41,0.29-0.98,0.29-1.46,0.11c-0.48-0.18-0.92-0.57-1.01-1.06c-0.1-0.47,0.03-0.89,0.21-1.17
										c0.38-0.59,0.86-0.65,0.85-0.6c0.03,0.06-0.36,0.21-0.61,0.74c-0.12,0.26-0.2,0.61-0.1,0.95c0.08,0.34,0.4,0.63,0.81,0.78
										c0.4,0.16,0.84,0.15,1.12-0.04c0.29-0.19,0.42-0.53,0.47-0.81C343.49,184.6,343.32,184.24,343.37,184.21z"/>
								</g>
							</g>
							<g>
								<path class="st4" d="M297.81,164.9c1.03-2.21,3.03-3.82,5.14-5.03c2.12-1.21,4.41-2.08,6.52-3.31
									c4.84-2.81,8.57-7.47,10.24-12.81c-3.75-1.94-8.42-1.72-12.21,0.16c-3.78,1.87-6.69,5.27-8.43,9.11
									c-1.74,3.85-2.37,8.13-2.33,12.35"/>
							</g>
							<g>
								<g>
									<path class="st4" d="M340.43,150.03c-5.64-5.36-16.29-8.31-23.64-5.8c1.09,6.42,5.93,13.62,10.19,18.55
										c4.29,4.95,6.88,13.63,16.2,10.68c0.64-0.2,1.38,0.38,1.96,0.04c0.49-0.29,0.72-0.87,0.9-1.41
										C348.51,164.47,346.23,155.54,340.43,150.03z"/>
								</g>
							</g>
						</g>
						<g>
							<g>
								<path class="st11" d="M343.64,148.79c0.01,0.01-0.05,0.1-0.16,0.26c-0.12,0.16-0.28,0.41-0.53,0.69
									c-0.47,0.58-1.24,1.37-2.31,2.18c-1.07,0.82-2.48,1.63-4.17,2.22c-1.68,0.6-3.66,0.94-5.72,0.84
									c-2.07-0.13-3.99-0.68-5.6-1.46c-1.61-0.77-2.92-1.74-3.9-2.67c-0.98-0.93-1.65-1.79-2.06-2.42
									c-0.22-0.31-0.35-0.57-0.45-0.74c-0.1-0.17-0.14-0.27-0.13-0.27c0.07-0.06,0.84,1.46,2.81,3.25
									c0.98,0.89,2.28,1.81,3.87,2.56c1.58,0.74,3.46,1.28,5.48,1.4c2.01,0.1,3.94-0.22,5.6-0.79c1.66-0.56,3.05-1.34,4.12-2.12
									C342.65,150.15,343.57,148.73,343.64,148.79z"/>
							</g>
						</g>
						<g>
							<g>
								<path class="st10" d="M347.3,159.17c0.01,0.01-0.08,0.1-0.25,0.26c-0.18,0.15-0.42,0.42-0.8,0.67
									c-0.71,0.56-1.86,1.24-3.4,1.78c-1.54,0.55-3.49,0.85-5.64,0.76c-2.15-0.1-4.51-0.65-6.75-1.74
									c-2.23-1.11-4.13-2.58-5.65-4.09c-1.53-1.51-2.72-3.05-3.63-4.39c-0.91-1.34-1.56-2.48-1.98-3.28
									c-0.22-0.4-0.36-0.72-0.47-0.93c-0.1-0.22-0.15-0.33-0.14-0.34c0.01-0.01,0.08,0.1,0.2,0.3c0.14,0.24,0.31,0.54,0.53,0.9
									c0.46,0.78,1.14,1.89,2.07,3.21c0.93,1.31,2.13,2.82,3.65,4.3c1.52,1.48,3.39,2.91,5.58,4c2.19,1.07,4.5,1.61,6.61,1.73
									c2.11,0.11,4.03-0.17,5.55-0.67c1.52-0.5,2.67-1.13,3.4-1.66C346.9,159.47,347.27,159.14,347.3,159.17z"/>
							</g>
						</g>
					</g>
					<g>
						<g>
							<path class="st10" d="M340.61,200.88c0.01,0.02,0.15-0.05,0.4-0.19c0.25-0.14,0.64-0.34,1.1-0.63
								c0.95-0.57,2.28-1.47,3.8-2.74c1.52-1.27,3.18-2.98,4.7-5.13c1.5-2.16,2.81-4.78,3.64-7.7c1.72-5.86,1.32-11.52,0.37-15.35
								c-0.46-1.93-1.01-3.44-1.46-4.45c-0.21-0.51-0.41-0.89-0.54-1.15c-0.13-0.26-0.21-0.39-0.22-0.38
								c-0.04,0.02,0.19,0.58,0.58,1.61c0.38,1.03,0.87,2.54,1.29,4.46c0.84,3.8,1.17,9.37-0.51,15.12
								c-0.82,2.87-2.09,5.44-3.54,7.58c-1.47,2.13-3.08,3.83-4.55,5.13c-1.47,1.3-2.76,2.23-3.67,2.85
								C341.1,200.51,340.59,200.85,340.61,200.88z"/>
						</g>
					</g>
				</g>
			</g>
			<g>
				<g>
					<g>
						<g>
							<g>
								<g>
									<g>
										<path class="st12" d="M229.57,393.05l-12.74,23.14c0,0-26.79-6.81-29.56-2.76l42.97,27.94l21.32-35.24L229.57,393.05z"/>
									</g>
								</g>
							</g>
						</g>
						<g class="st5">
							<g>
								<g>
									<g>
										<g>
											<path class="st11" d="M231.58,422.42c0.71,0.74,0.73,2.05,0.02,2.79c-0.71,0.74-2.04,0.77-2.77,0.04
												c-0.72-0.73-0.79-2.3,0-2.96c0.79-0.66,2.35-0.6,2.88,0.28"/>
										</g>
									</g>
								</g>
							</g>
						</g>
						<g class="st5">
							<g>
								<g>
									<g>
										<path class="st11" d="M230.25,441.37l2.15-3.55l-42.43-25.53c0,0-1.77-0.29-3.11,1.32L230.25,441.37z"/>
									</g>
								</g>
							</g>
						</g>
						<g>
							<g>
								<g>
									<g>
										<g>
											<path class="st4" d="M216.26,415.54c-0.12,0.22,0.89,0.96,1.54,2.28c0.68,1.31,0.67,2.56,0.92,2.6
												c0.22,0.08,0.67-1.4-0.14-2.99C217.78,415.84,216.33,415.32,216.26,415.54z"/>
										</g>
									</g>
								</g>
							</g>
						</g>
						<g>
							<g>
								<g>
									<g>
										<g>
											<path class="st4" d="M210.5,414.69c-0.17,0.18,0.54,1.1,0.72,2.44c0.23,1.34-0.18,2.43,0.04,2.55
												c0.18,0.15,1.08-1.01,0.82-2.68C211.84,415.34,210.63,414.49,210.5,414.69z"/>
										</g>
									</g>
								</g>
							</g>
						</g>
						<g>
							<g>
								<g>
									<g>
										<g>
											<path class="st4" d="M204.58,418.65c0.17,0.16,1.11-0.73,1.26-2.24c0.16-1.51-0.57-2.57-0.77-2.45
												c-0.23,0.1,0.05,1.13-0.1,2.36C204.86,417.56,204.38,418.5,204.58,418.65z"/>
										</g>
									</g>
								</g>
							</g>
						</g>
						<g>
							<g>
								<g>
									<g>
										<g>
											<path class="st4" d="M219.75,410.59c-0.03,0.25,1.14,0.54,2.3,1.35c1.18,0.78,1.88,1.76,2.1,1.64
												c0.22-0.08-0.23-1.43-1.61-2.36C221.16,410.28,219.74,410.36,219.75,410.59z"/>
										</g>
									</g>
								</g>
							</g>
						</g>
					</g>
					<g class="st13">
						<g>
							<g>
								<g>
									<polygon points="227.06,397.64 224.78,401.76 246.52,414.49 248.72,410.87 									"/>
								</g>
							</g>
						</g>
					</g>
					<g>
						<g>
							<g>
								<g>
									<g>
										<path class="st4" d="M222.4,405.97c-0.06,0.09,0.71,0.73,2.21,1.31c0.74,0.29,1.67,0.54,2.73,0.67
											c0.53,0.06,1.09,0.1,1.67,0.09c0.28-0.01,0.6,0,0.98-0.12c0.37-0.08,0.85-0.57,0.78-1.08c-0.02-0.47-0.33-0.86-0.65-1.05
											c-0.32-0.2-0.62-0.3-0.89-0.38c-0.56-0.17-1.12-0.29-1.65-0.35c-1.07-0.12-2.04-0.04-2.83,0.12
											c-1.59,0.33-2.41,0.93-2.37,1.01c0.05,0.13,0.95-0.25,2.46-0.41c0.75-0.08,1.65-0.08,2.63,0.07
											c0.49,0.08,0.99,0.2,1.5,0.37c0.54,0.16,0.94,0.39,0.93,0.67c0,0.11-0.02,0.14-0.2,0.22c-0.18,0.07-0.44,0.08-0.72,0.09
											c-0.54,0.02-1.06,0.01-1.56-0.03c-1-0.08-1.88-0.26-2.62-0.46C223.33,406.29,222.47,405.85,222.4,405.97z"/>
									</g>
								</g>
							</g>
						</g>
					</g>
					<g>
						<g>
							<g>
								<g>
									<g>
										<path class="st4" d="M222.5,406.44c0.06,0.08,0.94-0.44,1.85-1.78c0.45-0.67,0.88-1.55,1.14-2.59
											c0.13-0.52,0.22-1.08,0.24-1.67c0-0.59,0.04-1.36-0.74-1.95c-0.43-0.28-0.99-0.15-1.29,0.06
											c-0.32,0.21-0.51,0.45-0.71,0.67c-0.39,0.47-0.68,0.97-0.89,1.48c-0.42,1.02-0.5,2.03-0.42,2.84
											c0.18,1.65,0.92,2.45,0.98,2.38c0.14-0.07-0.36-0.93-0.37-2.42c0-0.73,0.14-1.62,0.54-2.49c0.2-0.43,0.47-0.86,0.8-1.25
											c0.35-0.43,0.75-0.7,0.9-0.55c0.22,0.13,0.38,0.7,0.34,1.18c-0.01,0.53-0.07,1.04-0.17,1.52
											c-0.2,0.96-0.53,1.79-0.89,2.45C223.11,405.68,222.4,406.34,222.5,406.44z"/>
									</g>
								</g>
							</g>
						</g>
					</g>
				</g>
				<g>
					<g>
						<g>
							<g>
								<g>
									<g>
										<path class="st12" d="M268.5,437.97l1.31,26.38c0,0-27.32,8.15-26.87,14.62l51.41-0.07l-0.25-41.35L268.5,437.97z"/>
									</g>
								</g>
							</g>
						</g>
						<g class="st5">
							<g>
								<g>
									<g>
										<g>
											<path class="st11" d="M285.62,461.91c1,0.26,1.7,1.36,1.48,2.37c-0.22,1.01-1.33,1.73-2.33,1.49
												c-1-0.24-1.88-1.54-1.55-2.52c0.33-0.97,1.69-1.75,2.6-1.28"/>
										</g>
									</g>
								</g>
							</g>
						</g>
						<g class="st5">
							<g>
								<g>
									<g>
										<path class="st11" d="M294.34,478.9l0.07-4.31l-49.05,0.54c0,0-2.43,1.71-2.42,3.84L294.34,478.9z"/>
									</g>
								</g>
							</g>
						</g>
						<g>
							<g>
								<g>
									<g>
										<g>
											<path class="st4" d="M268.97,464.1c0.01,0.25,1.26,0.35,2.51,1.13c1.26,0.76,1.91,1.83,2.14,1.73
												c0.23-0.05-0.16-1.54-1.68-2.47C270.42,463.55,268.91,463.87,268.97,464.1z"/>
										</g>
									</g>
								</g>
							</g>
						</g>
						<g>
							<g>
								<g>
									<g>
										<g>
											<path class="st4" d="M263.63,466.4c-0.05,0.24,1.04,0.65,1.9,1.7c0.9,1.02,1.13,2.16,1.37,2.15
												c0.24,0.04,0.39-1.43-0.71-2.71C265.1,466.25,263.63,466.16,263.63,466.4z"/>
										</g>
									</g>
								</g>
							</g>
						</g>
						<g>
							<g>
								<g>
									<g>
										<g>
											<path class="st4" d="M260.66,472.87c0.23,0.05,0.56-1.2-0.1-2.57c-0.65-1.37-1.84-1.89-1.94-1.68
												c-0.14,0.21,0.63,0.93,1.16,2.06C260.33,471.8,260.41,472.85,260.66,472.87z"/>
										</g>
									</g>
								</g>
							</g>
						</g>
						<g>
							<g>
								<g>
									<g>
										<g>
											<path class="st4" d="M269.34,458.06c0.11,0.23,1.25-0.13,2.67-0.06c1.42,0.05,2.52,0.51,2.65,0.29
												c0.14-0.18-0.94-1.09-2.61-1.16C270.38,457.05,269.21,457.86,269.34,458.06z"/>
										</g>
									</g>
								</g>
							</g>
						</g>
					</g>
					<g class="st13">
						<g>
							<g>
								<g>
									<polygon points="269.39,456.65 269.68,461.9 294.29,461.26 294.26,457.02 									"/>
								</g>
							</g>
						</g>
					</g>
					<g>
						<g>
							<g>
								<g>
									<g>
										<path class="st4" d="M269.17,452.73c0,0.1,0.99,0.24,2.57-0.05c0.78-0.15,1.71-0.42,2.67-0.86
											c0.48-0.22,0.98-0.49,1.46-0.8c0.23-0.15,0.51-0.31,0.77-0.61c0.27-0.26,0.42-0.93,0.1-1.33
											c-0.27-0.39-0.73-0.55-1.1-0.56c-0.38-0.01-0.68,0.07-0.96,0.15c-0.57,0.15-1.1,0.34-1.59,0.57
											c-0.97,0.46-1.76,1.03-2.35,1.59c-1.17,1.12-1.57,2.06-1.48,2.1c0.11,0.08,0.68-0.71,1.88-1.64
											c0.6-0.46,1.36-0.94,2.27-1.32c0.46-0.19,0.95-0.35,1.47-0.47c0.54-0.15,1-0.16,1.15,0.08c0.05,0.09,0.06,0.13-0.05,0.29
											c-0.12,0.15-0.33,0.29-0.56,0.45c-0.45,0.3-0.9,0.57-1.35,0.79c-0.89,0.46-1.74,0.77-2.47,0.99
											C270.13,452.51,269.17,452.59,269.17,452.73z"/>
									</g>
								</g>
							</g>
						</g>
					</g>
					<g>
						<g>
							<g>
								<g>
									<g>
										<path class="st4" d="M269.51,453.08c0.09,0.04,0.57-0.87,0.64-2.49c0.03-0.8-0.07-1.78-0.39-2.8
											c-0.16-0.51-0.39-1.04-0.67-1.55c-0.31-0.5-0.68-1.18-1.65-1.27c-0.51-0.01-0.92,0.39-1.06,0.73
											c-0.16,0.35-0.19,0.65-0.25,0.94c-0.09,0.6-0.07,1.19,0.02,1.73c0.18,1.09,0.64,1.99,1.13,2.64
											c1.02,1.31,2.07,1.6,2.09,1.51c0.08-0.13-0.8-0.6-1.58-1.86c-0.39-0.62-0.73-1.45-0.84-2.4
											c-0.06-0.47-0.06-0.98,0.03-1.48c0.07-0.55,0.27-0.99,0.48-0.93c0.25-0.01,0.69,0.4,0.91,0.83
											c0.27,0.46,0.49,0.92,0.65,1.38c0.33,0.92,0.49,1.81,0.53,2.55C269.62,452.11,269.37,453.05,269.51,453.08z"/>
									</g>
								</g>
							</g>
						</g>
					</g>
				</g>
				<g>
					<g>
						<path class="st3" d="M343.08,212.72l-2.88-1.22c0.88-1.4-5.99,12-15.34,12.09c-12.78,0.12-14.06-12.61-14.06-12.61l-0.67,0.08
							l-21.02,21.78l-2.77,60.96l2.28,7.82l45.14,16.39l15.75-31.34l1.38-19.31L343.08,212.72z"/>
					</g>
					<g>
						<path class="st12" d="M341.71,212.04c0,0,25.63,5.83,29.81,16.77c1.85,4.83,2.43,82.74,2.43,82.74s3.19,7.13,2.98,21.84
							c-0.2,14.1-9.53,23.22-21.16,25.85c0,0-3.06-22.15-15.33-33.26c-11.62-10.52-12.69-9.25-12.69-9.25l2.81-25.4l2.9-22.12
							c2.91-15.8-0.36-32.94,5.02-48.09L341.71,212.04z"/>
					</g>
					<g>
						<path class="st12" d="M287.6,227.53l-17.48,76.9l18.8-4.27l5.98-46.14l15.42-43.03c0,0-2.6,0.34-5.94,0.86
							C296.1,213.13,289.45,219.36,287.6,227.53z"/>
					</g>
					<g class="st13">
						<g>
							<path d="M373.77,324.75c0.07,0.93-0.49,1.82-1.25,2.36c-0.76,0.54-1.69,0.78-2.6,0.94c-4.32,0.76-8.78-0.06-12.95-1.41
								c-4.8-1.55-9.34-3.79-13.87-6.03c-6.64-3.28-8.72-4.77-14.98-8.72c6.51,2.66,8.66,3,15.51,4.57
								c10.23,2.34,20.95,3.51,30.21,8.44"/>
						</g>
					</g>
					<g>
						<g>
							<g>
								<g>
									<g>
										<path class="st15" d="M336.16,295.7l-11.44-2.47c0,0-13.13-7.32-16.08-7.31c-2.66,0.01-13.15,4.75-15.2,5.69
											c-0.23,0.11-0.42,0.28-0.54,0.5l0,0c-0.55,0.96-0.23,2.18,0.71,2.76l0.18,0.11l-0.13,0.27c-0.16,0.33-0.28,0.72-0.33,1.11
											c-0.15,1.34,1.57,2.04,2.44,1l-0.46,0.58c-0.19,0.23-0.3,0.52-0.34,0.82l-0.06,0.58c-0.07,0.65,0.27,1.27,0.84,1.57l0,0
											c0.55,0.28,1.21,0.22,1.69-0.16c1.42-1.12,4.44-3.34,6.24-3.35c1.6-0.01,4.21,0.39,5.78,0.65c0.8,0.13,1.43,0.74,1.6,1.53
											l0,0c-1.05-0.1-8.92,2.5-11.71,3.44c-0.86,0.29-1.58,0.95-1.83,1.82c-0.22,0.79,0.04,1.7,1.69,1.58
											c3.54-0.24,10.14-2.06,10.14-2.06s3.31-0.39,5.13,1.39c2.55,2.51,3.75,3.47,6.36,3.05c2.61-0.42,4.63-1.3,4.63-1.3
											l4.14,0.78L336.16,295.7z"/>
									</g>
								</g>
							</g>
						</g>
						<g>
							<g>
								<g>
									<g>
										<g>
											<path class="st16" d="M312.09,293.59c-0.02,0.05-0.95-0.42-2.56-0.79c-1.6-0.38-3.94-0.56-6.39,0.04
												c-2.45,0.6-4.43,1.86-5.68,2.93c-1.26,1.08-1.86,1.93-1.9,1.89c-0.01-0.01,0.13-0.23,0.42-0.59
												c0.29-0.37,0.74-0.88,1.36-1.44c1.23-1.13,3.23-2.43,5.74-3.05c2.5-0.62,4.89-0.39,6.5,0.04
												c0.81,0.21,1.45,0.45,1.87,0.64C311.88,293.45,312.1,293.58,312.09,293.59z"/>
										</g>
									</g>
								</g>
							</g>
						</g>
						<g>
							<g>
								<g>
									<g>
										<g>
											<path class="st16" d="M311.17,289.96c-0.03,0.06-0.94-0.59-2.65-0.92c-1.69-0.35-4.18-0.23-6.64,0.76
												c-2.47,1-4.43,2.45-5.82,3.49c-0.66,0.51-1.22,0.93-1.65,1.26c-0.39,0.3-0.61,0.46-0.62,0.44
												c-0.01-0.01,0.19-0.2,0.56-0.52c0.37-0.32,0.91-0.78,1.6-1.33c1.37-1.08,3.33-2.58,5.84-3.59
												c2.51-1.01,5.06-1.11,6.78-0.7c0.86,0.2,1.53,0.47,1.97,0.7c0.22,0.11,0.38,0.22,0.49,0.29
												C311.12,289.91,311.18,289.95,311.17,289.96z"/>
										</g>
									</g>
								</g>
							</g>
						</g>
					</g>
					<g>
						<path class="st12" d="M356.04,231.16l5.71,61.41h1.62l-25.88,0.51l-9.37,18.81c0,0,33.94,16.51,48.45,11.96
							c17.19-5.39,12.29-24.58,12.16-31.36c-0.02-1.19-9.67-58.24-19.02-66.79C369.7,225.71,357.37,226.53,356.04,231.16z"/>
					</g>
					<g>
						<g>
							<g>
								<path class="st4" d="M355.24,248.3c-0.04,0.01,0.02,0.6,0.15,1.66c0.16,1.15,0.36,2.66,0.61,4.49
									c0.58,3.87,1.36,9.05,2.22,14.77c0.88,5.77,1.65,10.99,2.18,14.78c0.26,1.82,0.48,3.33,0.64,4.48
									c0.16,1.06,0.26,1.64,0.3,1.64c0.04,0,0-0.6-0.09-1.66c-0.09-1.07-0.25-2.61-0.47-4.51c-0.44-3.8-1.14-9.04-2.03-14.81
									c-0.88-5.77-1.74-10.98-2.38-14.75c-0.32-1.81-0.58-3.32-0.78-4.46C355.4,248.88,355.27,248.3,355.24,248.3z"/>
							</g>
						</g>
						<g>
							<g>
								<path class="st4" d="M357.2,221.85c-0.03-0.02-0.21,0.21-0.5,0.65c-0.3,0.43-0.68,1.09-1.09,1.94
									c-0.42,0.84-0.81,1.9-1.18,3.09c-0.34,1.2-0.61,2.55-0.78,3.97c-0.33,2.86-0.19,5.46-0.03,7.33c0.17,1.87,0.38,3,0.45,3
									c0.08-0.01,0.01-1.16-0.07-3.02c-0.06-1.86-0.14-4.43,0.19-7.24c0.16-1.4,0.42-2.72,0.72-3.9c0.33-1.17,0.68-2.22,1.05-3.07
									C356.67,222.88,357.28,221.9,357.2,221.85z"/>
							</g>
						</g>
						<g>
							<g>
								<path class="st4" d="M376.56,323.86c0-0.01-0.09,0.01-0.26,0.05c-0.2,0.05-0.44,0.11-0.73,0.18
									c-0.64,0.15-1.6,0.32-2.85,0.42c-2.5,0.19-6.15-0.11-10.55-1.03c-2.19-0.46-4.63-0.98-7.19-1.57
									c-2.54-0.68-5.21-1.65-8-2.68c-5.57-2.09-11.64-4.56-17.97-7.24c-0.27-0.11-0.53-0.23-0.79-0.34l0.13,0.37
									c3.37-6.78,6.55-13.18,9.34-18.82l-0.22,0.13c4.16-0.03,7.97-0.26,11.37-0.37c3.39-0.13,6.36-0.19,8.82-0.17
									c2.45,0.01,4.38,0.11,5.7,0.25c1.31,0.12,2.01,0.27,2.02,0.23c0-0.01-0.17-0.06-0.51-0.13c-0.34-0.07-0.84-0.18-1.49-0.25
									c-1.31-0.19-3.25-0.33-5.71-0.39c-2.46-0.06-5.44-0.03-8.83,0.06c-3.4,0.08-7.22,0.28-11.35,0.29l-0.15,0l-0.07,0.13
									c-2.81,5.63-6.01,12.03-9.39,18.8l-0.13,0.25l0.26,0.11c0.26,0.11,0.53,0.22,0.79,0.34c6.34,2.68,12.41,5.14,18.01,7.21
									c2.8,1.02,5.47,1.98,8.06,2.65c2.61,0.58,5.01,1.06,7.23,1.51c4.43,0.87,8.12,1.13,10.64,0.87
									C375.27,324.46,376.56,323.86,376.56,323.86z"/>
							</g>
						</g>
						<g>
							<g>
								<path class="st4" d="M358.72,292.73c0.07,0.06,0.64-0.6,1.81-1.33c1.15-0.74,2.94-1.47,5.02-1.76
									c2.08-0.3,4.01-0.22,5.4-0.17c1.39,0.06,2.26,0.09,2.27,0.01c0.01-0.07-0.85-0.23-2.24-0.39c-1.39-0.15-3.36-0.29-5.51,0.02
									c-2.16,0.31-4.01,1.13-5.16,1.98C359.16,291.93,358.68,292.69,358.72,292.73z"/>
							</g>
						</g>
						<g class="st13">
							<g>
								<path d="M359.16,292.65c3.67-0.56,7.46-0.28,11.01,0.79c2.18,0.66,4.38,1.72,5.6,3.64c0.39,0.62,0.64,1.52,0.11,2.03
									c-0.46,0.44-1.22,0.3-1.81,0.05c-1.27-0.55-2.34-1.46-3.44-2.31c-1.75-1.34-3.63-2.54-5.69-3.33
									c-2.06-0.79-4.31-1.15-6.49-0.81"/>
							</g>
						</g>
						<g class="st13">
							<g>
								<path d="M360.3,291.33c0.78-2.16,3.61-4.18,5.44-4.8c4.17-1.42,8.97-1.95,12.66,0.44c0.4,0.26,0.82,0.61,0.83,1.09
									c0.03,0.66-0.71,1.06-1.35,1.24c-2.63,0.72-5.42,0.29-8.14,0.02c-2.72-0.26-5.63-0.3-7.98,1.09"/>
							</g>
						</g>
						<g class="st13">
							<g>
								<path d="M361.16,288.63c-5.37-10.98-7.77-25.45-5.61-38.24L361.16,288.63z"/>
							</g>
						</g>
					</g>
				</g>
				<g>
					<g>
						<path class="st4" d="M355.77,359.24c0,0-9.26,6.14-27.66,6.14c-18.4,0-22.61-1.27-22.61-1.27l-17.23-15.65l-37.8,66.19
							c0,0-30-18.6-30.2-18c-0.36,0.36,27.99-62.71,34.19-73.62c1.98-3.49,3.9-6.13,7.03-10.19c6.3-8.16,16.77-11.95,26.85-9.76
							c5.11,1.11,10.71,2.57,15.71,4.39c13.72,5.02,25.35,8.4,35.28,17.2C350.81,334.86,357.76,354.6,355.77,359.24z"/>
					</g>
					<g>
						<path class="st4" d="M292.58,340.84c0,0,13.6,9.41,13.23,16.95c-0.31,6.32-8.71,99.33-8.71,99.33l-33.47-0.57l-2.3-60.9
							L292.58,340.84z"/>
					</g>
					<g>
						<g>
							<path class="st10" d="M258.64,400.37c0.01,0,0.06-0.07,0.15-0.22c0.11-0.18,0.24-0.41,0.4-0.68c0.36-0.64,0.86-1.53,1.5-2.65
								c1.3-2.35,3.15-5.7,5.42-9.81c4.55-8.34,10.8-19.8,17.71-32.46c2.46-4.54,4.84-8.93,7.04-12.99l-0.26,0.13
								c5.35,0.65,9.74,3.93,12.11,7.69c1.19,1.89,1.92,3.91,2.26,5.85c0.35,1.94,0.4,3.77,0.37,5.43c-0.09,3.32-0.4,5.96-0.48,7.78
								c-0.05,0.91-0.08,1.61-0.07,2.09c0,0.47,0,0.72,0.02,0.72c0.02,0,0.04-0.25,0.07-0.72c0.04-0.51,0.09-1.2,0.16-2.08
								c0.14-1.81,0.49-4.44,0.63-7.78c0.05-1.67,0.02-3.53-0.32-5.5c-0.33-1.98-1.06-4.06-2.27-6.01
								c-2.41-3.88-6.89-7.27-12.42-7.96l-0.17-0.02l-0.08,0.15c-2.2,4.06-4.59,8.44-7.06,12.98
								c-6.85,12.69-13.05,24.17-17.57,32.53c-2.21,4.15-4.01,7.52-5.27,9.89c-0.6,1.14-1.07,2.05-1.41,2.7
								c-0.14,0.29-0.26,0.52-0.35,0.71C258.67,400.28,258.63,400.36,258.64,400.37z"/>
						</g>
					</g>
					<g>
						<g>
							<path class="st10" d="M286.61,328.19c-0.15,0.1,2.4,2.5,3.58,6.47c1.25,3.96,0.47,7.36,0.65,7.37
								c0.06,0.01,0.33-0.8,0.45-2.18c0.13-1.37,0.02-3.32-0.59-5.35c-0.62-2.03-1.63-3.7-2.5-4.76
								C287.33,328.66,286.65,328.14,286.61,328.19z"/>
						</g>
					</g>
					<g>
						<g>
							<path class="st10" d="M293.65,325.62c-0.09,0.03,0.19,0.96,0.39,2.49c0.2,1.53,0.26,3.68-0.17,6
								c-0.44,2.32-1.27,4.3-2.02,5.65c-0.74,1.36-1.34,2.12-1.26,2.18c0.04,0.04,0.74-0.65,1.59-1.99
								c0.85-1.33,1.77-3.36,2.22-5.74c0.44-2.39,0.32-4.61,0.02-6.16C294.1,326.5,293.7,325.6,293.65,325.62z"/>
						</g>
					</g>
				</g>
				<g>
					<g>
						<path class="st4" d="M319.74,282.9c0.08-0.06-0.95-1.23-2.25-3.35c-0.66-1.05-1.34-2.36-2-3.86
							c-0.63-1.51-1.22-3.22-1.66-5.05c-0.42-1.84-0.64-3.63-0.74-5.27c-0.07-1.64-0.04-3.12,0.09-4.35
							c0.24-2.47,0.64-3.97,0.54-3.99c-0.03-0.01-0.15,0.36-0.34,1.04c-0.1,0.34-0.21,0.75-0.29,1.25
							c-0.09,0.49-0.22,1.05-0.28,1.67c-0.18,1.25-0.25,2.75-0.2,4.41c0.07,1.66,0.29,3.49,0.71,5.37c0.45,1.87,1.06,3.6,1.72,5.13
							c0.69,1.51,1.42,2.83,2.13,3.87c0.33,0.54,0.69,0.98,0.99,1.38c0.29,0.4,0.57,0.73,0.81,0.99
							C319.44,282.65,319.71,282.92,319.74,282.9z"/>
					</g>
				</g>
			</g>
		</g>
		<g>
			<path class="st12" d="M288.97,223.5c0,0-36.29,62.34-37.1,67.13c-0.6,3.56,0.55,13.71,3.8,15.03c9.1,3.68,19.62-0.6,29.23-7.24
				l1.44-1L288.97,223.5z"/>
		</g>
		<g>
			<g>
				<path class="st10" d="M448.68,214.77c0,0-5.69-3.31-7.04,5.9c-1.35,9.21-10.69,76.74-10.69,76.74l-58.05-0.55
					c0,0-12.26-0.47-20.59,24.53c-5.82,17.48-11.76,76.98-11.76,76.98l1.1,43.06l104.96-0.02c0,0,3.24-90.26,3.78-130.4
					C450.93,270.89,452.08,227.11,448.68,214.77z"/>
			</g>
			<g>
				<g>
					<path class="st4" d="M443.44,214.17c0.01,0.01-0.1,0.1-0.31,0.28c-0.21,0.19-0.51,0.46-0.86,0.88
						c-0.69,0.82-1.59,2.25-1.76,4.35c-0.51,4.2-1.24,10.27-2.15,17.8c-1.87,15.13-4.47,36.17-7.41,59.93l-0.03,0.24l-0.23-0.01
						c-3.88-0.08-7.96-0.17-12.11-0.25c-13.09-0.21-25.57-0.3-36.9,0.02c-2.83,0.09-5.59,0.2-8.27,0.42
						c-0.67,0.06-1.33,0.11-1.99,0.17c-0.66,0.06-1.3,0.18-1.94,0.26c-1.31,0.09-2.44,0.6-3.47,1.33c-2.01,1.5-3.57,3.45-4.92,5.38
						c-1.36,1.94-2.51,3.92-3.55,5.83c-4.1,7.71-6.48,14.45-7.92,19.12c-0.71,2.35-1.14,4.21-1.34,5.48
						c-0.1,0.64-0.14,1.13-0.15,1.46c0,0.33-0.01,0.5-0.01,0.5s-0.02-0.17-0.04-0.5c0-0.33,0.02-0.83,0.1-1.47
						c0.16-1.29,0.57-3.17,1.25-5.53c0.67-2.37,1.63-5.22,2.89-8.47c1.27-3.25,2.84-6.9,4.9-10.77c1.03-1.93,2.18-3.92,3.55-5.89
						c1.36-1.96,2.92-3.94,5-5.5l0.82-0.53c0.28-0.17,0.59-0.29,0.89-0.44c0.3-0.13,0.64-0.2,0.96-0.3c0.32-0.07,0.65-0.1,0.97-0.15
						c0.65-0.09,1.3-0.2,1.96-0.27c0.66-0.06,1.33-0.12,2-0.18c2.68-0.22,5.45-0.34,8.29-0.44c11.35-0.35,23.83-0.28,36.93-0.07
						c4.15,0.09,8.24,0.18,12.12,0.26l-0.26,0.23c3.01-23.75,5.67-44.79,7.58-59.91c0.98-7.53,1.76-13.58,2.3-17.78
						c0.21-2.14,1.16-3.59,1.88-4.4C442.93,214.44,443.44,214.17,443.44,214.17z"/>
				</g>
			</g>
			<g>
				<g>
					<path class="st4" d="M367.45,302.03c0,0.01,0.13,0.02,0.38,0.07c0.25,0.04,0.63,0.1,1.11,0.21c0.97,0.2,2.4,0.57,4.13,1.32
						c1.74,0.71,3.77,1.86,5.78,3.61c1.05,0.83,1.96,1.94,2.96,3.07c0.43,0.62,0.87,1.26,1.32,1.92c0.11,0.17,0.23,0.33,0.34,0.5
						l0.28,0.54c0.19,0.36,0.38,0.73,0.57,1.11c0.19,0.37,0.38,0.75,0.58,1.13c0.18,0.39,0.3,0.81,0.46,1.22
						c0.29,0.83,0.63,1.67,0.89,2.54c0.37,1.8,0.94,3.63,1.06,5.61c0.1,0.98,0.25,1.98,0.31,3c0.01,1.02,0.02,2.06,0.03,3.12
						c0.07,2.11-0.11,4.29-0.18,6.52c-0.4,8.93-1.04,18.74-1.83,29.02c-0.91,11.6-1.9,22.56-2.88,32.19l0.23-0.21
						c-12.56,0.11-23.16,0.2-30.64,0.26c-3.71,0.05-6.64,0.09-8.68,0.11c-0.98,0.02-1.75,0.04-2.3,0.05
						c-0.24,0.01-0.44,0.02-0.59,0.02c-0.13,0.01-0.2,0.01-0.2,0.02c0,0.01,0.07,0.01,0.2,0.02c0.15,0,0.35,0.01,0.59,0.02
						c0.55,0.01,1.32,0.01,2.3,0.02c2.04,0,4.98,0.01,8.68,0.02c7.49-0.02,18.08-0.04,30.64-0.07l0.21,0l0.02-0.21
						c1.01-9.63,2.02-20.6,2.93-32.2c0.79-10.29,1.42-20.1,1.79-29.04c0.06-2.24,0.24-4.41,0.16-6.54
						c-0.01-1.06-0.03-2.11-0.04-3.14c-0.06-1.03-0.22-2.04-0.32-3.03c-0.13-2-0.72-3.86-1.11-5.67c-0.27-0.89-0.62-1.73-0.91-2.57
						c-0.16-0.42-0.29-0.84-0.47-1.23c-0.2-0.39-0.4-0.77-0.6-1.15c-0.2-0.38-0.39-0.75-0.58-1.12l-0.29-0.55
						c-0.11-0.17-0.23-0.34-0.35-0.5c-0.46-0.66-0.92-1.31-1.36-1.94c-1.02-1.14-1.96-2.26-3.03-3.08
						c-2.06-1.76-4.13-2.89-5.89-3.58c-1.76-0.73-3.2-1.06-4.18-1.23c-0.49-0.09-0.87-0.14-1.12-0.16
						C367.58,302.02,367.45,302.03,367.45,302.03z"/>
				</g>
			</g>
			<g>
				<g>
					<path class="st4" d="M368.09,442.01c0.14,0,0.26-9.37,0.26-20.92c0-11.56-0.12-20.92-0.26-20.92s-0.26,9.36-0.26,20.92
						C367.82,432.65,367.94,442.01,368.09,442.01z"/>
				</g>
			</g>
		</g>
		<g>
			<g>
				<g>
					<path class="st1" d="M237.62,259.91l59.07,5.33c0.55,0.05,1.01,0.43,1.17,0.95l13.13,42.16c0.13,0.41,0.44,0.74,0.85,0.88
						l22.69,6.17c0.53,0.18,0.89,0.67,0.9,1.23c0.03,0.89-0.8,1.57-1.67,1.36l-24.41-5.17l-54.9-6.85c-0.5-0.06-0.92-0.38-1.11-0.85
						l-17.11-43.38C235.86,260.82,236.61,259.82,237.62,259.91z"/>
				</g>
				<g>
					<g>
						<path class="st4" d="M237.62,259.91c0,0-0.18-0.05-0.53,0.03c-0.32,0.09-0.87,0.42-0.98,1.14c-0.07,0.36,0.09,0.74,0.25,1.13
							c0.15,0.39,0.32,0.83,0.5,1.29c0.36,0.94,0.78,2.02,1.25,3.23c1.91,4.88,4.67,11.95,8.11,20.78
							c1.73,4.42,3.64,9.27,5.69,14.52c0.26,0.66,0.52,1.32,0.78,1.98l0.39,1.01c0.1,0.33,0.35,0.75,0.71,0.96
							c0.18,0.11,0.38,0.18,0.59,0.21l0.55,0.07l1.1,0.14c0.74,0.09,1.48,0.19,2.22,0.28c2.99,0.38,6.08,0.77,9.25,1.17
							c12.7,1.59,26.79,3.36,41.82,5.25l-0.02,0c4.16,0.88,8.4,1.78,12.7,2.7c2.15,0.46,4.32,0.92,6.5,1.38
							c1.09,0.23,2.18,0.46,3.28,0.7l1.65,0.35c0.25,0.05,0.61,0.15,0.94,0.07c0.33-0.06,0.64-0.23,0.87-0.47
							c0.38-0.39,0.53-0.97,0.4-1.49c-0.12-0.53-0.53-0.97-1.03-1.15l-0.01,0l-0.01,0c-7.76-2.11-15.34-4.17-22.69-6.17l0.02,0.01
							c-0.37-0.14-0.63-0.43-0.73-0.86l-0.42-1.35c-0.28-0.9-0.56-1.79-0.84-2.68c-0.56-1.78-1.11-3.55-1.65-5.3
							c-1.09-3.5-2.17-6.94-3.22-10.3c-2.1-6.73-4.12-13.19-6.03-19.3c-0.24-0.76-0.48-1.52-0.71-2.28
							c-0.14-0.38-0.18-0.73-0.42-1.16c-0.24-0.39-0.65-0.66-1.1-0.73c-1.55-0.14-3.09-0.28-4.59-0.41
							c-3.01-0.27-5.92-0.53-8.73-0.77c-5.62-0.5-10.82-0.96-15.55-1.37c-9.45-0.82-17.02-1.48-22.25-1.93
							c-2.59-0.22-4.6-0.38-5.98-0.5c-0.67-0.05-1.18-0.09-1.55-0.12C237.79,259.91,237.62,259.91,237.62,259.91
							s0.18,0.03,0.52,0.07c0.36,0.04,0.88,0.09,1.54,0.16c1.38,0.13,3.38,0.33,5.98,0.58c5.22,0.49,12.79,1.2,22.24,2.08
							c4.73,0.44,9.93,0.92,15.55,1.44c2.81,0.26,5.72,0.53,8.72,0.8c1.5,0.14,3.02,0.28,4.57,0.42c0.32,0.05,0.62,0.24,0.79,0.53
							c0.15,0.26,0.24,0.7,0.37,1.06c0.23,0.75,0.47,1.51,0.71,2.28c1.9,6.12,3.9,12.58,5.99,19.31c1.05,3.37,2.12,6.81,3.2,10.31
							c0.54,1.75,1.09,3.52,1.65,5.3c0.28,0.89,0.56,1.79,0.83,2.68l0.42,1.35c0.1,0.49,0.51,1.02,1.05,1.19l0.02,0l0,0
							c7.34,2,14.93,4.07,22.68,6.18l-0.02-0.01c0.34,0.12,0.62,0.42,0.7,0.78c0.08,0.36-0.02,0.75-0.27,1.01
							c-0.16,0.16-0.37,0.28-0.59,0.32c-0.23,0.05-0.43-0.01-0.73-0.07l-1.65-0.35c-1.1-0.23-2.19-0.46-3.28-0.7
							c-2.18-0.46-4.35-0.92-6.5-1.38c-4.3-0.91-8.54-1.81-12.71-2.69l-0.01,0l-0.01,0c-15.03-1.86-29.13-3.61-41.83-5.19
							c-3.17-0.39-6.26-0.77-9.25-1.14c-0.75-0.09-1.49-0.18-2.23-0.27l-1.1-0.14c-0.38-0.05-0.72-0.05-0.98-0.22
							c-0.28-0.17-0.43-0.41-0.55-0.76l-0.4-1c-0.26-0.67-0.53-1.33-0.78-1.98c-2.08-5.23-4-10.08-5.75-14.49
							c-3.51-8.8-6.31-15.85-8.25-20.72c-0.49-1.21-0.92-2.28-1.29-3.22c-0.19-0.46-0.36-0.89-0.52-1.28
							c-0.16-0.39-0.32-0.74-0.26-1.07c0.09-0.68,0.59-1.01,0.9-1.11C237.43,259.89,237.62,259.93,237.62,259.91z"/>
					</g>
				</g>
			</g>
			<g>
				<g>
					<path class="st4" d="M294.48,265.05c-0.02,0.01,0.02,0.18,0.09,0.5c0.1,0.38,0.22,0.85,0.37,1.41
						c0.33,1.22,0.83,2.99,1.48,5.16c1.28,4.34,3.14,10.32,5.24,16.9c2.09,6.55,3.99,12.47,5.39,16.85c0.67,2.1,1.22,3.83,1.63,5.11
						c0.19,0.55,0.34,1.01,0.46,1.38c0.11,0.31,0.18,0.48,0.2,0.47c0.02-0.01-0.02-0.18-0.09-0.5c-0.1-0.38-0.22-0.85-0.37-1.41
						c-0.33-1.22-0.83-2.99-1.48-5.16c-1.28-4.34-3.14-10.32-5.25-16.9c-2.09-6.55-3.99-12.47-5.39-16.85
						c-0.67-2.1-1.22-3.83-1.63-5.11c-0.19-0.55-0.34-1.01-0.46-1.38C294.57,265.21,294.5,265.04,294.48,265.05z"/>
				</g>
			</g>
			<g>
				<path class="st11" d="M271.81,282.26c0.86-0.03,1.48,0.21,2.31,1.08c0.59,0.62,1.02,1.54,0.64,2.31
					c-0.27,0.56-0.88,0.9-1.5,0.96c-0.62,0.05-1.24-0.15-1.78-0.46c-0.74-0.43-1.4-1.16-1.43-2.02
					C270.03,283.26,270.83,282.24,271.81,282.26z"/>
			</g>
		</g>
		<g>
			<g>
				<path class="st4" d="M279.05,263.33c0.03,0.01,0.2-0.43,0.47-1.24c0.3-0.91,0.68-2.06,1.14-3.44c0.96-2.9,2.34-6.89,3.99-11.24
					c1.66-4.35,3.29-8.25,4.5-11.05c0.57-1.33,1.06-2.44,1.44-3.32c0.34-0.79,0.51-1.23,0.48-1.24c-0.03-0.02-0.27,0.4-0.66,1.16
					c-0.4,0.76-0.94,1.87-1.59,3.26c-1.3,2.77-2.99,6.65-4.65,11.02c-1.66,4.37-2.98,8.38-3.86,11.32
					c-0.44,1.47-0.77,2.66-0.98,3.49C279.11,262.86,279.01,263.32,279.05,263.33z"/>
			</g>
		</g>
	</g>
</g>
<g id="Floor">
	<g>
		<g>
			<path class="st4" d="M34.02,479.17c0,0.14,97.15,0.26,216.97,0.26c119.86,0,216.99-0.12,216.99-0.26
				c0-0.14-97.13-0.26-216.99-0.26C131.17,478.91,34.02,479.03,34.02,479.17z"/>
		</g>
	</g>
</g>
</svg>
