<?xml version="1.0" encoding="utf-8"?>
<!-- Generator: Adobe Illustrator 23.0.1, SVG Export Plug-In . SVG Version: 6.00 Build 0)  -->
<svg version="1.1" id="Layer_5" xmlns="http://www.w3.org/2000/svg" xmlns:xlink="http://www.w3.org/1999/xlink" x="0px" y="0px"
	 viewBox="0 0 512 512" style="enable-background:new 0 0 512 512;" xml:space="preserve">
<style type="text/css">
	.st0{fill:#2A5BD7;}
</style>
<g>
	<g>
		<circle class="st0" cx="144" cy="304" r="72"/>
	</g>
	<g>
		<g>
			<path class="st0" d="M128,152H64c-13.23,0-24-10.77-24-24s10.77-24,24-24h64c13.23,0,24,10.77,24,24S141.23,152,128,152z"/>
		</g>
	</g>
	<g>
		<path d="M72,104h16v48H72V104z"/>
		<path d="M104,104h16v48h-16V104z"/>
		<path d="M464,312c-4.3,0-8.27,1.22-11.77,3.21c-2.85-4.5-7.14-7.92-12.23-9.74v-46.2c38.62-24.21,64-67.11,64-115.27
			C504,69.01,442.99,8,368,8c-48.54,0-91.1,25.64-115.17,64H32C18.77,72,8,82.77,8,96v320c0,13.23,10.77,24,24,24h283.36
			c4.03,14.3,11.62,27.42,22.41,38.22C354.39,494.84,376.5,504,400,504c48.52,0,88-39.48,88-88v-80C488,322.78,477.23,312,464,312
			L464,312z M424,305.47c-1.32,0.47-2.57,1.06-3.77,1.74C415.98,300.5,408.52,296,400,296c-2.82,0-5.49,0.58-8,1.47v-19.74
			c11.23-2,21.95-5.33,32-9.88V305.47z M348.92,225.61C340.93,219.66,336,210.28,336,200v-32c0-17.65,14.35-32,32-32
			c4.32,0,8.5,0.85,12.46,2.51l6.23-14.74c-5.93-2.5-12.22-3.77-18.69-3.77c-11.41,0-21.89,4.02-30.14,10.69
			c-1.2-3.4-1.86-6.98-1.86-10.69V88c0-17.65,14.35-32,32-32s32,14.35,32,32v32c0,17.65-14.35,32-32,32c-4.46,0-8.77-0.9-12.8-2.66
			L348.78,164c6.06,2.66,12.54,4,19.22,4c11.41,0,21.9-4.02,30.14-10.69c1.21,3.39,1.86,6.98,1.86,10.69v32
			c0,10.26-4.94,19.65-12.92,25.6c-4.38-5.79-11.27-9.6-19.08-9.6C360.18,216,353.3,219.81,348.92,225.61L348.92,225.61z M368,24
			c66.17,0,120,53.83,120,120c0,57.34-40.69,106.3-96,117.52v-20.03c14.72-8.51,24-24.18,24-41.49v-32c0-8.54-2.3-16.69-6.52-23.96
			c4.12-7.08,6.52-15.27,6.52-24.04V88c0-26.47-21.53-48-48-48s-48,21.53-48,48v32c0,8.54,2.31,16.68,6.53,23.94
			C322.4,151.03,320,159.23,320,168v32c0,17.32,9.28,33,24,41.5v20.02c-55.31-11.22-96-60.18-96-117.52C248,77.83,301.83,24,368,24
			L368,24z M32,88h212.21c-7.77,17.1-12.21,36.02-12.21,56c0,8.18,0.78,16.19,2.18,24H24V96C24,91.59,27.58,88,32,88z M32,424
			c-4.42,0-8-3.59-8-8V184h214.12c14.74,47.74,55.09,84.69,105.88,93.74v68.1c-7.42-6.05-16.75-9.84-27.06-9.84
			c-11.54,0-20.94,9.4-20.94,20.95c0,3.22,0.77,6.46,2.21,9.37l9.56,19.13c2.77,5.53,4.23,11.71,4.23,17.89v12.66
			c0,2.7,0.15,5.36,0.39,8.01H32z M472,416c0,39.7-32.3,72-72,72c-19.23,0-37.32-7.5-50.91-21.1c-13.6-13.6-21.09-31.68-21.09-50.92
			v-12.66c0-8.66-2.05-17.31-5.91-25.05l-9.56-19.12c-0.35-0.68-0.53-1.45-0.53-2.21c0-2.73,2.22-4.95,4.94-4.95
			c14.91,0,27.06,12.14,27.06,27.06V392v8h16v-8v-12.94V240c0-4.41,3.58-8,8-8s8,3.59,8,8v80v80h16v-80c0-4.41,3.58-8,8-8
			s8,3.59,8,8v8v72h16v-72c0-4.41,3.58-8,8-8s8,3.59,8,8v8v56v8h16v-8v-56c0-4.41,3.58-8,8-8c4.41,0,8,3.59,8,8V416z"/>
		<path d="M144,200c-57.34,0-104,46.66-104,104s46.66,104,104,104s104-46.66,104-104S201.34,200,144,200z M144,392
			c-8.6,0-17.76-12.22-24.07-32h48.15C161.76,379.78,152.6,392,144,392z M115.85,344c-1.95-9.67-3.26-20.42-3.68-32h63.66
			c-0.42,11.58-1.74,22.33-3.68,32H115.85z M56.41,312h39.77c0.37,11.35,1.47,22.1,3.27,32H65.71
			C60.7,334.23,57.44,323.44,56.41,312z M144,216c8.6,0,17.76,12.22,24.07,32h-48.15C126.24,228.22,135.4,216,144,216z M172.15,264
			c1.95,9.67,3.26,20.42,3.68,32h-63.66c0.42-11.58,1.74-22.33,3.68-32H172.15z M96.18,296H56.41c1.04-11.44,4.3-22.23,9.31-32
			h33.73C97.65,273.9,96.54,284.65,96.18,296z M191.82,312h39.77c-1.04,11.44-4.3,22.23-9.31,32h-33.73
			C190.35,334.1,191.46,323.35,191.82,312L191.82,312z M191.82,296c-0.37-11.35-1.47-22.1-3.27-32h33.73
			c5.01,9.77,8.27,20.56,9.31,32H191.82z M211.83,248h-26.98c-2.94-10.36-6.7-19.38-11.13-26.73
			C188.7,226.68,201.86,235.94,211.83,248z M114.29,221.27c-4.42,7.35-8.18,16.37-11.13,26.73H76.17
			C86.14,235.94,99.3,226.68,114.29,221.27z M76.17,360h26.98c2.94,10.36,6.7,19.38,11.13,26.73C99.3,381.32,86.14,372.06,76.17,360
			z M173.71,386.73c4.42-7.35,8.18-16.37,11.13-26.73h26.98C201.86,372.06,188.7,381.32,173.71,386.73z"/>
	</g>
</g>
</svg>
