<?xml version="1.0" encoding="utf-8"?>
<!-- Generator: Adobe Illustrator 23.0.1, SVG Export Plug-In . SVG Version: 6.00 Build 0)  -->
<svg version="1.1" id="Layer_1" xmlns="http://www.w3.org/2000/svg" xmlns:xlink="http://www.w3.org/1999/xlink" x="0px" y="0px"
	 viewBox="0 0 496 496" style="enable-background:new 0 0 496 496;" xml:space="preserve">
<style type="text/css">
	.st0{fill:#2A5BD7;}
</style>
<g>
	<path class="st0" d="M288,136c0,22.09-17.91,40-40,40s-40-17.91-40-40s17.91-40,40-40S288,113.91,288,136z"/>
	<path class="st0" d="M319.6,428.16l11.44,18.32c-17.84,23.84-45.92,39.76-77.68,41.36c-1.76,0.08-3.6,0.16-5.36,0.16
		s-3.6-0.08-5.36-0.16c-30-1.52-56.64-15.76-74.64-37.44c5.12-1.52,10.4-2.4,16-2.4h19.52c12.56,0,24-7.12,29.68-18.32
		c4.32-8.72,12.24-15.04,21.6-17.36l9.92-2.48c4.8-1.2,9.76-1.36,14.56-0.4l18.64,3.76C306.88,414.96,314.72,420.4,319.6,428.16z"/>
	<path class="st0" d="M351.92,380.88h-0.08c-8.08,6.96-18.48,11.12-29.92,11.12h-1.44c-5.6,0-11.04-1.28-16-3.76l-4.72-2.32
		c-6-3.04-10.96-7.68-14.4-13.2c-3.44-5.52-5.36-12.08-5.36-18.8c0-11.28-5.28-21.92-14.32-28.64l-3.36-2.56
		C253.28,316,248,305.36,248,294.08c0-4.88,0.8-9.52,2.16-14c45.76,0.88,84.24,31.28,97.12,72.96
		C350.08,361.92,351.68,371.2,351.92,380.88z"/>
	<path class="st0" d="M216,377.04v8.16c0,9.28-4.64,17.84-12.32,22.96l-4.72,3.2c-4.56,3.04-9.84,4.64-15.36,4.64
		c-9.68,0-18.64-5.12-23.68-13.44l-7.84-13.12c-2.08-3.44-4.8-6.24-7.92-8.4h-0.08c0.24-9.68,1.84-19.12,4.64-28
		c10-32.16,35.2-57.68,67.28-68v25.92c0,5.92-1.76,11.68-4.96,16.56c-6.72,10-6.72,22.96,0,32.96
		C214.24,365.36,216,371.12,216,377.04z"/>
	<path class="st0" d="M144,192H32V80h112V192z"/>
	<path class="st0" d="M464,192H352V80h112V192z"/>
</g>
<path d="M72,240h32v16H72V240z"/>
<path d="M456,0h-96c-12.05,0-22.73,5.46-30.08,13.92c-52.61-18.39-111.21-18.38-163.84,0C158.73,5.46,148.05,0,136,0H40
	C17.95,0,0,17.95,0,40v208c0,136.74,111.26,248,248,248s248-111.26,248-248V40C496,17.95,478.05,0,456,0z M480,208H336V64h144V208z
	 M360,16h96c13.23,0,24,10.77,24,24v8H336v-8C336,26.77,346.77,16,360,16z M322.01,28.11C320.82,31.89,320,35.83,320,40v208
	c0,22.05,17.95,40,40,40h40v18.89c0,9.62-5.71,18.27-14.54,22.07l-33.26,14.25c-15.42-39.25-52.33-67.69-96.2-70.81V158.53
	c9.29-3.31,16-12.11,16-22.53c0-13.23-10.77-24-24-24s-24,10.77-24,24c0,10.41,6.71,19.21,16,22.53v113.88
	c-43.87,3.12-80.78,31.56-96.2,70.81l-33.26-14.25c-8.83-3.8-14.54-12.46-14.54-22.07V288h40c22.05,0,40-17.95,40-40V40
	c0-4.17-0.82-8.12-2.02-11.9C221.65,12.12,274.37,12.13,322.01,28.11z M248,480c-52.94,0-96-43.06-96-96s43.06-96,96-96
	s96,43.06,96,96S300.94,480,248,480z M240,136c0-4.41,3.59-8,8-8s8,3.59,8,8s-3.59,8-8,8S240,140.41,240,136z M160,208H16V64h144
	V208z M40,16h96c13.23,0,24,10.77,24,24v8H16v-8C16,26.77,26.77,16,40,16z M16,224h144v24c0,13.23-10.77,24-24,24H40
	c-13.23,0-24-10.77-24-24V224z M18.46,281.6C24.7,285.61,32.05,288,40,288h40v18.89c0,16.03,9.51,30.46,24.24,36.77l34.79,14.9
	c-1.91,8.19-3.02,16.67-3.02,25.43c0,33.36,14.74,63.28,37.96,83.82C92.5,440.3,31.17,368.76,18.46,281.6z M322.04,467.82
	C345.26,447.28,360,417.36,360,384c0-8.76-1.11-17.25-3.02-25.43l34.79-14.9c14.73-6.31,24.24-20.74,24.24-36.77V288h40
	c7.95,0,15.3-2.39,21.54-6.4C464.83,368.76,403.5,440.3,322.04,467.82z M456,272h-96c-13.23,0-24-10.77-24-24v-24h144v24
	C480,261.23,469.23,272,456,272z"/>
<path d="M392,240h32v16h-32V240z"/>
<path d="M240,80h16v16h-16V80z"/>
<path d="M288,128h16v16h-16V128z"/>
<path d="M192,128h16v16h-16V128z"/>
</svg>
