<?xml version="1.0" encoding="utf-8"?>
<!-- Generator: Adobe Illustrator 23.0.1, SVG Export Plug-In . SVG Version: 6.00 Build 0)  -->
<svg version="1.1" xmlns="http://www.w3.org/2000/svg" xmlns:xlink="http://www.w3.org/1999/xlink" x="0px" y="0px"
	 viewBox="0 0 500 500" style="enable-background:new 0 0 500 500;" xml:space="preserve">
<style type="text/css">
	.st0{fill:#E0E0E0;}
	.st1{fill:#F5F5F5;}
	.st2{opacity:0.8;}
	.st3{fill-rule:evenodd;clip-rule:evenodd;fill:#EBEBEB;}
	.st4{display:none;}
	.st5{display:inline;fill:#F5F5F5;}
	.st6{fill:#263238;}
	.st7{fill:#FFFFFF;}
	.st8{fill:#2A5BD7;}
	.st9{opacity:0.3;}
	.st10{fill:#E8505B;}
	.st11{fill:#4D81E8;}
	.st12{fill:#FAFAFA;}
	.st13{opacity:0.98;}
	.st14{fill-rule:evenodd;clip-rule:evenodd;fill:#2A5BD7;}
	.st15{fill-rule:evenodd;clip-rule:evenodd;fill:#FFFFFF;}
	.st16{opacity:0.4;}
	.st17{fill:#FFBE9D;}
	.st18{fill:#EB996E;}
	.st19{fill:#455A64;}
	.st20{opacity:0.2;}
</style>
<g id="Background_Complete">
	<g>
		<g>
			<g>
				<g>
					<g>
						<path class="st0" d="M424.4,132.2c0,0,0.6,0,1.5,0.5c0.9,0.4,2.2,1.3,3,3c0.4,0.8,0.7,1.8,0.6,2.9c0,1.1-0.3,2.2-1,3.3
							c-0.3,0.5-0.7,1-1.2,1.4c-0.5,0.4-1,0.8-1.6,1c-1.2,0.6-2.7,0.7-4,0.4c-1.4-0.3-2.6-1.1-3.5-2.1c-0.4-0.5-0.8-1.1-1-1.6
							c-0.3-0.6-0.4-1.2-0.5-1.8c-0.2-1.2,0.1-2.4,0.5-3.4c0.4-1,1.1-1.8,1.8-2.4c1.4-1.2,3-1.5,4-1.5
							C423.9,132,424.4,132.2,424.4,132.2c0,0-0.6-0.1-1.6-0.1c-1,0-2.5,0.4-3.8,1.5c-0.7,0.6-1.3,1.3-1.7,2.3
							c-0.4,1-0.6,2.1-0.4,3.2c0.1,0.6,0.2,1.2,0.5,1.7c0.2,0.6,0.6,1.1,1,1.6c0.8,1,2,1.7,3.3,2c1.3,0.3,2.7,0.1,3.8-0.4
							c0.6-0.2,1.1-0.6,1.6-1c0.5-0.4,0.9-0.8,1.2-1.3c0.6-1,0.9-2.1,1-3.1c0.1-1-0.2-2-0.5-2.8c-0.7-1.6-1.9-2.6-2.8-3
							C425,132.3,424.4,132.2,424.4,132.2z"/>
					</g>
				</g>
			</g>
		</g>
		<g>
			<g>
				<g>
					<g>
						<path class="st0" d="M429.5,125.4c0,0,0-0.1,0-0.2c0-0.2,0-0.4,0-0.7c0-0.6,0-1.5,0-2.7l0,0.1c-1.5-0.3-3.4-0.7-5.8-1.3
							l0.1-0.1c-0.5,1-1,2.1-1.5,3.2l0,0.1l-0.1,0c-1.2,0.1-2.5,0.3-3.8,0.7l-0.1,0l-0.1-0.1c-0.8-0.8-1.6-1.6-2.5-2.5l0.2,0
							c-1.6,1-3.2,2.1-5,3.2l0.1-0.2c0.4,1,0.8,2.2,1.2,3.4l0,0.1l-0.1,0.1c-0.8,0.9-1.6,1.9-2.2,3.1l0,0.1l-0.1,0
							c-1.1,0-2.3,0-3.6,0l0.2-0.1c-0.4,1.8-0.8,3.8-1.3,5.8l-0.1-0.2c1,0.5,2.1,1,3.2,1.5l0.1,0l0,0.1c0,1.2,0.3,2.5,0.7,3.7l0,0.1
							l-0.1,0.1c-0.8,0.8-1.6,1.7-2.5,2.5l0-0.2c1,1.6,2.1,3.3,3.2,5l-0.2-0.1c1.1-0.4,2.2-0.8,3.4-1.2l0.1,0l0.1,0.1
							c0.9,0.8,1.9,1.6,3.1,2.2l0,0l0,0c0,0.1-0.1-0.2,0.1,0.2l0,0v0v0v0l0,0.1l0,0.1l0,0.2l0,0.4l0,0.9c0,0.6,0,1.2,0,1.8l-0.1-0.2
							c1.9,0.4,3.9,0.9,5.8,1.3l-0.2,0.1c0.5-1.1,1-2.2,1.5-3.2l0-0.1l0.1,0c1.3,0,2.5-0.3,3.7-0.6l0.1,0l0.1,0.1
							c0.9,0.9,1.7,1.7,2.5,2.5l-0.2,0c1.7-1.1,3.4-2.1,5-3.2l-0.1,0.2c-0.4-1.1-0.8-2.3-1.2-3.4l0-0.1l0.1-0.1c0.9-1,1.6-2,2.2-3.1
							l0-0.1h0.1c1.2,0,2.4,0,3.6,0l-0.1,0.1c0.5-2,0.9-3.9,1.3-5.8l0.1,0.2c-1.1-0.5-2.2-1-3.2-1.5l-0.1,0l0-0.1
							c-0.1-1.4-0.3-2.6-0.6-3.8l0-0.1l0.1-0.1c0.9-0.9,1.7-1.7,2.5-2.5l0,0.1c-1.2-1.9-2.3-3.6-3.1-5l0.1,0
							c-1.3,0.5-2.5,0.9-3.4,1.2l0,0l0,0c-0.9-0.9-1.8-1.4-2.3-1.8c-0.3-0.2-0.5-0.3-0.6-0.4C429.6,125.4,429.5,125.4,429.5,125.4
							c0,0,0.1,0,0.2,0.1c0.1,0.1,0.4,0.2,0.6,0.3c0.6,0.3,1.4,0.9,2.3,1.7l-0.1,0c0.9-0.3,2-0.7,3.4-1.2l0.1,0l0,0.1
							c0.9,1.4,2,3,3.2,5l0,0.1l-0.1,0.1c-0.8,0.8-1.6,1.6-2.5,2.5l0-0.1c0.4,1.2,0.6,2.4,0.7,3.8l-0.1-0.1c1,0.5,2.1,1,3.2,1.5
							l0.1,0l0,0.1c-0.4,1.8-0.8,3.7-1.3,5.8l0,0.1l-0.1,0c-1.2,0-2.3,0-3.6,0l0.1-0.1c-0.6,1.1-1.3,2.2-2.2,3.2l0-0.2
							c0.4,1.1,0.8,2.2,1.2,3.4l0,0.1l-0.1,0.1c-1.6,1-3.3,2.1-5,3.2l-0.1,0.1l-0.1-0.1c-0.8-0.8-1.7-1.7-2.5-2.5l0.2,0
							c-1.2,0.4-2.5,0.6-3.8,0.7l0.2-0.1c-0.5,1.1-1,2.1-1.5,3.2l-0.1,0.1l-0.1,0c-1.9-0.4-3.8-0.9-5.8-1.3l-0.1,0l0-0.1
							c0-0.6,0-1.2,0-1.8l0-0.9l0-0.4l0-0.2l0-0.1l0-0.1l0,0v0v0v0c0.2,0.3,0.1,0.1,0.1,0.2l0,0l0,0c-1.2-0.6-2.3-1.4-3.2-2.2l0.2,0
							c-1.2,0.4-2.3,0.8-3.4,1.2l-0.1,0l-0.1-0.1c-1.1-1.7-2.2-3.4-3.2-5l-0.1-0.1l0.1-0.1c0.9-0.9,1.7-1.7,2.5-2.5l0,0.2
							c-0.4-1.3-0.6-2.6-0.7-3.8l0.1,0.1c-1.1-0.5-2.2-1.1-3.2-1.5l-0.1-0.1l0-0.1c0.5-2,0.9-4,1.3-5.8l0-0.1l0.1,0
							c1.2,0,2.5,0,3.6,0l-0.1,0.1c0.6-1.2,1.4-2.3,2.2-3.2l0,0.2c-0.4-1.2-0.8-2.3-1.2-3.4l0-0.1l0.1-0.1c1.8-1.1,3.4-2.2,5-3.1
							l0.1-0.1l0.1,0.1c0.9,0.9,1.7,1.7,2.5,2.5l-0.1,0c1.3-0.4,2.6-0.6,3.8-0.7l-0.1,0.1c0.6-1.2,1.1-2.2,1.5-3.2l0-0.1l0.1,0
							c2.3,0.5,4.3,1,5.8,1.3l0,0l0,0c0,1.1,0,2,0,2.6c0,0.3,0,0.5,0,0.7C429.5,125.3,429.5,125.4,429.5,125.4z"/>
					</g>
				</g>
			</g>
		</g>
	</g>
	<g>
		<g>
			<g>
				<path class="st0" d="M464.5,413.4c0,0,0-0.4,0-1.1c0-0.7,0-1.8,0-3.2c0-2.8,0-6.8,0-12.1c0-10.4-0.1-25.5-0.1-43.9l0.2,0.2
					c-27.9,0-64.4,0-104.1,0h0l0.2-0.2c0,21.3,0,41.7,0,60.2l-0.2-0.2c30.5,0,56.5,0.1,74.9,0.1c9.2,0,16.5,0,21.5,0.1
					c2.5,0,4.4,0,5.7,0c0.6,0,1.1,0,1.5,0C464.3,413.4,464.5,413.4,464.5,413.4s-0.2,0-0.5,0c-0.3,0-0.8,0-1.5,0c-1.3,0-3.2,0-5.7,0
					c-5,0-12.3,0-21.5,0.1c-18.4,0-44.5,0.1-75,0.1l-0.2,0v-0.2c0-18.6,0-38.9,0-60.2V353h0.2h0c39.7,0,76.2,0,104.1,0l0.2,0l0,0.2
					c0,18.5-0.1,33.6-0.1,44c0,5.2,0,9.3,0,12c0,1.4,0,2.4,0,3.1C464.5,413.1,464.5,413.4,464.5,413.4z"/>
			</g>
		</g>
		<g>
			<g>
				<path class="st0" d="M464.5,360.5c0,0.1-23.3,0.2-52,0.2c-28.7,0-52-0.1-52-0.2c0-0.1,23.3-0.2,52-0.2
					C441.2,360.3,464.5,360.4,464.5,360.5z"/>
			</g>
		</g>
		<g>
			<rect x="369.3" y="370.4" class="st1" width="32.2" height="32.2"/>
		</g>
		<g>
			<g>
				<g>
					<path class="st0" d="M456.9,375.7c0,0-0.2,0-0.5,0c-0.4,0-0.8,0-1.4,0c-1.2,0-2.9,0-5,0.1c-4.3,0-10.1,0-16.5,0.1
						c-6.4,0-12.2,0-16.5-0.1c-2.1,0-3.8-0.1-5-0.1c-0.6,0-1,0-1.4,0c-0.3,0-0.5,0-0.5,0c0,0,0.2,0,0.5,0c0.4,0,0.8,0,1.4,0
						c1.2,0,2.9,0,5-0.1c4.3,0,10.1,0,16.5-0.1c6.4,0,12.2,0,16.5,0.1c2.1,0,3.8,0.1,5,0.1c0.6,0,1,0,1.4,0
						C456.7,375.7,456.9,375.7,456.9,375.7z"/>
				</g>
			</g>
			<g>
				<g>
					<path class="st0" d="M457.9,382.9c0,0-0.2,0-0.5,0c-0.4,0-0.8,0-1.4,0c-1.3,0-3,0-5.1,0.1c-4.4,0-10.3,0-16.8,0.1
						c-6.5,0-12.5,0-16.8-0.1c-2.1,0-3.8-0.1-5.1-0.1c-0.6,0-1,0-1.4,0c-0.3,0-0.5,0-0.5,0c0,0,0.2,0,0.5,0c0.4,0,0.8,0,1.4,0
						c1.3,0,3,0,5.1-0.1c4.4,0,10.3,0,16.8-0.1c6.5,0,12.5,0,16.8,0.1c2.1,0,3.8,0.1,5.1,0.1c0.6,0,1,0,1.4,0
						C457.8,382.9,457.9,382.9,457.9,382.9z"/>
				</g>
			</g>
			<g>
				<g>
					<path class="st0" d="M457.9,390.1c0,0-0.2,0-0.5,0c-0.4,0-0.8,0-1.4,0c-1.3,0-3,0-5.1,0.1c-4.4,0-10.3,0-16.8,0.1
						c-6.5,0-12.5,0-16.8-0.1c-2.1,0-3.8-0.1-5.1-0.1c-0.6,0-1,0-1.4,0c-0.3,0-0.5,0-0.5,0s0.2,0,0.5,0c0.4,0,0.8,0,1.4,0
						c1.3,0,3,0,5.1-0.1c4.4,0,10.3,0,16.8-0.1c6.5,0,12.5,0,16.8,0.1c2.1,0,3.8,0.1,5.1,0.1c0.6,0,1,0,1.4,0
						C457.8,390.1,457.9,390.1,457.9,390.1z"/>
				</g>
			</g>
			<g>
				<g>
					<path class="st0" d="M457.9,397.3c0,0-0.2,0-0.5,0c-0.4,0-0.8,0-1.4,0c-1.3,0-3,0-5.1,0.1c-4.4,0-10.3,0-16.8,0.1
						c-6.5,0-12.5,0-16.8-0.1c-2.1,0-3.8-0.1-5.1-0.1c-0.6,0-1,0-1.4,0c-0.3,0-0.5,0-0.5,0c0,0,0.2,0,0.5,0c0.4,0,0.8,0,1.4,0
						c1.3,0,3,0,5.1-0.1c4.4,0,10.3,0,16.8-0.1c6.5,0,12.5,0,16.8,0.1c2.1,0,3.8,0.1,5.1,0.1c0.6,0,1,0,1.4,0
						C457.8,397.3,457.9,397.3,457.9,397.3z"/>
				</g>
			</g>
		</g>
	</g>
	<g>
		<g>
			
				<ellipse transform="matrix(0.7071 -0.7071 0.7071 0.7071 -11.8855 140.2366)" class="st1" cx="163.3" cy="84.5" rx="43.3" ry="43.3"/>
		</g>
		<g>
			<g>
				<path class="st0" d="M183,85.8c0,0-0.5,0.1-1.5,0.1c-1.1,0-2.5,0.1-4.2,0.1c-3.6,0-8.5,0.1-14.2,0.1l-0.3,0l0-0.3
					c0-0.9,0-1.8,0-2.8c0-6.3,0-11.9,0.1-16.1c0-2,0.1-3.6,0.1-4.9c0-1.1,0.1-1.8,0.1-1.8c0,0,0.1,0.6,0.1,1.8
					c0,1.2,0.1,2.9,0.1,4.9c0.1,4.1,0.1,9.8,0.1,16.1c0,1,0,1.9,0,2.8l-0.3-0.3c5.6,0,10.6,0,14.2,0.1c1.7,0,3.1,0.1,4.2,0.1
					C182.4,85.7,183,85.8,183,85.8z"/>
			</g>
		</g>
		<g>
			<g>
				<path class="st0" d="M163.2,48.3c0.2,0,0.3,1.6,0.3,3.6c0,2-0.1,3.6-0.3,3.6c-0.2,0-0.3-1.6-0.3-3.6
					C162.9,49.9,163.1,48.3,163.2,48.3z"/>
			</g>
		</g>
		<g>
			<g>
				<path class="st0" d="M182.9,54.1c0.1,0.1-0.9,1.3-2.3,2.7c-1.4,1.4-2.6,2.4-2.7,2.3c-0.1-0.1,0.9-1.3,2.3-2.7
					C181.6,55.1,182.8,54,182.9,54.1z"/>
			</g>
		</g>
		<g>
			<g>
				<path class="st0" d="M194.5,66.7c0.1,0.1-1.3,1-3,2c-1.7,1-3,1.9-3.1,1.7c-0.1-0.1,1.1-1.2,2.8-2.2
					C192.9,67.2,194.4,66.6,194.5,66.7z"/>
			</g>
		</g>
		<g>
			<g>
				<path class="st0" d="M201.2,85.4c0,0.2-2.2,0.3-5,0.3c-2.7,0-5-0.1-5-0.3c0-0.2,2.2-0.3,5-0.3C199,85.1,201.2,85.3,201.2,85.4z"
					/>
			</g>
		</g>
		<g>
			<g>
				<path class="st0" d="M132.5,84.8c0,0.2-2.1,0.3-4.7,0.3c-2.6,0-4.7-0.1-4.7-0.3c0-0.2,2.1-0.3,4.7-0.3
					C130.4,84.5,132.5,84.6,132.5,84.8z"/>
			</g>
		</g>
		<g>
			<g>
				<path class="st0" d="M137.4,98.7c0.1,0.1-1.5,1.6-3.5,3.2c-2.1,1.7-3.8,2.9-3.9,2.8c-0.1-0.1,1.5-1.6,3.5-3.2
					C135.5,99.8,137.3,98.6,137.4,98.7z"/>
			</g>
		</g>
		<g>
			<g>
				<path class="st0" d="M149.3,109.4c0.1,0.1-1,1.9-2.4,4.2c-1.4,2.3-2.4,4.2-2.6,4.1c-0.1-0.1,0.7-2.1,2.1-4.4
					C147.8,111,149.2,109.3,149.3,109.4z"/>
			</g>
		</g>
		<g>
			<g>
				<path class="st0" d="M163.2,123.3c-0.2,0-0.3-2.2-0.3-5c0-2.7,0.1-5,0.3-5c0.2,0,0.3,2.2,0.3,5
					C163.5,121.1,163.4,123.3,163.2,123.3z"/>
			</g>
		</g>
		<g>
			<g>
				<path class="st0" d="M184.6,116.7c-0.1,0.1-2-1-4.1-2.8c-2.1-1.8-3.4-3.6-3.3-3.7c0.1-0.1,1.7,1.5,3.7,3.2
					C182.9,115.3,184.7,116.6,184.6,116.7z"/>
			</g>
		</g>
		<g>
			<g>
				<path class="st0" d="M194.6,105.9c-0.1,0.1-1.6-1.2-3.3-2.9c-1.7-1.7-3-3.2-2.9-3.3c0.1-0.1,1.6,1.2,3.3,2.9
					C193.4,104.3,194.7,105.8,194.6,105.9z"/>
			</g>
		</g>
		<g>
			<g>
				<path class="st0" d="M136.9,71.4c-0.1,0.1-1.4-1-2.9-2.5c-1.5-1.5-2.6-2.8-2.5-2.9c0.1-0.1,1.4,1,2.9,2.5
					C135.9,70,137,71.3,136.9,71.4z"/>
			</g>
		</g>
		<g>
			<g>
				<path class="st0" d="M149.3,58.4c-0.1,0.1-1.4-1-2.8-2.4c-1.5-1.5-2.6-2.7-2.5-2.8c0.1-0.1,1.4,1,2.8,2.4
					C148.3,57,149.4,58.3,149.3,58.4z"/>
			</g>
		</g>
	</g>
	<g class="st2">
		<g>
			<g>
				<path class="st3" d="M398.7,62.3c2.3,1.2,4.4,2.7,6.2,4.4l6.7-2.4l6.3,9.9l-5,5c0.8,2.4,1.2,4.9,1.3,7.5l6.4,3l-2.6,11.4l-7.1,0
					c-1.2,2.3-2.7,4.4-4.4,6.2l2.4,6.7l-9.9,6.3l-5-5c-2.4,0.8-4.9,1.2-7.5,1.3l-3,6.4l-11.4-2.6l0-7.1c-2.3-1.2-4.4-2.7-6.2-4.4
					l-6.7,2.4l-6.3-9.9l5-5c-0.8-2.4-1.2-4.9-1.3-7.5l-6.4-3l2.6-11.4l7.1,0c1.2-2.3,2.7-4.4,4.4-6.2l-2.4-6.7l9.9-6.3l5,5
					c2.4-0.8,4.9-1.2,7.5-1.3l3-6.4l11.4,2.6L398.7,62.3L398.7,62.3z M388.7,75.7c-6.8-1.5-13.5,2.7-15,9.5
					c-1.5,6.8,2.7,13.5,9.5,15c6.8,1.5,13.5-2.7,15-9.5C399.7,83.9,395.4,77.2,388.7,75.7z"/>
			</g>
		</g>
	</g>
	<g>
		<path class="st1" d="M63.7,162.6h74c0,0-6.5-11.9-25.6-10.2c-18.2,1.7-19.1-5.9-28.4-6.8C74.5,144.7,66.8,151.8,63.7,162.6z"/>
	</g>
	<g>
		<path class="st1" d="M223.8,297.1h59.9c0,0-5.3-9.6-20.7-8.2c-14.7,1.3-15.5-4.7-23-5.5C232.5,282.6,226.3,288.3,223.8,297.1z"/>
	</g>
</g>
<g id="Background_Simple" class="st4">
	<path class="st5" d="M409,78l-2.1-3.4c-17.9-29.1-50.1-46.6-84.2-44.5c-4.4,0.3-8.7,0.9-13,1.8c-31,6.5-57.9,29.7-69,59.3
		c-6.6,17.4-8.4,37.5-20.9,51.3c-16.2,18-43.7,18.5-67.9,17.8c-24.2-0.7-51.8-0.1-67.9,17.9c-10.1,11.3-13.3,27.4-12.5,42.5
		c2.2,40.1,30.4,75.9,66.4,93.8c36,17.8,78.3,19.4,117.7,11.6c55.2-11,107.6-41.1,139.2-87.7S434.2,128.2,409,78z"/>
	<path class="st5" d="M188.1,88.8c-6-6.8-18.5-10.6-27.6-9.5l0,0c-8.3-0.2-16.6,3.7-21.7,10.2c-5.1,6.5-6.9,15.5-4.7,23.5
		c3.4,12.3,15.4,20.7,27.9,23.1c8,1.5,16.8,0.8,23.4-4c6.4-4.7,9.8-12.7,10.7-20.6C197,102.4,194.1,95.6,188.1,88.8z"/>
</g>
<g id="Floor">
	<g>
		<path class="st6" d="M480.1,444.8c0,0.1-103,0.3-230.1,0.3c-127.1,0-230.2-0.1-230.2-0.3c0-0.1,103-0.3,230.2-0.3
			C377.1,444.6,480.1,444.7,480.1,444.8z"/>
	</g>
</g>
<g id="Screens">
	<g>
		<g>
			<g>
				<rect x="309.9" y="145.1" class="st7" width="145.3" height="97.3"/>
			</g>
			<g>
				<g>
					<path class="st8" d="M455.2,242.4c0,0,0-0.6,0-1.8c0-1.2,0-2.9,0-5.1c0-4.5,0-11.1-0.1-19.6c0-16.9-0.1-41.2-0.1-70.8l0.2,0.2
						c-40,0-90.5,0-145.3,0.1h0l0.3-0.3c0,34.7,0,67.6,0,97.3l-0.2-0.2c42.8,0,79.1,0.1,104.7,0.1c12.8,0,23,0,29.9,0.1
						c3.5,0,6.1,0,8,0c0.9,0,1.6,0,2.1,0C454.9,242.4,455.2,242.4,455.2,242.4s-0.2,0-0.7,0c-0.5,0-1.1,0-2,0c-1.8,0-4.5,0-7.9,0
						c-6.9,0-17.1,0-29.8,0.1c-25.6,0-62,0.1-104.8,0.1l-0.2,0v-0.2c0-29.7,0-62.6,0-97.3l0-0.3h0.3h0c54.7,0,105.2,0,145.3,0.1
						l0.2,0l0,0.2c0,29.7-0.1,54-0.1,70.9c0,8.4,0,15-0.1,19.5c0,2.2,0,3.9,0,5.1C455.2,241.8,455.2,242.4,455.2,242.4z"/>
				</g>
			</g>
		</g>
		<g>
			<g>
				<path class="st8" d="M309.9,153.8c0-0.1,32.5-0.3,72.6-0.3c40.1,0,72.6,0.1,72.6,0.3s-32.5,0.3-72.6,0.3
					C342.4,154.1,309.9,153.9,309.9,153.8z"/>
			</g>
		</g>
		<g>
			<g class="st9">
				<path class="st8" d="M315.6,149.4c0,0.6-0.5,1.2-1.2,1.2s-1.2-0.5-1.2-1.2c0-0.6,0.5-1.2,1.2-1.2S315.6,148.8,315.6,149.4z"/>
			</g>
			<g class="st9">
				<path class="st8" d="M319.6,149.4c0,0.6-0.5,1.2-1.2,1.2c-0.6,0-1.2-0.5-1.2-1.2c0-0.6,0.5-1.2,1.2-1.2
					C319.1,148.3,319.6,148.8,319.6,149.4z"/>
			</g>
			<g class="st9">
				<path class="st8" d="M323.6,149.4c0,0.6-0.5,1.2-1.2,1.2c-0.6,0-1.2-0.5-1.2-1.2c0-0.6,0.5-1.2,1.2-1.2
					C323,148.3,323.6,148.8,323.6,149.4z"/>
			</g>
		</g>
		<g class="st9">
			<rect x="322.4" y="164" class="st8" width="38.8" height="38.8"/>
		</g>
		<g>
			<g>
				<path class="st8" d="M435.3,174.9c0,0.1-15.1,0.3-33.8,0.3c-18.6,0-33.8-0.1-33.8-0.3s15.1-0.3,33.8-0.3
					C420.2,174.6,435.3,174.8,435.3,174.9z"/>
			</g>
		</g>
		<g>
			<g>
				<path class="st8" d="M435.3,182.1c0,0.1-15.1,0.3-33.8,0.3c-18.6,0-33.8-0.1-33.8-0.3c0-0.1,15.1-0.3,33.8-0.3
					C420.2,181.8,435.3,182,435.3,182.1z"/>
			</g>
		</g>
		<g>
			<g>
				<path class="st8" d="M435.3,189.3c0,0.1-15.1,0.3-33.8,0.3c-18.6,0-33.8-0.1-33.8-0.3s15.1-0.3,33.8-0.3
					C420.2,189,435.3,189.2,435.3,189.3z"/>
			</g>
		</g>
		<g>
			<g>
				<path class="st8" d="M407.7,196.5c0,0-0.6,0.1-1.6,0.1c-1.1,0-2.5,0-4.3,0.1c-3.6,0-8.6,0.1-14.1,0.1c-5.5,0-10.5,0-14.1-0.1
					c-1.7,0-3.2-0.1-4.3-0.1c-1,0-1.6-0.1-1.6-0.1c0,0,0.6-0.1,1.6-0.1c1.1,0,2.5,0,4.3-0.1c3.6,0,8.6-0.1,14.1-0.1
					c5.5,0,10.5,0,14.1,0.1c1.7,0,3.2,0.1,4.3,0.1C407.1,196.4,407.7,196.5,407.7,196.5z"/>
			</g>
		</g>
		<g class="st9">
			<rect x="324.8" y="215.8" class="st10" width="18.2" height="18.2"/>
		</g>
		<g class="st9">
			<rect x="357.9" y="215.8" class="st8" width="18.2" height="18.2"/>
		</g>
		<g class="st9">
			<rect x="390.9" y="215.8" class="st8" width="18.2" height="18.2"/>
		</g>
		<g class="st9">
			<rect x="423.9" y="215.8" class="st8" width="18.2" height="18.2"/>
		</g>
	</g>
	<g>
		<g>
			<g>
				<rect x="44.2" y="180.2" class="st7" width="129.4" height="52.6"/>
			</g>
			<g>
				<g>
					<path class="st8" d="M173.6,232.7c0,0,0-0.3,0-0.9c0-0.6,0-1.5,0-2.7c0-2.4,0-5.9,0-10.5c0-9.1,0-22.2-0.1-38.4l0.1,0.1
						c-32.9,0-78.8,0-129.4,0.1h0l0.2-0.2c0,18.4,0,36.2,0,52.6l-0.2-0.2c37.5,0,69.8,0.1,92.8,0.1c11.5,0,20.6,0,26.9,0.1
						c3.1,0,5.6,0,7.2,0c0.8,0,1.4,0,1.9,0C173.4,232.7,173.6,232.7,173.6,232.7s-0.2,0-0.6,0c-0.4,0-1,0-1.8,0c-1.6,0-4,0-7.2,0
						c-6.3,0-15.4,0-26.9,0.1c-23,0-55.4,0.1-92.9,0.1l-0.2,0v-0.2c0-16.4,0-34.2,0-52.6V180h0.2h0c50.7,0,96.5,0,129.4,0.1l0.1,0
						l0,0.1c0,16.3-0.1,29.4-0.1,38.5c0,4.5,0,8,0,10.4c0,1.2,0,2.1,0,2.7C173.6,232.4,173.6,232.7,173.6,232.7z"/>
				</g>
			</g>
		</g>
		<g>
			<g>
				<path class="st8" d="M44.3,187.3c0-0.1,28.9-0.2,64.6-0.2c35.7,0,64.6,0.1,64.6,0.2c0,0.1-28.9,0.2-64.6,0.2
					C73.3,187.5,44.3,187.4,44.3,187.3z"/>
			</g>
		</g>
		<g>
			<g class="st9">
				<path class="st8" d="M49.8,184.1c0,0.5-0.4,0.9-0.9,0.9c-0.5,0-0.9-0.4-0.9-0.9c0-0.5,0.4-0.9,0.9-0.9
					C49.3,183.1,49.8,183.6,49.8,184.1z"/>
			</g>
			<g class="st9">
				<path class="st8" d="M53,184.1c0,0.5-0.4,0.9-0.9,0.9c-0.5,0-0.9-0.4-0.9-0.9c0-0.5,0.4-0.9,0.9-0.9
					C52.6,183.1,53,183.6,53,184.1z"/>
			</g>
			<g class="st9">
				<path class="st8" d="M56.1,184.1c0,0.5-0.4,0.9-0.9,0.9c-0.5,0-0.9-0.4-0.9-0.9c0-0.5,0.4-0.9,0.9-0.9
					C55.7,183.1,56.1,183.6,56.1,184.1z"/>
			</g>
		</g>
		<g class="st9">
			<rect x="55.2" y="195.8" class="st8" width="31.3" height="31.3"/>
		</g>
		<g>
			<g>
				<g>
					<path class="st8" d="M164.7,204.2c0,0.1-16.1,0.2-35.9,0.2c-19.8,0-35.9-0.1-35.9-0.2c0-0.1,16.1-0.2,35.9-0.2
						C148.6,204,164.7,204.1,164.7,204.2z"/>
				</g>
			</g>
			<g>
				<g>
					<path class="st8" d="M164.7,210.5c0,0.1-16.1,0.2-35.9,0.2c-19.8,0-35.9-0.1-35.9-0.2c0-0.1,16.1-0.2,35.9-0.2
						C148.6,210.3,164.7,210.4,164.7,210.5z"/>
				</g>
			</g>
			<g>
				<g>
					<path class="st8" d="M139.1,216.9c0,0-0.2,0-0.5,0c-0.4,0-0.8,0-1.3,0c-1.2,0-2.9,0-5,0.1c-4.2,0-10,0-16.4,0.1
						c-6.4,0-12.1,0-16.4-0.1c-2.1,0-3.7,0-5-0.1c-0.5,0-1,0-1.3,0c-0.3,0-0.5,0-0.5,0c0,0,0.2,0,0.5,0c0.4,0,0.8,0,1.3,0
						c1.2,0,2.9,0,5-0.1c4.2,0,10,0,16.4-0.1c6.4,0,12.1,0,16.4,0.1c2.1,0,3.7,0,5,0.1c0.5,0,1,0,1.3,0
						C138.9,216.9,139.1,216.9,139.1,216.9z"/>
				</g>
			</g>
		</g>
	</g>
</g>
<g id="Rocket">
	<path class="st1" d="M268.7,114.1c-2.2-1.4-5.1-0.6-7.3,0.9c-2.2,1.4-4,3.4-6.5,4.4c-4.6,1.8-10.5-0.3-14.1,3
		c-2.3,2.1-2.5,5.7-4.2,8.2c-2.9,4.4-9.9,6-10.4,11.2c-0.3,3,2.1,5.9,5,6.8c2.9,0.9,6.2,0,8.7-1.7c3-2,5.3-5,8.7-6.1
		c3.5-1.1,7.7-0.2,10.5-2.6c2.7-2.4,2.3-6.9,4.3-9.9c1-1.6,2.7-2.8,4.2-4.1s2.9-2.8,3.1-4.8C270.8,117.5,270.1,114.2,268.7,114.1"/>
	<g>
		<g>
			<path class="st6" d="M212.4,326.6c0.1-0.1,0.5,0.3,0.9,0.9c0.4,0.6,0.6,1.1,0.5,1.2c-0.1,0.1-0.5-0.3-0.9-0.9
				C212.5,327.2,212.3,326.6,212.4,326.6z"/>
		</g>
		<g>
			<path class="st6" d="M208.1,317.5c0.1,0,0.7,0.9,1.2,2.2c0.5,1.3,0.8,2.4,0.7,2.4c-0.1,0.1-0.7-0.9-1.2-2.2
				C208.3,318.7,208,317.6,208.1,317.5z"/>
		</g>
		<g>
			<path class="st6" d="M205.8,307.8c0.1,0,0.5,1.1,0.7,2.4c0.3,1.4,0.3,2.5,0.2,2.5c-0.1,0-0.5-1-0.7-2.4
				C205.7,309,205.6,307.8,205.8,307.8z"/>
		</g>
		<g>
			<path class="st6" d="M205.4,297.8c0.1,0,0.2,1.1,0.2,2.5c0,1.4-0.2,2.5-0.3,2.5c-0.1,0-0.2-1.1-0.2-2.5
				C205.2,298.9,205.3,297.8,205.4,297.8z"/>
		</g>
		<g>
			<path class="st6" d="M207,288c0.1,0,0,1.2-0.3,2.5c-0.3,1.3-0.6,2.4-0.8,2.4c-0.1,0,0-1.1,0.3-2.5C206.6,289,206.9,287.9,207,288
				z"/>
		</g>
		<g>
			<path class="st6" d="M210.6,278.6c0.1,0.1-0.2,1.1-0.8,2.4c-0.6,1.3-1.1,2.2-1.3,2.2c-0.1-0.1,0.2-1.1,0.8-2.4
				C209.9,279.6,210.5,278.6,210.6,278.6z"/>
		</g>
		<g>
			<path class="st6" d="M216.2,270.3c0.1,0.1-0.5,1.1-1.3,2.2c-0.8,1.1-1.6,1.9-1.7,1.9c-0.1-0.1,0.4-1.1,1.3-2.2
				C215.3,271.1,216,270.2,216.2,270.3z"/>
		</g>
		<g>
			<path class="st6" d="M222.9,262.9c0.1,0.1-0.6,1-1.5,2c-1,1-1.8,1.7-1.9,1.6s0.6-1,1.5-2C221.9,263.5,222.8,262.8,222.9,262.9z"
				/>
		</g>
		<g>
			<path class="st6" d="M229.9,255.8c0.1,0.1-0.6,1-1.6,2c-1,1-1.8,1.7-1.9,1.6c-0.1-0.1,0.6-1,1.6-2
				C228.9,256.4,229.8,255.7,229.9,255.8z"/>
		</g>
		<g>
			<path class="st6" d="M236.5,248.3c0.1,0.1-0.5,1-1.4,2.1c-0.9,1.1-1.7,1.9-1.8,1.8c-0.1-0.1,0.5-1,1.4-2.1
				C235.6,249,236.4,248.2,236.5,248.3z"/>
		</g>
		<g>
			<path class="st6" d="M241.6,239.7c0.1,0.1-0.2,1.1-0.8,2.4c-0.6,1.2-1.3,2.1-1.5,2.1c-0.1-0.1,0.4-1.1,1-2.3
				C240.9,240.6,241.5,239.6,241.6,239.7z"/>
		</g>
		<g>
			<path class="st6" d="M244,230c0.1,0,0.2,1.1-0.1,2.5c-0.2,1.4-0.6,2.4-0.8,2.4c-0.1,0,0-1.1,0.3-2.5
				C243.7,231.1,243.9,230,244,230z"/>
		</g>
		<g>
			<path class="st6" d="M243.3,220.1c0.1,0,0.5,1,0.7,2.4c0.2,1.4,0.2,2.5,0,2.5c-0.1,0-0.3-1.1-0.5-2.4
				C243.3,221.2,243.1,220.1,243.3,220.1z"/>
		</g>
		<g>
			<path class="st6" d="M239.4,210.9c0.1-0.1,0.9,0.8,1.5,2c0.7,1.2,1,2.3,0.9,2.4c-0.1,0.1-0.7-0.9-1.3-2.1
				C239.8,212,239.2,211,239.4,210.9z"/>
		</g>
		<g>
			<path class="st6" d="M232.4,203.8c0.1-0.1,1.1,0.4,2.2,1.3c1.1,0.9,1.8,1.8,1.7,1.9c-0.1,0.1-1-0.6-2-1.5
				C233.2,204.7,232.3,203.9,232.4,203.8z"/>
		</g>
		<g>
			<path class="st6" d="M223.3,199.8c0-0.1,1.2,0,2.5,0.5c1.3,0.5,2.3,1,2.2,1.2c-0.1,0.1-1.1-0.2-2.4-0.7
				C224.3,200.3,223.3,199.9,223.3,199.8z"/>
		</g>
		<g>
			<path class="st6" d="M213.4,199.3c0-0.1,1.1-0.4,2.5-0.5c1.4-0.1,2.5,0.1,2.5,0.3c0,0.1-1.1,0.2-2.5,0.3
				C214.5,199.4,213.4,199.5,213.4,199.3z"/>
		</g>
		<g>
			<path class="st6" d="M204.1,203c-0.1-0.1,0.8-0.9,2-1.5c1.2-0.7,2.3-1,2.4-0.8c0.1,0.1-0.9,0.6-2.1,1.3
				C205.2,202.6,204.2,203.1,204.1,203z"/>
		</g>
		<g>
			<path class="st6" d="M197.3,210.2c-0.1-0.1,0.4-1.1,1.2-2.2c0.9-1.1,1.7-1.8,1.8-1.7c0.1,0.1-0.6,1-1.4,2.1
				C198.1,209.4,197.4,210.3,197.3,210.2z"/>
		</g>
		<g>
			<path class="st6" d="M193.9,219.5c-0.1,0-0.1-1.2,0.2-2.5c0.3-1.4,0.8-2.4,1-2.3c0.1,0.1-0.2,1.1-0.5,2.5
				C194.3,218.4,194,219.5,193.9,219.5z"/>
		</g>
		<g>
			<path class="st6" d="M195.1,229.4c-0.1,0.1-0.6-1-1-2.3c-0.3-1.4-0.3-2.5-0.2-2.5c0.1,0,0.4,1.1,0.7,2.4
				C194.9,228.2,195.2,229.3,195.1,229.4z"/>
		</g>
		<g>
			<path class="st6" d="M200.1,237.9c-0.1,0.1-0.9-0.7-1.7-1.8c-0.8-1.1-1.3-2.2-1.2-2.2c0.1-0.1,0.8,0.8,1.6,1.9
				C199.6,236.9,200.3,237.8,200.1,237.9z"/>
		</g>
		<g>
			<path class="st6" d="M207.5,244.7c-0.1,0.1-1.1-0.4-2.2-1.3c-1.1-0.9-1.8-1.7-1.7-1.8c0.1-0.1,1,0.6,2.1,1.4
				C206.8,243.8,207.6,244.6,207.5,244.7z"/>
		</g>
		<g>
			<path class="st6" d="M216.2,249.6c-0.1,0.1-1.1-0.3-2.3-0.9c-1.2-0.6-2.2-1.2-2.1-1.4c0.1-0.1,1.1,0.3,2.3,0.9
				C215.3,248.9,216.2,249.5,216.2,249.6z"/>
		</g>
		<g>
			<path class="st6" d="M225.7,252.7c0,0.1-1.2,0.1-2.5-0.3c-1.3-0.3-2.4-0.8-2.3-0.9c0-0.1,1.1,0.1,2.5,0.4
				C224.6,252.2,225.7,252.5,225.7,252.7z"/>
		</g>
		<g>
			<path class="st6" d="M235.7,253.2c0,0.1-1.1,0.4-2.5,0.4c-1.4,0-2.5-0.2-2.5-0.3c0-0.1,1.1-0.2,2.5-0.2
				C234.5,253,235.6,253,235.7,253.2z"/>
		</g>
		<g>
			<path class="st6" d="M245.3,250.6c0.1,0.1-0.9,0.7-2.2,1.2c-1.3,0.5-2.4,0.6-2.5,0.5c0-0.1,1-0.5,2.3-1
				C244.2,250.9,245.2,250.5,245.3,250.6z"/>
		</g>
		<g>
			<path class="st6" d="M253.6,245.2c0.1,0.1-0.7,1-1.8,1.8c-1.1,0.9-2.1,1.4-2.2,1.2c-0.1-0.1,0.8-0.8,1.9-1.7
				C252.6,245.7,253.5,245,253.6,245.2z"/>
		</g>
		<g>
			<path class="st6" d="M260.1,237.6c0.1,0.1-0.4,1.1-1.2,2.2c-0.8,1.1-1.7,1.9-1.8,1.8c-0.1-0.1,0.5-1,1.4-2.1
				C259.3,238.4,260,237.5,260.1,237.6z"/>
		</g>
		<g>
			<path class="st6" d="M264.5,228.6c0.1,0-0.1,1.2-0.6,2.4c-0.5,1.3-1.1,2.3-1.3,2.2c-0.1-0.1,0.3-1.1,0.8-2.4
				C263.9,229.6,264.3,228.6,264.5,228.6z"/>
		</g>
		<g>
			<path class="st6" d="M266.4,218.8c0.1,0,0.2,1.1,0,2.5c-0.2,1.4-0.5,2.5-0.7,2.4c-0.1,0,0-1.1,0.2-2.5
				C266.1,219.9,266.3,218.8,266.4,218.8z"/>
		</g>
		<g>
			<path class="st6" d="M266.1,208.8c0.1,0,0.3,1.1,0.5,2.5c0.1,1.4,0.1,2.5-0.1,2.5c-0.1,0-0.3-1.1-0.5-2.5
				C266,210,266,208.8,266.1,208.8z"/>
		</g>
		<g>
			<path class="st6" d="M264,199c0.1,0,0.5,1,0.9,2.3c0.4,1.3,0.5,2.5,0.4,2.5c-0.1,0-0.5-1-0.9-2.3C264,200.2,263.8,199.1,264,199z
				"/>
		</g>
		<g>
			<path class="st6" d="M260.1,189.8c0.1-0.1,0.7,0.9,1.3,2.1c0.6,1.3,0.9,2.3,0.8,2.4c-0.1,0.1-0.7-0.9-1.2-2.2
				C260.4,190.9,260,189.9,260.1,189.8z"/>
		</g>
		<g>
			<path class="st6" d="M255.2,181.1c0.1-0.1,0.8,0.8,1.5,2c0.7,1.2,1.2,2.2,1,2.3c-0.1,0.1-0.8-0.8-1.5-2
				C255.6,182.2,255.1,181.2,255.2,181.1z"/>
		</g>
		<g>
			<path class="st6" d="M250.3,172.4c0.1-0.1,0.8,0.9,1.4,2.1c0.7,1.2,1.1,2.2,1,2.3c-0.1,0.1-0.8-0.9-1.4-2.1
				C250.6,173.5,250.1,172.5,250.3,172.4z"/>
		</g>
		<g>
			<path class="st6" d="M246.4,163.2c0.1,0,0.6,1,1.1,2.3c0.5,1.3,0.8,2.4,0.6,2.4c-0.1,0.1-0.6-0.9-1.1-2.3
				C246.5,164.3,246.2,163.3,246.4,163.2z"/>
		</g>
		<g>
			<path class="st6" d="M244.7,153.4c0.1,0,0.3,1.1,0.4,2.5c0.1,1.4,0.2,2.5,0.1,2.5c-0.1,0-0.5-1.1-0.6-2.4
				C244.4,154.5,244.5,153.4,244.7,153.4z"/>
		</g>
		<g>
			<path class="st6" d="M245.5,143.4c0.1,0,0,1.1-0.2,2.5c-0.2,1.4-0.4,2.5-0.5,2.4c-0.1,0-0.2-1.1,0-2.5
				C245,144.5,245.3,143.4,245.5,143.4z"/>
		</g>
		<g>
			<path class="st6" d="M248.7,134c0.1,0.1-0.3,1.1-0.8,2.4c-0.5,1.3-1,2.3-1.1,2.2c-0.1,0,0.1-1.2,0.6-2.4
				C248,134.9,248.6,133.9,248.7,134z"/>
		</g>
		<g>
			<path class="st6" d="M254.3,125.7c0.1,0.1-0.6,1-1.4,2.1c-0.8,1.1-1.6,1.9-1.7,1.9c-0.1-0.1,0.4-1.1,1.3-2.2
				C253.4,126.4,254.2,125.6,254.3,125.7z"/>
		</g>
		<g>
			<path class="st6" d="M261.8,119.1c0.1,0.1-0.8,0.8-1.9,1.7c-1.1,0.8-2,1.5-2.1,1.4c-0.1-0.1,0.7-0.9,1.8-1.8
				C260.7,119.5,261.7,119,261.8,119.1z"/>
		</g>
		<g>
			<path class="st6" d="M270.7,114.6c0,0.1-1,0.6-2.2,1.2c-1.3,0.5-2.3,1-2.4,0.8c-0.1-0.1,0.9-0.8,2.2-1.3
				C269.6,114.7,270.7,114.5,270.7,114.6z"/>
		</g>
		<g>
			<path class="st6" d="M278,112.8c0,0.1-0.5,0.4-1.2,0.5c-0.7,0.1-1.2,0.1-1.3,0c0-0.1,0.5-0.4,1.2-0.5
				C277.4,112.6,277.9,112.6,278,112.8z"/>
		</g>
	</g>
	<g>
		<path class="st11" d="M298.4,83.3c0,0,11.7-8.4,28-3c0,0,1.3,13.5-11.7,24.2"/>
		<path class="st8" d="M261.4,108.2c0.5,0.7,13.2,21.2,13.2,21.2l38.3-23.6c6.7-4.1,8.4-13.1,3.7-19.4l0,0
			c-4.3-5.8-12.3-7.1-18.2-3.1L261.4,108.2z"/>
		<path class="st6" d="M274.6,129.4l-0.9,14.4c0,0,24.8-12,18.6-25.4L274.6,129.4z"/>
		<path class="st6" d="M279.1,96.3c0,0-16.8-7.4-30.7,3.5l12.9,8.4L279.1,96.3z"/>
		<path class="st6" d="M279,108.2l-23.9,15c0,0,0.8,2.6,1.5,2.4c0.5-0.2,18.5-10.8,24.4-14.2c1-0.6,1.2-1.8,0.5-2.7l0,0
			C280.7,107.9,279.7,107.7,279,108.2z"/>
		<g>
			<ellipse transform="matrix(0.229 -0.9734 0.9734 0.229 137.7969 367.6824)" class="st12" cx="301" cy="96.9" rx="7.7" ry="7.7"/>
			<g>
				<path class="st6" d="M308.7,96.9c-0.1,0,0-0.7-0.3-1.8c-0.3-1.1-1.1-2.8-2.8-4.1c-0.9-0.6-1.9-1.2-3.2-1.4
					c-1.2-0.2-2.6-0.2-3.9,0.3c-1.3,0.5-2.6,1.4-3.4,2.6c-0.9,1.2-1.4,2.8-1.4,4.4c0,1.6,0.5,3.2,1.4,4.4c0.9,1.2,2.1,2.1,3.4,2.6
					c1.3,0.5,2.7,0.5,3.9,0.3c1.2-0.2,2.3-0.7,3.2-1.4c1.7-1.3,2.5-3,2.8-4.1C308.6,97.5,308.6,96.8,308.7,96.9c0,0,0,0.2,0,0.5
					c0,0.3,0,0.8-0.2,1.4c-0.3,1.2-1,3-2.8,4.3c-0.9,0.7-2,1.3-3.3,1.5c-1.3,0.2-2.7,0.2-4.1-0.3c-1.4-0.5-2.7-1.4-3.7-2.7
					c-1-1.3-1.5-3-1.5-4.7c0-1.7,0.6-3.4,1.5-4.7c1-1.3,2.3-2.3,3.7-2.7c1.4-0.5,2.9-0.6,4.1-0.3c1.3,0.2,2.4,0.8,3.3,1.5
					c1.8,1.4,2.5,3.2,2.8,4.3c0.1,0.6,0.2,1.1,0.2,1.4C308.7,96.7,308.7,96.9,308.7,96.9z"/>
			</g>
		</g>
		<g>
			<path class="st6" d="M318,102c-0.1,0-0.2-1.5-0.8-3.8c-0.3-1.2-0.7-2.5-1.3-4c-0.6-1.5-1.4-3-2.4-4.6c-1-1.5-2.1-2.9-3.2-4.1
				c-1.1-1.1-2.1-2.1-3.1-2.9c-1.9-1.5-3.2-2.2-3.1-2.3c0,0,0.4,0.1,1,0.5c0.3,0.2,0.7,0.4,1.1,0.6c0.4,0.3,0.9,0.5,1.4,0.9
				c1,0.7,2.1,1.7,3.2,2.8c1.1,1.2,2.2,2.5,3.3,4.1c1,1.6,1.8,3.2,2.4,4.7c0.6,1.5,1,2.9,1.2,4.1c0.1,0.6,0.2,1.1,0.3,1.6
				c0.1,0.5,0.1,0.9,0.1,1.2C318,101.6,318,102,318,102z"/>
		</g>
		<g>
			<path class="st6" d="M315.9,103.1c-0.1,0-0.2-1.5-0.8-3.9c-0.3-1.2-0.7-2.6-1.4-4.1c-0.6-1.5-1.4-3.1-2.4-4.6
				c-1-1.6-2.1-2.9-3.2-4.1c-1.1-1.2-2.2-2.2-3.1-2.9c-1.9-1.5-3.2-2.3-3.2-2.4c0,0,0.4,0.1,1,0.5c0.3,0.2,0.7,0.4,1.1,0.6
				c0.4,0.3,0.9,0.6,1.4,1c1,0.7,2.1,1.7,3.3,2.9c1.1,1.2,2.3,2.6,3.3,4.2c1,1.6,1.8,3.2,2.4,4.7c0.6,1.5,1,2.9,1.3,4.2
				c0.2,0.6,0.2,1.2,0.3,1.6c0.1,0.5,0.1,0.9,0.1,1.3C316,102.7,316,103.1,315.9,103.1z"/>
		</g>
	</g>
</g>
<g id="Plant">
	<g>
		<g>
			<g>
				<g>
					<path class="st10" d="M81.8,421c-0.9-3.4,1.4-6.8,3.9-9.2c2.5-2.4,5.5-4.6,6.8-7.9c2.1-5.3-0.7-12.1,3-16.5
						c2.1-2.6,5.9-3.4,7.8-6.2c1-1.4,1.3-3.2,1.7-4.9c2-8.7,6.4-16.9,12.6-23.3c0.4,7.8-1.4,15.6-5,22.5c-1.5,2.8-3.3,5.4-3.8,8.5
						c-0.8,5,2,10.2,0.7,15.1c-1.4,5.6-7.8,9.4-8.1,15.2c-0.3,4.9,4,9.2,3.6,14.1c-0.1,2.1-1.1,4-2.2,5.8
						c-3.8,6.3-9.4,10.6-17.9,10.4l-10.3,0.3L81.8,421z"/>
				</g>
			</g>
		</g>
		<g>
			<g>
				<g>
					<g>
						<path class="st8" d="M81.8,421c-0.9-3.4,1.4-6.8,3.9-9.2c2.5-2.4,5.5-4.6,6.8-7.9c2.1-5.3-0.7-12.1,3-16.5
							c2.1-2.6,5.9-3.4,7.8-6.2c1-1.4,1.3-3.2,1.7-4.9c2-8.7,6.4-16.9,12.6-23.3c0.4,7.8-1.4,15.6-5,22.5c-1.5,2.8-3.3,5.4-3.8,8.5
							c-0.8,5,2,10.2,0.7,15.1c-1.4,5.6-7.8,9.4-8.1,15.2c-0.3,4.9,4,9.2,3.6,14.1c-0.1,2.1-1.1,4-2.2,5.8
							c-3.8,6.3-9.4,10.6-17.9,10.4l-10.3,0.3L81.8,421z"/>
					</g>
				</g>
			</g>
		</g>
		<g>
			<g>
				<g>
					<g>
						<g>
							<g>
								<path class="st6" d="M72.6,445.1c0,0-1,0.2-2.8-0.1c-0.9-0.1-2.1-0.4-3.4-0.9c-1.3-0.5-2.7-1.2-4.1-2.3
									c-0.7-0.6-1.3-1.3-1.7-2.3c-0.4-1-0.4-2-0.5-3.1c0-1.1,0-2.2-0.2-3.3c-0.2-1.1-0.6-2.3-1.2-3.3c-1.2-2.1-3.2-4.2-3.9-7.1
									c-0.7-2.9-0.2-6,0.3-9.1c0.5-3.1,1-6.5-0.2-9.7c-1.1-3.2-3.3-6.2-4.5-9.8c-1.1-3.7-0.6-7.6-0.8-11.5c-0.1-2-0.5-3.9-1.3-5.7
									c-0.8-1.8-2-3.6-2.9-5.5c-1.8-3.9-2.1-8.3-2.6-12.6c-0.2-2.2-0.5-4.4-0.7-6.6c-0.2-2.2-0.4-4.5-1.1-6.6
									c-0.6-2.2-1.5-4.3-2.4-6.4c-0.4-1.1-0.9-2.2-1.2-3.3c-0.2-1.2-0.2-2.4-0.3-3.6c-0.1-2.4,0-4.8,0.3-7.2
									c0.3-2.4,0.7-4.7,1-7.1c0-0.1,0-0.3,0-0.4l0.1-0.5l0.4,0.2c2.2,1.1,4.1,2.8,5.5,4.7c1.5,1.9,2.5,4.1,3.4,6.3
									c1.7,4.5,2.3,9.1,3.1,13.6c0.8,4.4,1.9,8.8,4.2,12.5c1.1,1.8,2.5,3.5,3.7,5.3c1.2,1.8,2.2,3.8,2.5,5.9
									c0.6,4.4-1.8,8.2-1.4,12.1c0.2,1.9,0.9,3.7,1.9,5.4c0.9,1.7,2,3.2,3.1,4.7c1,1.5,2,3.1,2.7,4.8c0.7,1.7,1.1,3.4,1.2,5.2
									c0.2,3.5-0.3,6.8,0,9.9c0.2,3.1,1.3,6,2.5,8.5c1.2,2.6,2.6,4.9,3.8,7.1c0.6,1.1,1.1,2.2,1.5,3.3c0.5,1.1,0.7,2.2,0.9,3.3
									c0.3,2.1,0.3,4.1,0,5.9c-0.5,3.5-1.8,6.1-3,7.5c-0.3,0.4-0.6,0.6-0.8,0.9c-0.2,0.3-0.5,0.4-0.7,0.6
									C72.8,445,72.6,445.1,72.6,445.1c0-0.1,0.9-0.5,2-2c1.1-1.4,2.4-4,2.8-7.5c0.2-1.7,0.2-3.7-0.1-5.8c-0.2-1-0.4-2.1-0.9-3.2
									c-0.4-1.1-1-2.2-1.6-3.3c-1.2-2.2-2.6-4.5-3.8-7.1c-1.3-2.6-2.4-5.5-2.6-8.7c-0.3-3.2,0.2-6.5,0-9.9c-0.1-1.7-0.5-3.4-1.2-5
									c-0.7-1.6-1.7-3.2-2.7-4.7c-1-1.5-2.1-3.1-3.1-4.8c-1-1.7-1.8-3.6-1.9-5.6c-0.5-4.1,1.9-8,1.3-12c-0.3-2-1.3-3.9-2.4-5.6
									c-1.2-1.8-2.5-3.5-3.7-5.4c-2.3-3.8-3.4-8.3-4.3-12.7c-0.9-4.5-1.4-9.1-3.1-13.4c-0.8-2.2-1.9-4.3-3.3-6.2
									c-1.4-1.9-3.2-3.5-5.3-4.5l0.5-0.3c0,0.1,0,0.3,0,0.4c-0.3,2.4-0.7,4.8-1,7.1c-0.3,2.4-0.4,4.7-0.3,7
									c0.1,1.2,0.1,2.4,0.3,3.5c0.2,1.1,0.7,2.2,1.1,3.2c0.9,2.1,1.8,4.3,2.5,6.5c0.7,2.2,0.9,4.5,1.1,6.7
									c0.2,2.2,0.5,4.4,0.7,6.6c0.5,4.3,0.8,8.7,2.5,12.5c0.9,1.9,2,3.6,2.9,5.5c0.9,1.9,1.3,4,1.4,6c0.2,4-0.3,7.9,0.7,11.4
									c1.1,3.5,3.3,6.5,4.4,9.8c1.2,3.4,0.7,6.9,0.2,10c-0.5,3.1-1,6.1-0.4,8.9c0.6,2.8,2.5,4.8,3.8,7c0.6,1.1,1.1,2.3,1.3,3.5
									c0.2,1.2,0.2,2.3,0.2,3.4c0,1.1,0.1,2.1,0.4,3c0.3,0.9,0.9,1.6,1.6,2.2c1.3,1.1,2.8,1.8,4,2.3c1.3,0.5,2.4,0.8,3.3,0.9
									c0.9,0.2,1.6,0.2,2.1,0.2C72.3,445.1,72.6,445.1,72.6,445.1z"/>
							</g>
						</g>
					</g>
				</g>
				<g>
					<g>
						<g>
							<g>
								<path class="st6" d="M40.6,323.1c0,0,0,0.1,0.1,0.3c0.1,0.2,0.1,0.6,0.2,0.9c0.2,0.8,0.4,2,0.8,3.6c0.4,1.5,1.3,3.3,2.1,5.4
									c0.8,2.1,1.7,4.6,2.4,7.3c0.8,2.8,1.5,5.8,2.2,9.1c0.7,3.3,1.5,6.8,3.3,10.1c0.8,1.7,1.8,3.4,2.5,5.3
									c0.8,1.9,1.2,3.9,1.5,5.9c0.5,4.1,1.2,8.3,2.2,12.5c2,8.5,4,16.6,5.7,23.9c1.8,7.3,3.4,13.9,4.8,19.5
									c1.3,5.5,2.4,10,3.2,13.2c0.4,1.5,0.6,2.7,0.8,3.6c0.1,0.4,0.1,0.7,0.2,0.9c0,0.2,0.1,0.3,0,0.3c0,0,0-0.1-0.1-0.3
									c-0.1-0.2-0.2-0.5-0.3-0.9c-0.2-0.9-0.5-2.1-1-3.6c-0.8-3.2-2-7.6-3.4-13.1c-1.4-5.6-3.1-12.2-4.9-19.5
									c-1.8-7.4-3.7-15.4-5.8-23.9c-1-4.3-1.7-8.5-2.2-12.6c-0.3-2-0.7-4-1.4-5.8c-0.7-1.8-1.6-3.5-2.5-5.2
									c-1.8-3.4-2.5-7-3.2-10.3c-0.7-3.3-1.3-6.3-2.1-9.1c-0.7-2.8-1.5-5.2-2.3-7.3c-0.7-2.1-1.6-3.9-2-5.5
									c-0.3-1.6-0.5-2.8-0.7-3.6c-0.1-0.4-0.1-0.7-0.2-0.9C40.6,323.3,40.6,323.1,40.6,323.1z"/>
							</g>
						</g>
					</g>
				</g>
			</g>
			<g>
				<g class="st13">
					<g>
						<g>
							<path class="st8" d="M70.7,445.1c-6.7-4.1-8.6-16.2-5.7-23.6c2.9-7.3,7.8-14,8.6-21.8c0.6-6-1.3-12.2,0.1-18.1
								c1.9-7.9,9.7-14,9.7-22.2c0-4.6-2.6-8.9-2.4-13.5c0.3-5.6,4.6-10,7.3-14.9c4.1-7.5,4.4-16.5,5.9-24.9
								c1.4-8.5,4.7-17.5,12.3-21.6c1.1,7.2,2.9,12.1,2.3,21.9c-0.2,3.5-4.3,10.2-4.9,17.8c-0.4,4.6-0.6,9.2-0.9,13.8
								c-0.3,4.5-0.6,9-2.2,13.2c-1.2,3.2-3.2,6.1-4.2,9.4c-1.7,6.2,0.5,12.9-1,19.2c-1.2,5.3-4.9,9.9-5.7,15.3
								c-1.1,7.6,3.8,15.5,1.2,22.8c-1.3,3.6-4.2,6.5-5.1,10.2c-0.7,2.9,0,5.9-0.6,8.8c-1,4.7-9.9,8.2-14.6,7.9"/>
						</g>
					</g>
				</g>
				<g>
					<g>
						<g>
							<g>
								<path class="st6" d="M104.6,291.7c0,0,0,0.1,0,0.4c0,0.3-0.1,0.7-0.2,1.2c-0.2,1-0.3,2.6-0.7,4.5c-0.4,2-1.4,4.2-2.3,6.9
									c-0.9,2.7-1.8,5.8-2.5,9.2c-0.8,3.5-1.5,7.3-2.2,11.4c-0.7,4.1-1.5,8.6-3.5,12.9c-1,2.2-2,4.3-2.8,6.6
									c-0.8,2.3-1.2,4.8-1.5,7.3c-0.4,5.1-1.1,10.4-2.1,15.7c-2.1,10.6-4.2,20.8-6,30c-1.9,9.2-3.7,17.5-5.2,24.4
									c-1.5,6.9-2.7,12.5-3.5,16.5c-0.4,1.9-0.8,3.4-1,4.5c-0.1,0.5-0.2,0.9-0.3,1.2c-0.1,0.3-0.1,0.4-0.1,0.4c0,0,0-0.1,0-0.4
									c0.1-0.3,0.1-0.7,0.2-1.2c0.2-1.1,0.5-2.6,0.9-4.5c0.8-3.9,1.9-9.6,3.3-16.5c1.4-7,3.1-15.3,5-24.5c1.8-9.2,3.8-19.4,5.9-30
									c1-5.3,1.7-10.6,2.1-15.7c0.3-2.5,0.7-5.1,1.5-7.4c0.8-2.3,1.9-4.5,2.9-6.6c2.1-4.2,2.8-8.6,3.6-12.7
									c0.7-4.1,1.4-8,2.2-11.4c0.8-3.5,1.7-6.6,2.6-9.2c0.9-2.7,1.9-4.9,2.4-6.8c0.4-1.9,0.6-3.5,0.8-4.5c0.1-0.5,0.2-0.9,0.2-1.2
									C104.5,291.9,104.6,291.7,104.6,291.7z"/>
							</g>
						</g>
					</g>
				</g>
			</g>
		</g>
	</g>
</g>
<g id="Chart">
	<g>
		<g>
			<rect x="402.5" y="287.8" class="st8" width="7" height="22.5"/>
		</g>
		<g>
			<rect x="415.3" y="278.5" class="st8" width="7" height="31.8"/>
		</g>
		<g>
			<rect x="429" y="274.2" class="st8" width="7" height="36.1"/>
		</g>
		<g>
			<rect x="442.6" y="269.6" class="st8" width="7" height="40.7"/>
		</g>
	</g>
</g>
<g id="Gears">
	<g>
		<g>
			<g>
				<g>
					<g>
						<path class="st6" d="M167.5,317c0,0,0.6,0,1.5,0.5c0.9,0.4,2.2,1.3,3,3c0.4,0.8,0.6,1.8,0.6,2.9c0,1.1-0.3,2.2-1,3.3
							c-0.3,0.5-0.7,1-1.2,1.4c-0.5,0.4-1,0.8-1.6,1c-1.2,0.6-2.7,0.7-4,0.4c-1.4-0.3-2.6-1.1-3.5-2.1c-0.4-0.5-0.8-1.1-1-1.6
							c-0.3-0.6-0.4-1.2-0.5-1.8c-0.2-1.2,0.1-2.4,0.5-3.4c0.4-1,1.1-1.8,1.8-2.4c1.4-1.2,3-1.5,4-1.5
							C167,316.8,167.5,317,167.5,317c0,0-0.6-0.1-1.6-0.1c-1,0-2.5,0.4-3.8,1.5c-0.7,0.6-1.3,1.3-1.7,2.3c-0.4,1-0.6,2.1-0.4,3.2
							c0.1,0.6,0.2,1.2,0.5,1.7c0.2,0.6,0.6,1.1,1,1.6c0.8,1,2,1.7,3.3,2c1.3,0.3,2.7,0.1,3.8-0.4c0.6-0.2,1.1-0.6,1.6-1
							c0.5-0.4,0.9-0.8,1.2-1.3c0.6-1,0.9-2.1,1-3.1c0.1-1-0.2-2-0.5-2.8c-0.7-1.6-1.9-2.6-2.8-3C168.1,317.1,167.5,317,167.5,317z"
							/>
					</g>
				</g>
			</g>
		</g>
		<g>
			<g>
				<g>
					<g>
						<path class="st6" d="M172.6,310.2c0,0,0-0.1,0-0.2c0-0.2,0-0.4,0-0.7c0-0.6,0-1.5,0-2.7l0,0.1c-1.5-0.3-3.4-0.7-5.8-1.3
							l0.1-0.1c-0.5,1-1,2.1-1.5,3.2l0,0.1l-0.1,0c-1.2,0.1-2.5,0.3-3.8,0.7l-0.1,0l-0.1-0.1c-0.8-0.8-1.6-1.6-2.5-2.5l0.2,0
							c-1.6,1-3.2,2.1-5,3.2l0.1-0.2c0.4,1,0.8,2.2,1.2,3.4l0,0.1l-0.1,0.1c-0.8,0.9-1.6,1.9-2.2,3.1l0,0.1l-0.1,0
							c-1.1,0-2.3,0-3.6,0l0.2-0.1c-0.4,1.8-0.8,3.8-1.3,5.8l-0.1-0.2c1,0.5,2.1,1,3.2,1.5l0.1,0l0,0.1c0,1.2,0.3,2.5,0.7,3.7l0,0.1
							l-0.1,0.1c-0.8,0.8-1.6,1.7-2.5,2.5l0-0.2c1,1.6,2.1,3.3,3.2,5l-0.2-0.1c1.1-0.4,2.2-0.8,3.4-1.2l0.1,0l0.1,0.1
							c0.9,0.8,1.9,1.6,3.1,2.2l0,0l0,0c0,0.1-0.1-0.2,0.1,0.2v0v0l0,0v0l0,0.1l0,0.1l0,0.2l0,0.4l0,0.9c0,0.6,0,1.2,0,1.8l-0.1-0.2
							c1.9,0.4,3.9,0.9,5.8,1.3l-0.2,0.1c0.5-1.1,1-2.2,1.5-3.2l0-0.1l0.1,0c1.3,0,2.5-0.3,3.7-0.6l0.1,0l0.1,0.1
							c0.9,0.9,1.7,1.7,2.5,2.5l-0.2,0c1.7-1.1,3.4-2.1,5-3.2l-0.1,0.2c-0.4-1.1-0.8-2.3-1.2-3.4l0-0.1l0.1-0.1c0.9-1,1.6-2,2.2-3.1
							l0-0.1l0.1,0c1.2,0,2.4,0,3.6,0l-0.1,0.1c0.5-2,0.9-3.9,1.3-5.8l0.1,0.2c-1.1-0.5-2.2-1-3.2-1.5l-0.1,0l0-0.1
							c-0.1-1.4-0.3-2.6-0.6-3.8l0-0.1l0.1-0.1c0.9-0.9,1.7-1.7,2.5-2.5l0,0.1c-1.2-1.9-2.3-3.6-3.1-5l0.1,0
							c-1.3,0.5-2.5,0.9-3.4,1.2l0,0l0,0c-0.9-0.9-1.8-1.4-2.3-1.8c-0.3-0.2-0.5-0.3-0.6-0.4C172.7,310.2,172.6,310.2,172.6,310.2
							c0,0,0.1,0,0.2,0.1c0.1,0.1,0.4,0.2,0.6,0.3c0.6,0.3,1.4,0.9,2.3,1.7l-0.1,0c0.9-0.3,2-0.7,3.4-1.2l0.1,0l0,0.1
							c0.9,1.4,2,3,3.2,5l0,0.1l-0.1,0.1c-0.8,0.8-1.6,1.6-2.5,2.5l0-0.1c0.4,1.2,0.6,2.4,0.7,3.8l-0.1-0.1c1,0.5,2.1,1,3.2,1.5
							l0.1,0l0,0.1c-0.4,1.8-0.8,3.7-1.3,5.8l0,0.1l-0.1,0c-1.2,0-2.3,0-3.6,0l0.1-0.1c-0.6,1.1-1.3,2.2-2.2,3.2l0-0.2
							c0.4,1.1,0.8,2.2,1.2,3.4l0,0.1l-0.1,0.1c-1.6,1-3.3,2.1-5,3.2l-0.1,0.1l-0.1-0.1c-0.8-0.8-1.7-1.7-2.5-2.5l0.2,0
							c-1.2,0.4-2.5,0.6-3.8,0.7l0.2-0.1c-0.5,1.1-1,2.1-1.5,3.2l-0.1,0.1l-0.1,0c-1.9-0.4-3.8-0.9-5.8-1.3l-0.1,0l0-0.1
							c0-0.6,0-1.2,0-1.8l0-0.9l0-0.4l0-0.2l0-0.1l0-0.1l0,0v0v0v0c0.2,0.3,0.1,0.1,0.1,0.2l0,0l0,0c-1.2-0.6-2.3-1.4-3.2-2.2l0.2,0
							c-1.2,0.4-2.3,0.8-3.4,1.2l-0.1,0l-0.1-0.1c-1.1-1.7-2.2-3.4-3.2-5l-0.1-0.1l0.1-0.1c0.9-0.9,1.7-1.7,2.5-2.5l0,0.2
							c-0.4-1.3-0.6-2.6-0.7-3.8l0.1,0.1c-1.1-0.5-2.2-1.1-3.2-1.5l-0.1-0.1l0-0.1c0.5-2,0.9-4,1.3-5.8l0-0.1l0.1,0
							c1.2,0,2.5,0,3.6,0l-0.1,0.1c0.6-1.2,1.4-2.3,2.2-3.2l0,0.2c-0.4-1.2-0.8-2.3-1.2-3.4l0-0.1l0.1-0.1c1.8-1.1,3.4-2.2,5-3.1
							l0.1-0.1l0.1,0.1c0.9,0.9,1.7,1.7,2.5,2.5l-0.1,0c1.3-0.4,2.6-0.6,3.8-0.7l-0.1,0.1c0.6-1.2,1.1-2.2,1.5-3.2l0-0.1l0.1,0
							c2.3,0.5,4.3,1,5.8,1.3l0,0l0,0c0,1.1,0,2,0,2.6c0,0.3,0,0.5,0,0.7C172.6,310.1,172.6,310.2,172.6,310.2z"/>
					</g>
				</g>
			</g>
		</g>
	</g>
	<g>
		<g>
			<g>
				<g>
					<path class="st14" d="M161.7,265.3c1.3,0.7,2.4,1.5,3.5,2.5l3.7-1.3l3.5,5.5l-2.8,2.8c0.4,1.3,0.7,2.8,0.7,4.2l3.6,1.7
						l-1.4,6.4l-3.9,0c-0.7,1.3-1.5,2.4-2.5,3.5l1.3,3.7l-5.5,3.5l-2.8-2.8c-1.3,0.4-2.8,0.7-4.2,0.7l-1.7,3.6l-6.4-1.4l0-3.9
						c-1.3-0.7-2.4-1.5-3.5-2.5l-3.7,1.3l-3.5-5.5l2.8-2.8c-0.4-1.3-0.7-2.8-0.7-4.2l-3.6-1.7l1.4-6.4l3.9,0
						c0.7-1.3,1.5-2.4,2.5-3.5l-1.3-3.7l5.5-3.5l2.8,2.8c1.3-0.4,2.8-0.7,4.2-0.7l1.7-3.6l6.4,1.4L161.7,265.3L161.7,265.3z
						 M156.1,272.8c-3.8-0.8-7.5,1.5-8.4,5.3c-0.8,3.8,1.5,7.5,5.3,8.4c3.8,0.8,7.5-1.5,8.4-5.3
						C162.2,277.4,159.9,273.7,156.1,272.8z"/>
				</g>
			</g>
		</g>
		<g class="st2">
			<g>
				<g>
					<path class="st15" d="M161.7,265.3c1.3,0.7,2.4,1.5,3.5,2.5l3.7-1.3l3.5,5.5l-2.8,2.8c0.4,1.3,0.7,2.8,0.7,4.2l3.6,1.7
						l-1.4,6.4l-3.9,0c-0.7,1.3-1.5,2.4-2.5,3.5l1.3,3.7l-5.5,3.5l-2.8-2.8c-1.3,0.4-2.8,0.7-4.2,0.7l-1.7,3.6l-6.4-1.4l0-3.9
						c-1.3-0.7-2.4-1.5-3.5-2.5l-3.7,1.3l-3.5-5.5l2.8-2.8c-0.4-1.3-0.7-2.8-0.7-4.2l-3.6-1.7l1.4-6.4l3.9,0
						c0.7-1.3,1.5-2.4,2.5-3.5l-1.3-3.7l5.5-3.5l2.8,2.8c1.3-0.4,2.8-0.7,4.2-0.7l1.7-3.6l6.4,1.4L161.7,265.3L161.7,265.3z
						 M156.1,272.8c-3.8-0.8-7.5,1.5-8.4,5.3c-0.8,3.8,1.5,7.5,5.3,8.4c3.8,0.8,7.5-1.5,8.4-5.3
						C162.2,277.4,159.9,273.7,156.1,272.8z"/>
				</g>
			</g>
		</g>
	</g>
	<g>
		<g>
			<g>
				<g>
					<path class="st14" d="M138.7,302.9c0.7,0.4,1.4,0.9,2,1.4l2.2-0.8l2,3.2l-1.6,1.6c0.2,0.8,0.4,1.6,0.4,2.4l2.1,1l-0.8,3.7
						l-2.3,0c-0.4,0.7-0.9,1.4-1.4,2l0.8,2.2l-3.2,2l-1.6-1.6c-0.8,0.2-1.6,0.4-2.4,0.4l-1,2.1l-3.7-0.8l0-2.3
						c-0.7-0.4-1.4-0.9-2-1.4l-2.2,0.8l-2-3.2l1.6-1.6c-0.2-0.8-0.4-1.6-0.4-2.4l-2.1-1l0.8-3.7l2.3,0c0.4-0.7,0.9-1.4,1.4-2
						l-0.8-2.2l3.2-2l1.6,1.6c0.8-0.2,1.6-0.4,2.4-0.4l1-2.1l3.7,0.8L138.7,302.9L138.7,302.9z M135.4,307.2
						c-2.2-0.5-4.4,0.9-4.9,3.1c-0.5,2.2,0.9,4.4,3.1,4.9c2.2,0.5,4.4-0.9,4.9-3.1C139,309.9,137.6,307.7,135.4,307.2z"/>
				</g>
			</g>
		</g>
		<g class="st16">
			<g>
				<g>
					<path class="st15" d="M138.7,302.9c0.7,0.4,1.4,0.9,2,1.4l2.2-0.8l2,3.2l-1.6,1.6c0.2,0.8,0.4,1.6,0.4,2.4l2.1,1l-0.8,3.7
						l-2.3,0c-0.4,0.7-0.9,1.4-1.4,2l0.8,2.2l-3.2,2l-1.6-1.6c-0.8,0.2-1.6,0.4-2.4,0.4l-1,2.1l-3.7-0.8l0-2.3
						c-0.7-0.4-1.4-0.9-2-1.4l-2.2,0.8l-2-3.2l1.6-1.6c-0.2-0.8-0.4-1.6-0.4-2.4l-2.1-1l0.8-3.7l2.3,0c0.4-0.7,0.9-1.4,1.4-2
						l-0.8-2.2l3.2-2l1.6,1.6c0.8-0.2,1.6-0.4,2.4-0.4l1-2.1l3.7,0.8L138.7,302.9L138.7,302.9z M135.4,307.2
						c-2.2-0.5-4.4,0.9-4.9,3.1c-0.5,2.2,0.9,4.4,3.1,4.9c2.2,0.5,4.4-0.9,4.9-3.1C139,309.9,137.6,307.7,135.4,307.2z"/>
				</g>
			</g>
		</g>
	</g>
</g>
<g id="Character">
	<g>
		<g>
			<g>
				<path class="st6" d="M359.5,266.1c4.2-1.1,7.3-5.4,7.1-9.7c-0.1-2-0.9-3.9-0.8-5.8c0.1-3,2.1-5.6,3.7-8.2
					c1.5-2.6,2.5-6.1,0.8-8.6c-1.1-1.6-3.2-2.3-4.6-3.7c-1.4-1.4-2-3.3-2.7-5.1c-0.7-1.8-1.7-3.6-3.4-4.6s-4.3-0.5-4.9,1.3"/>
				<path class="st6" d="M341.4,216.7c3-1.9,3.7-6.3,2.1-9.5c-1.6-3.2-5.1-5.1-8.6-5.6c-5.1-0.8-10.5,1-14.1,4.7
					c-1.9,2-3.5,4.6-6.1,5.5c-2.3,0.8-4.9,0.1-7.3,0.4c-3.2,0.4-6,2.7-7.7,5.5c-1.7,2.8-2.3,6.1-2.7,9.3c-0.4,3-0.6,6.3-2.7,8.4
					c-2,2.1-5.2,2.6-7.7,4.1c-4.7,2.8-6.2,9.9-3.1,14.4c1,1.4,2.4,2.8,2.5,4.5c0.1,1.6-0.9,3-1.4,4.6c-1.2,3.9,2,8.6,6.1,8.8
					c2.1,0.1,4.3-0.7,6.2,0.2c1.9,0.9,2.5,3.2,3.7,4.9c2.3,3.3,7.2,4.6,10.9,2.8c1.5-0.8,3-2,4.7-1.9c1.7,0.1,3,1.6,4.7,1.9
					c2.2,0.4,4.3-1.2,5.6-3c1.3-1.8,2.2-3.9,3.9-5.4c2.2-1.9,5.2-2.4,8-3.4c6.1-2.1,11.2-6.9,13.6-12.9c2.4-6,2.1-13-0.8-18.7"/>
				<g>
					<g>
						<g>
							<g>
								<g>
									<g>
										<g>
											<g>
												<g>
													<g>
														<g>
															<g>
																<g>
																	<path class="st17" d="M347.9,220.7c2.5,0.3,4.3,2.4,4.3,4.9l0,0l-2.9,64.7c-0.1,7.6-11.3,11.9-19.5,11.7l0,0
																		c-8.3-0.2-8.5-4.2-8.6-11.5c-0.2-12.1-0.2-16.7-0.2-16.6c0,0-10.4-1.8-12.6-15.4c-1.1-6.8-0.7-17.9-0.1-26.9
																		c0.5-8.2,6-18.2,14.1-17.3L347.9,220.7z"/>
																</g>
															</g>
														</g>
													</g>
												</g>
											</g>
											<g>
												<g>
													<g>
														<g>
															<g>
																<g>
																	<g>
																		<path class="st6" d="M311.4,240.3c0,0.9,0.7,1.7,1.7,1.8c1,0.1,1.8-0.6,1.8-1.6c0-0.9-0.7-1.7-1.7-1.8
																			C312.3,238.7,311.5,239.4,311.4,240.3z"/>
																	</g>
																</g>
															</g>
														</g>
													</g>
												</g>
												<g>
													<g>
														<g>
															<g>
																<g>
																	<g>
																		<g>
																			<path class="st6" d="M310.8,237.3c0.2,0.2,1.5-0.7,3.4-0.7c1.9,0,3.3,1,3.5,0.7c0.1-0.1-0.1-0.5-0.7-1
																				c-0.6-0.4-1.6-0.9-2.8-0.9c-1.2,0-2.2,0.4-2.7,0.9C310.9,236.8,310.7,237.2,310.8,237.3z"/>
																		</g>
																	</g>
																</g>
															</g>
														</g>
													</g>
												</g>
											</g>
											<g>
												<g>
													<g>
														<g>
															<g>
																<g>
																	<g>
																		<path class="st6" d="M330.2,240.3c0,0.9,0.7,1.7,1.7,1.8c1,0.1,1.8-0.6,1.8-1.6c0-0.9-0.7-1.7-1.7-1.8
																			C331,238.7,330.2,239.4,330.2,240.3z"/>
																	</g>
																</g>
															</g>
														</g>
													</g>
												</g>
												<g>
													<g>
														<g>
															<g>
																<g>
																	<g>
																		<g>
																			<path class="st6" d="M329.3,237.7c0.2,0.2,1.5-0.7,3.4-0.7c1.9,0,3.3,1,3.5,0.7c0.1-0.1-0.1-0.5-0.7-1
																				c-0.6-0.4-1.6-0.9-2.8-0.9c-1.2,0-2.2,0.4-2.7,0.9C329.4,237.1,329.2,237.6,329.3,237.7z"/>
																		</g>
																	</g>
																</g>
															</g>
														</g>
													</g>
												</g>
											</g>
											<g>
												<g>
													<g>
														<g>
															<g>
																<g>
																	<g>
																		<path class="st6" d="M322.5,251.6c0-0.1-1.2-0.3-3.1-0.6c-0.5-0.1-0.9-0.1-1-0.5c-0.1-0.3,0.1-0.9,0.3-1.4
																			c0.5-1.2,0.9-2.4,1.4-3.7c2-5.2,3.4-9.5,3.2-9.5c-0.2-0.1-2,4.1-4,9.3c-0.5,1.3-0.9,2.5-1.4,3.7
																			c-0.2,0.5-0.5,1.2-0.3,1.9c0.1,0.4,0.5,0.6,0.8,0.7c0.3,0.1,0.6,0.1,0.8,0.1C321.3,251.7,322.5,251.7,322.5,251.6
																			z"/>
																	</g>
																</g>
															</g>
														</g>
													</g>
												</g>
											</g>
											<g>
												<g>
													<g>
														<g>
															<g>
																<g>
																	<path class="st18" d="M321.1,273.8c0,0,9.2,0.6,18.2-4.8c0,0-4.6,9.6-18.2,8.3V273.8z"/>
																</g>
															</g>
														</g>
													</g>
												</g>
											</g>
											<g>
												<g>
													<g>
														<g>
															<g>
																<g>
																	<g>
																		<path class="st6" d="M324,256.5c-0.2-0.2-1.5,1.4-3.8,1.4c-2.3,0-3.8-1.5-4-1.3c-0.1,0.1,0.1,0.6,0.8,1.2
																			c0.7,0.6,1.9,1.2,3.3,1.2c1.4,0,2.5-0.6,3.1-1.3C323.9,257.1,324.1,256.6,324,256.5z"/>
																	</g>
																</g>
															</g>
														</g>
													</g>
												</g>
											</g>
										</g>
									</g>
								</g>
								<g>
									<g>
										<g>
											<g>
												<g>
													<g>
														<path class="st6" d="M328.5,234.4c0.2,0.5,2.1,0.3,4.3,0.5c2.2,0.2,4,0.9,4.3,0.4c0.1-0.2-0.2-0.7-0.9-1.2
															c-0.7-0.5-1.8-1-3.2-1.1c-1.3-0.1-2.5,0.1-3.3,0.4C328.8,233.7,328.4,234.1,328.5,234.4z"/>
													</g>
												</g>
											</g>
										</g>
									</g>
								</g>
								<g>
									<g>
										<g>
											<g>
												<g>
													<g>
														<path class="st6" d="M311.5,231.8c0.3,0.4,1.6,0,3.2,0c1.6-0.1,2.9,0.3,3.2-0.2c0.1-0.2-0.1-0.6-0.6-1
															c-0.6-0.4-1.5-0.7-2.6-0.7c-1.1,0-2,0.4-2.5,0.9C311.6,231.2,311.4,231.6,311.5,231.8z"/>
													</g>
												</g>
											</g>
										</g>
									</g>
								</g>
							</g>
						</g>
					</g>
				</g>
				<path class="st6" d="M339,216.2c3.1-2.1,7.2-3.1,10.8-2c3.6,1,6.6,4.3,6.8,8c0.1,2.4-1,5,0.1,7.1c1,2.1,3.5,2.9,5.3,4.4
					c2.8,2.3,3.6,6.6,1.9,9.8c-1.5,2.7-4.6,4.7-4.9,7.8c-0.2,2.9,2.2,5.3,2.8,8.2c0.7,3.1-1.1,6.4-3.6,8.5c-2.5,2.1-5.6,3.2-8.7,4.3
					c-2.4,0.9-5,1.7-7.5,1.2c-3-0.7-5.2-3.4-5.6-6.4c-0.4-3,0.8-6,2.8-8.2c1.7-1.9,4.2-3.6,4.6-6.1c0.7-4-4.1-7.2-3.8-11.2
					c0.1-2.1,1.6-3.8,2.8-5.5c1.2-1.7,2.3-3.8,1.5-5.8c-1-2.5-4.3-3.2-6.3-5c-1.7-1.5-2.3-4-1.7-6.2c0.7-2.1,2.7-3.8,4.9-4.2"/>
				<path class="st6" d="M340.5,213.2c0,2.7-1.2,5.4-3.3,7.2c-2.1,1.7-5,2.5-7.7,2c-2.1-0.4-4.4-1.4-6.2-0.3c-1.9,1.2-2,4-3.7,5.5
					c-2.4,2.1-6.2,0.1-9.3,1c-2.4,0.7-3.8,2.9-5.4,4.8c-1.6,1.9-3.9,3.7-6.3,3c0.1-2.1,0.3-4.3,0.9-6.3c0.6-2,1.8-4,3.6-5.1
					c1-0.6,2.1-1,3-1.8c2-1.6,2.4-4.3,3.6-6.5c1.6-2.8,4.6-4.8,7.8-5.2c2.7-0.3,5.4,0.5,8-0.1c1.9-0.5,3.6-1.7,5.6-2.1
					c3.8-0.7,7.3,2,10.1,4.7"/>
			</g>
			<g>
				<path class="st19" d="M365.3,245.7c-0.1,0,0.4-0.5,0.3-1.6c-0.1-1-0.9-2.5-2.7-3.1c-0.9-0.4-1.9-0.6-3-0.8
					c-1.1-0.3-2.3-0.6-3.4-1.4c-1.1-0.8-1.7-2.2-1.8-3.6c-0.1-1.4,0.1-2.8,0.2-4.3c0-0.7,0-1.4-0.1-2.1c-0.1-0.7-0.4-1.3-0.8-1.8
					c-0.8-1-2.1-1.5-3.3-1.9c-1.2-0.4-2.4-0.8-3.3-1.4c-1-0.6-1.8-1.3-2.5-2c-1.3-1.4-2-2.9-2.4-3.9c-0.2-0.5-0.3-0.9-0.3-1.2
					c-0.1-0.3-0.1-0.4-0.1-0.4c0,0,0.2,0.6,0.6,1.5c0.4,1,1.2,2.3,2.5,3.7c1.3,1.4,3.2,2.6,5.7,3.2c1.2,0.4,2.6,0.9,3.5,2
					c0.4,0.6,0.8,1.3,0.9,2c0.1,0.7,0.1,1.5,0.1,2.2c-0.1,1.5-0.3,2.9-0.2,4.2c0.1,1.3,0.6,2.6,1.6,3.3c1,0.7,2.1,1.1,3.2,1.4
					c1.1,0.3,2.1,0.5,3,0.9c0.9,0.4,1.7,0.9,2.1,1.6c0.5,0.6,0.7,1.3,0.7,1.9c0,0.6-0.1,1-0.2,1.2
					C365.5,245.6,365.3,245.7,365.3,245.7z"/>
			</g>
			<g>
				<path class="st19" d="M285.1,254.2c0,0-0.1,0-0.2-0.1c-0.1-0.1-0.3-0.2-0.5-0.5c-0.3-0.6-0.4-1.6,0.3-2.7
					c0.3-0.5,0.8-1.1,1.5-1.4c0.6-0.4,1.4-0.6,2.2-0.9c0.8-0.3,1.6-0.7,2.3-1.3c0.7-0.6,1.1-1.6,1.3-2.6c0.2-1,0.3-2.1,0.5-3.3
					c0.2-1.2,0.5-2.4,1.4-3.4c1.6-2.1,4.2-3.2,6.1-5.2c1-1,1.7-2.2,2.1-3.6c0.5-1.4,0.7-2.8,1-4.4c0.4-3,0.8-6.3,2.9-9.1
					c1-1.4,2.5-2.4,4.1-2.7c1.6-0.3,3.2-0.1,4.7,0.1c1.5,0.2,3,0.4,4.4,0.3c1.4-0.2,2.7-0.9,3.6-1.9c1.9-2,2.9-4.7,5.2-6.1
					c2.2-1.4,4.8-1.5,6.9-0.9c2.1,0.6,3.7,2,4.5,3.5c0.9,1.5,1.2,3,1.2,4.2c0,1.2-0.2,2.1-0.4,2.7c-0.2,0.6-0.4,0.9-0.4,0.9
					c0,0,0.1-0.3,0.3-0.9c0.2-0.6,0.4-1.5,0.3-2.7c-0.1-1.2-0.4-2.6-1.2-4.1c-0.8-1.4-2.3-2.8-4.4-3.3c-2-0.5-4.5-0.4-6.5,1
					c-1,0.7-1.9,1.6-2.6,2.7c-0.8,1.1-1.5,2.3-2.5,3.3c-0.5,0.5-1.1,1-1.7,1.4c-0.7,0.3-1.4,0.6-2.2,0.7c-1.5,0.2-3,0-4.6-0.2
					c-1.5-0.2-3.1-0.4-4.6-0.1c-1.5,0.3-2.9,1.2-3.8,2.5c-0.9,1.3-1.5,2.8-1.9,4.3c-0.4,1.5-0.6,3.1-0.8,4.6c-0.2,1.5-0.5,3-1,4.4
					c-0.5,1.4-1.2,2.7-2.3,3.8c-2.1,2-4.6,3.1-6.1,5.1c-0.8,1-1.1,2.1-1.3,3.2c-0.2,1.1-0.3,2.3-0.5,3.3c-0.2,1.1-0.7,2.1-1.4,2.7
					c-0.7,0.7-1.6,1-2.4,1.3c-0.8,0.3-1.5,0.5-2.2,0.9c-0.6,0.3-1.1,0.8-1.4,1.3c-0.6,1-0.6,2-0.4,2.5
					C284.8,254.1,285.2,254.2,285.1,254.2z"/>
			</g>
		</g>
		<g>
			<path class="st8" d="M251.7,348l24.2-2.2c0,0,14.9-39.1,33.2-48.6l11.9,20.7l-25.4,47.7h-49.6L251.7,348z"/>
			<path class="st9" d="M251.7,348l24.2-2.2c0,0,14.9-39.1,33.2-48.6l11.9,20.7l-25.4,47.7h-49.6L251.7,348z"/>
			<g>
				<path class="st12" d="M261.3,359c-0.1-0.1,0.8-1.8,2-3.9c1.2-2.1,2.4-3.7,2.5-3.6c0.1,0.1-0.8,1.8-2,3.9
					C262.5,357.4,261.4,359.1,261.3,359z"/>
			</g>
			<g>
				<path class="st12" d="M278.4,358.5c-0.1,0.1-1.4-1.4-3-3.3c-1.5-1.9-2.7-3.5-2.5-3.6c0.1-0.1,1.4,1.4,3,3.3
					C277.4,356.8,278.5,358.4,278.4,358.5z"/>
			</g>
			<g>
				<path class="st12" d="M281.4,349.6c-0.1,0-0.3-1.4-0.3-3.2c0-1.7,0.1-3.2,0.3-3.2s0.3,1.4,0.3,3.2
					C281.6,348.1,281.5,349.6,281.4,349.6z"/>
			</g>
			<g>
				<path class="st12" d="M272.9,363.6c-0.1,0.1-1.1-0.4-2.3-1.2c-1.2-0.8-2.1-1.5-2-1.6c0.1-0.1,1.1,0.4,2.3,1.2
					C272,362.7,272.9,363.4,272.9,363.6z"/>
			</g>
			<g>
				<path class="st12" d="M286.7,327.6c0.1,0.1-0.6,2-1.7,4.4c-1.1,2.4-2,4.2-2.1,4.1c-0.1-0.1,0.6-2,1.7-4.4
					C285.6,329.4,286.6,327.5,286.7,327.6z"/>
			</g>
			<g>
				<path class="st12" d="M296.5,311.7c0.1,0.1-0.8,0.9-1.9,1.8c-1.2,0.9-2.2,1.5-2.2,1.4c-0.1-0.1,0.8-0.9,1.9-1.8
					C295.4,312.2,296.4,311.6,296.5,311.7z"/>
			</g>
			<path class="st8" d="M332.6,362.5l12.5-50.3c2.2-8.8,10.8-14.3,19.6-12.7l0,0c9.1,1.6,15.3,10.3,13.9,19.5l-7.6,49.2
				c-1.9,10.3-10.1,18.3-20.4,19.9l-9.9,1.5L332.6,362.5z"/>
			<g>
				<path class="st6" d="M371.9,296.2c-0.1,0.1-1.4-1.5-4.4-2.2c-1.5-0.3-3.4-0.4-5.4,0c-2,0.5-4,1.5-5.8,3c-3.7,3.1-5.6,7-7,9.8
					c-0.7,1.4-1.2,2.6-1.5,3.4c-0.4,0.8-0.6,1.2-0.6,1.2c0,0,0.1-0.5,0.4-1.3c0.3-0.8,0.8-2,1.4-3.5c0.6-1.4,1.4-3.1,2.6-4.9
					c1.1-1.8,2.6-3.6,4.4-5.2c1.9-1.6,4-2.6,6.1-3.1c2.1-0.5,4-0.3,5.6,0.1c1.5,0.4,2.7,1.1,3.4,1.6c0.3,0.3,0.6,0.5,0.8,0.7
					C371.8,296.1,371.9,296.2,371.9,296.2z"/>
			</g>
			<g>
				<path class="st6" d="M301.3,307.5c0,0-0.1,0.2-0.3,0.5c-0.3,0.3-0.6,0.8-1.1,1.3c-0.9,1.1-2.2,2.7-3.7,4.8
					c-3,4.2-6.7,10.4-8.5,18.1c-1.7,7.7-1.8,14.9-2.1,20c-0.1,2.6-0.2,4.7-0.4,6.1c-0.1,0.7-0.1,1.2-0.1,1.7c0,0.4-0.1,0.6-0.1,0.6
					c0,0,0-0.2,0-0.6c0-0.4,0-1,0-1.7c0-1.5,0.1-3.6,0.2-6.1c0.2-5.1,0.2-12.4,2-20.1c1.8-7.8,5.6-14,8.7-18.2
					c1.5-2.1,2.9-3.7,3.9-4.7c0.5-0.5,0.9-0.9,1.1-1.2C301.2,307.6,301.3,307.5,301.3,307.5z"/>
			</g>
			<path class="st11" d="M381.2,307.4c-1.4-9-6.3-11.2-11.5-14c-1.7-0.9-9.8-3-16.2-4.6c-0.6-3.9-1.7-10.9-2-12.3
				c-0.3-2.1-32.8,3.1-33.2,3.9c-0.3,0.5-1,8.6-1.5,14l-7.8,2.7L298.9,310l-5.3,7.5c-3.1,4.3-5.4,9.2-6.5,14.4
				c-1.3,5.7-1.5,11.3-1.5,17.4l-1.6,33l67.8,19.2l5.3-33.5l17.5-23.8C376.2,334.6,382.8,318.5,381.2,307.4z"/>
			<g>
				<path class="st6" d="M323.3,295.4c-0.1,0-0.2-0.9-0.5-2.3c-0.2-1.4-0.5-3.4-0.7-5.6c-0.1-1.1-0.2-2.1-0.3-3.1
					c-0.1-0.9-0.2-1.8-0.2-2.5c0-0.7,0.2-1.3,0.5-1.7c0.3-0.3,0.5-0.4,0.5-0.4c0,0-0.1,0.2-0.3,0.5c-0.2,0.3-0.3,0.9-0.3,1.6
					c0,0.7,0.2,1.5,0.3,2.5c0.1,1,0.2,2,0.4,3.1c0.3,2.2,0.5,4.2,0.6,5.6S323.3,295.4,323.3,295.4z"/>
			</g>
			<g>
				<path class="st6" d="M331.9,293.4c-0.1,0-0.4-0.8-0.7-2.1c-0.4-1.3-0.7-3.2-0.9-5.3c-0.2-2.1-0.2-4-0.1-5.4
					c0.1-1.4,0.3-2.2,0.3-2.2c0.2,0-0.1,3.4,0.3,7.5C331.2,290.1,332.1,293.3,331.9,293.4z"/>
			</g>
			<g>
				<path class="st6" d="M348,291c-0.2,0,0.5-3.4-0.2-7.5c-0.7-4.1-2.5-7-2.3-7.1c0.1,0,0.6,0.6,1.2,1.9c0.6,1.2,1.3,3,1.7,5.1
					c0.4,2.1,0.3,4,0.2,5.4C348.3,290.2,348.1,291.1,348,291z"/>
			</g>
			<g>
				<path class="st12" d="M301.9,320.5c-0.1-0.1,1-2,2.7-4.2c1.6-2.2,3.2-3.8,3.3-3.7c0.1,0.1-1.2,1.9-2.9,4
					C303.4,318.7,302.1,320.5,301.9,320.5z"/>
			</g>
			<g>
				<path class="st12" d="M317.2,308c-0.1,0.1-1.3-1.3-2.7-3.1c-1.4-1.8-2.4-3.3-2.3-3.4c0.1-0.1,1.3,1.3,2.7,3.1
					C316.3,306.4,317.3,307.9,317.2,308z"/>
			</g>
			<g>
				<path class="st12" d="M333.2,300.2c0.1,0.1-1.4,1.5-3.2,3.2c-1.8,1.7-3.2,3.2-3.3,3.1c-0.1-0.1,1.1-1.7,2.9-3.5
					C331.4,301.3,333.1,300.1,333.2,300.2z"/>
			</g>
			<g>
				<path class="st12" d="M328.7,290.7c-0.1,0.1-1.2-0.7-2.5-1.9c-1.3-1.2-2.2-2.2-2.1-2.3c0.1-0.1,1.2,0.7,2.5,1.9
					C327.8,289.6,328.8,290.6,328.7,290.7z"/>
			</g>
			<g>
				<path class="st12" d="M342.7,283.2c0,0.1-1.5,0.6-3.4,1c-1.9,0.4-3.4,0.6-3.5,0.5c0-0.1,1.5-0.6,3.4-1
					C341.1,283.3,342.7,283.1,342.7,283.2z"/>
			</g>
			<g>
				<path class="st12" d="M345.5,305.4c-0.1,0-0.3-1.6-0.4-3.5c-0.1-1.9-0.1-3.5,0.1-3.5c0.1,0,0.3,1.6,0.4,3.5
					C345.7,303.8,345.6,305.4,345.5,305.4z"/>
			</g>
			<g>
				<path class="st12" d="M340.4,316c-0.1,0-0.9-1.8-1.8-4c-0.8-2.3-1.4-4.2-1.3-4.2c0.1,0,0.9,1.8,1.8,4
					C340,314.1,340.5,316,340.4,316z"/>
			</g>
			<g>
				<path class="st12" d="M326.5,323.5c-0.1,0.1-1-1.8-1.9-4.2c-0.9-2.4-1.6-4.4-1.4-4.4c0.1-0.1,1,1.8,1.9,4.2
					C326,321.5,326.7,323.5,326.5,323.5z"/>
			</g>
			<g>
				<path class="st12" d="M313.5,332.1c-0.1,0-0.6-1.8-1.1-4.2c-0.5-2.3-0.8-4.3-0.6-4.3c0.1,0,0.6,1.8,1.1,4.2
					C313.4,330.1,313.6,332,313.5,332.1z"/>
			</g>
			<g>
				<path class="st12" d="M298,332.4c-0.1,0.1-1.1-1.6-2.1-3.7c-1-2.1-1.8-3.9-1.6-3.9c0.1-0.1,1.1,1.6,2.1,3.7
					C297.4,330.6,298.1,332.3,298,332.4z"/>
			</g>
			<g>
				<path class="st12" d="M297.7,342.3c0.1,0.1-1.8,1.2-4.1,2.3c-2.3,1.1-4.2,2-4.3,1.8c-0.1-0.1,1.8-1.2,4.1-2.3
					C295.7,343,297.6,342.2,297.7,342.3z"/>
			</g>
			<g>
				<path class="st12" d="M297.9,358.1c-0.1,0.1-0.9-1.6-1.4-3.6c-0.6-2.1-0.7-3.8-0.6-3.9c0.1,0,0.5,1.7,1.1,3.7
					C297.5,356.3,298,358,297.9,358.1z"/>
			</g>
			<g>
				<path class="st12" d="M294.7,369.1c-0.1,0.1-1.6-1.1-3.3-2.6c-1.7-1.6-3-2.9-2.9-3c0.1-0.1,1.6,1.1,3.3,2.6
					C293.4,367.6,294.8,369,294.7,369.1z"/>
			</g>
			<g>
				<path class="st12" d="M315.1,361.6c0,0.1-2.3,0.8-4.9,2c-2.7,1.2-4.7,2.4-4.8,2.3c-0.1-0.1,1.9-1.6,4.6-2.8
					C312.7,361.9,315,361.4,315.1,361.6z"/>
			</g>
			<g>
				<path class="st12" d="M309.1,356.1c-0.1,0-0.8-1.5-1.5-3.4c-0.7-1.9-1.1-3.5-1-3.6s0.8,1.5,1.5,3.4
					C308.8,354.4,309.2,356,309.1,356.1z"/>
			</g>
			<g>
				<path class="st12" d="M321.2,342.6c0.1,0.1-1.1,2.2-2.7,4.8c-1.6,2.6-3.1,4.6-3.2,4.6c-0.1-0.1,1.1-2.2,2.7-4.8
					C319.7,344.5,321.1,342.5,321.2,342.6z"/>
			</g>
			<g>
				<path class="st12" d="M334.2,343.9c-0.1,0.1-1.7-1.9-3.3-4.5c-1.6-2.7-2.6-5-2.4-5.1c0.1-0.1,1.3,2.2,2.9,4.8
					C332.9,341.7,334.3,343.8,334.2,343.9z"/>
			</g>
			<g>
				<path class="st12" d="M342,331c0,0.1-1.7,0.6-3.8,0.7c-2.1,0.1-3.9-0.2-3.9-0.3c0-0.1,1.7-0.1,3.8-0.2
					C340.3,331.1,342,330.9,342,331z"/>
			</g>
			<g>
				<path class="st12" d="M360.5,316.4c0.1,0.1-2.1,1.3-4.9,2.6c-2.8,1.3-5.1,2.3-5.1,2.2c-0.1-0.1,2.1-1.3,4.9-2.6
					C358.2,317.2,360.5,316.3,360.5,316.4z"/>
			</g>
			<g>
				<path class="st12" d="M361.8,307.1c-0.1-0.1,0.7-1.9,1.8-4.1c1.1-2.2,2.1-4,2.2-3.9c0.1,0.1-0.7,1.9-1.8,4.1
					C362.9,305.4,361.9,307.2,361.8,307.1z"/>
			</g>
			<g>
				<path class="st12" d="M373.5,314.4c-0.1,0-0.7-2-1.5-4.5c-0.8-2.5-1.5-4.5-1.3-4.6c0.1-0.1,1,1.9,1.8,4.4
					C373.3,312.2,373.7,314.4,373.5,314.4z"/>
			</g>
			<g>
				<path class="st12" d="M375.4,324.1c0,0.1-1.9,1-4.4,1.6c-2.5,0.6-4.6,0.8-4.6,0.7c0-0.1,2-0.6,4.5-1.2
					C373.3,324.5,375.3,323.9,375.4,324.1z"/>
			</g>
			<g>
				<path class="st12" d="M355.2,335.9c-0.2,0,0.3-2.5,0.4-5.5c0.1-3-0.1-5.5,0.1-5.5c0.1,0,0.6,2.4,0.5,5.5
					C356,333.5,355.3,335.9,355.2,335.9z"/>
			</g>
			<g>
				<path class="st12" d="M351.2,348.1c-0.1,0.1-1.9-1.4-3.7-3.6c-1.8-2.2-3-4.2-2.8-4.3c0.1-0.1,1.5,1.8,3.2,3.9
					C349.7,346.3,351.3,347.9,351.2,348.1z"/>
			</g>
			<g>
				<path class="st12" d="M371.4,345.5c0.1,0.1-1.8,1-4.2,2c-2.4,1-4.3,1.7-4.4,1.5c-0.1-0.1,1.8-1,4.2-2
					C369.4,346.1,371.3,345.4,371.4,345.5z"/>
			</g>
			<g>
				<path class="st12" d="M364.2,368.4c-0.1,0-0.2-2.5-0.2-5.5c0-3,0.2-5.5,0.3-5.5c0.1,0,0.2,2.5,0.2,5.5
					C364.4,365.9,364.3,368.4,364.2,368.4z"/>
			</g>
			<g>
				<path class="st12" d="M348.6,367.1c-0.1,0,0.1-2.6,0.9-5.7c0.8-3.1,1.8-5.5,1.9-5.4c0.1,0.1-0.6,2.5-1.4,5.5
					C349.3,364.6,348.8,367.1,348.6,367.1z"/>
			</g>
			<g>
				<path class="st12" d="M349.4,373.1c0,0.2-2.5,0.4-5.5,0.9c-3,0.5-5.5,1.1-5.5,0.9c0-0.1,2.4-0.9,5.4-1.4
					C346.8,373,349.4,372.9,349.4,373.1z"/>
			</g>
			<g>
				<path class="st12" d="M332.2,369.2c-0.1-0.1,1.2-1.6,3-3.4c1.7-1.8,3.2-3.2,3.3-3.1c0.1,0.1-1.2,1.6-3,3.4
					C333.8,367.9,332.3,369.3,332.2,369.2z"/>
			</g>
			<g>
				<path class="st12" d="M321.1,380c-0.1,0-0.6-1.8-1.4-3.9c-0.8-2.1-1.5-3.8-1.4-3.9c0.1-0.1,1.1,1.5,1.9,3.7
					C321,378.1,321.2,380,321.1,380z"/>
			</g>
			<g>
				<path class="st12" d="M339,386.2c-0.1,0.1-2.3-0.7-5-1.9c-2.7-1.2-4.9-2.3-4.8-2.4c0.1-0.1,2.3,0.7,5,1.9
					C336.9,385,339.1,386.1,339,386.2z"/>
			</g>
			<g>
				<path class="st12" d="M307.8,384.4c-0.1,0,0.3-1.7,0.9-3.7c0.7-2,1.3-3.5,1.4-3.5c0.1,0-0.3,1.7-0.9,3.7
					C308.5,382.9,307.9,384.5,307.8,384.4z"/>
			</g>
			<g>
				<path class="st12" d="M328.4,387.9c0,0.2-2.9-0.3-6.4-0.5c-3.5-0.2-6.4,0-6.4-0.2c0-0.1,2.9-0.5,6.5-0.3
					C325.6,387.1,328.4,387.8,328.4,387.9z"/>
			</g>
			<g>
				<path class="st6" d="M332.6,358.4c0,0,0-0.1,0-0.4c0-0.3,0-0.6,0.2-1.1c0.1-0.5,0.4-1.1,1.1-1.5c0.6-0.4,1.5-0.6,2.4-0.4
					l-0.2,0.1c1.1-3.8,2.8-9.4,4.6-15.7c1.6-5.9,2.7-11.3,3.5-15.2c0.4-1.9,0.7-3.5,0.9-4.6c0.2-1.1,0.4-1.7,0.4-1.7
					c0,0,0,0.6-0.2,1.7c-0.2,1.1-0.4,2.7-0.8,4.7c-0.7,3.9-1.7,9.4-3.4,15.3c-1.8,6.3-3.6,11.9-4.8,15.7l0,0.1l-0.2,0
					c-0.8-0.2-1.7,0-2.2,0.3c-0.6,0.3-0.9,0.9-1,1.3C332.7,357.9,332.7,358.4,332.6,358.4z"/>
			</g>
			<g>
				<path class="st6" d="M355.1,372.3c-0.1,0-0.7-1.3-2-3.3c-1.3-2-3.3-4.7-6-7.1c-2.7-2.4-5.5-4.2-7.6-5.3
					c-2.1-1.1-3.5-1.6-3.5-1.6c0,0,0.4,0.1,1,0.3c0.6,0.2,1.6,0.5,2.7,1c2.2,1,5.1,2.7,7.8,5.2c2.7,2.5,4.7,5.2,5.9,7.3
					c0.6,1,1,1.9,1.3,2.5C355,372,355.1,372.3,355.1,372.3z"/>
			</g>
			<g class="st20">
				<path d="M336.5,354.2c3.8,0.3,7,0.6,10.5,1.9c3.6,1.3,6.9,3.9,8.2,7.5c0.3,0.9,0.5,2-0.2,2.6c-0.5,0.5-1.3,0.5-1.9,0.3
					c-0.6-0.2-1.2-0.7-1.7-1.1c-2.2-2-4.5-3.8-6.8-5.8c-2.3-2-5.6-4-8.6-4.5"/>
			</g>
			<g>
				<path class="st6" d="M329.3,347.9c0,0-0.3,0.3-1,0.6c-0.7,0.3-1.7,0.8-3.1,1.2c-2.7,0.8-6.6,1.2-10.8,0.1
					c-4.2-1.1-7.4-3.4-9.4-5.4c-1-1-1.7-1.9-2.1-2.5c-0.4-0.6-0.6-1-0.6-1c0.1-0.1,1,1.4,3,3.3c2,1.9,5.2,4.1,9.2,5.1
					c4,1,7.9,0.7,10.6,0C327.8,348.6,329.3,347.8,329.3,347.9z"/>
			</g>
			<g class="st20">
				<path d="M302.9,341.6c1.7,3.7,3.7,7.3,6.9,9.8c1.8,1.4,4,2.6,6.3,2.6c3.3,0.1,6.2-2.2,8.8-4.4
					C316.6,351,307.3,347.2,302.9,341.6"/>
			</g>
			<g>
				<path class="st6" d="M339.9,292.6c-0.2,0,0-3.4-0.4-7.6c-0.4-4.2-1.2-7.5-1.1-7.6c0.1,0,0.4,0.8,0.7,2.1
					c0.3,1.4,0.7,3.2,0.9,5.4c0.2,2.1,0.2,4,0.1,5.4C340.1,291.8,339.9,292.6,339.9,292.6z"/>
			</g>
		</g>
		<g>
			<path class="st8" d="M221.2,426.4c0,0-10.9,2.3-20.6,0.9c-9.1-1.4-29.5,0-29.5,12c0,13.4,27.2,10.1,37.8,7.9
				c10.6-2.1,21.2-4,21.2-4L221.2,426.4z"/>
			<g>
				<path class="st6" d="M196.8,443.6c-0.1,0-0.7-2.1-1.3-4.7c-0.6-2.6-0.9-4.7-0.8-4.8c0.1,0,0.7,2.1,1.3,4.7
					C196.6,441.4,197,443.5,196.8,443.6z"/>
			</g>
			<g>
				<path class="st6" d="M200.6,443.7c-0.1,0-0.6-2.1-0.9-4.8c-0.4-2.7-0.5-4.8-0.4-4.8c0.1,0,0.6,2.1,0.9,4.8
					C200.5,441.6,200.7,443.7,200.6,443.7z"/>
			</g>
			<g>
				<path class="st6" d="M204.1,442.3c-0.1,0-0.5-1.8-0.8-4.2c-0.3-2.3-0.4-4.2-0.2-4.2c0.1,0,0.5,1.8,0.8,4.2
					C204.2,440.4,204.3,442.3,204.1,442.3z"/>
			</g>
			<g>
				<path class="st6" d="M209.8,440.9c-0.1,0.1-0.9-1.5-1.4-3.6c-0.5-2.1-0.5-3.8-0.4-3.8c0.1,0,0.4,1.7,0.9,3.7
					C209.3,439.3,209.9,440.9,209.8,440.9z"/>
			</g>
			<g>
				<path class="st6" d="M211,436.1c0,0,0.5-0.1,1.4-0.1c0.9,0,2.3,0.2,3.8,0.7c0.4,0.1,0.8,0.3,1.2,0.6c0.4,0.3,0.7,0.8,0.7,1.3
					c0,1.2-1.3,2-2.5,1.8c-1.2-0.2-2.1-1.1-2.8-2c-0.8-0.9-1.3-2.1-1.6-3.3c-0.6-2.5-0.2-5.1,1.2-6.9c0.2-0.2,0.5-0.4,0.8-0.5
					c0.3-0.1,0.7,0.1,0.9,0.3c0.4,0.4,0.6,1,0.7,1.5c0.1,1,0.1,1.9-0.1,2.7c-0.4,1.6-1.2,2.8-1.8,3.4c-0.3,0.3-0.6,0.6-0.8,0.7
					c-0.2,0.1-0.3,0.2-0.3,0.2c0,0,0.4-0.3,1-1c0.6-0.7,1.3-1.8,1.6-3.4c0.2-0.8,0.2-1.7,0.1-2.6c-0.1-0.4-0.2-0.9-0.6-1.2
					c-0.3-0.3-0.7-0.2-1,0.2c-1.2,1.7-1.6,4.1-1.1,6.5c0.3,1.2,0.8,2.3,1.5,3.2c0.7,0.9,1.5,1.7,2.5,1.9c0.9,0.2,2-0.5,1.9-1.3
					c0-0.4-0.2-0.8-0.6-1c-0.3-0.3-0.7-0.5-1.1-0.6c-1.5-0.6-2.8-0.8-3.7-0.9C211.5,436.1,211,436.1,211,436.1z"/>
			</g>
			<g>
				<path class="st6" d="M229,441.5c0,0-0.1,0-0.3,0.1c-0.2,0.1-0.5,0.1-0.8,0.2c-0.8,0.2-1.8,0.4-3.2,0.7
					c-2.7,0.6-6.7,1.4-11.7,2.4c-4.9,0.9-10.8,2-17.5,2.9c-3.3,0.4-6.8,0.8-10.5,0.5c-1.8-0.1-3.7-0.4-5.5-1.1
					c-0.9-0.3-1.8-0.7-2.6-1.2c-0.8-0.5-1.7-1-2.3-1.9l0,0c-0.3-0.3-0.7-0.7-0.9-1.1c-1.1-1.8-1.1-4-0.6-5.9c0.6-1.9,2-3.4,3.5-4.6
					c1.5-1.1,3.2-1.9,5-2.5c0.9-0.2,1.7-0.5,2.6-0.7c0.9-0.2,1.7-0.4,2.6-0.5c6.8-1.1,13-0.5,18.2-0.5c2.6,0,4.9,0,7-0.1
					c2-0.2,3.8-0.4,5.2-0.7c0.7-0.1,1.3-0.3,1.9-0.4c0.5-0.1,1-0.3,1.3-0.4c0.3-0.1,0.6-0.2,0.8-0.2c0.2,0,0.3-0.1,0.3-0.1
					c0,0-0.1,0-0.3,0.1c-0.2,0.1-0.5,0.2-0.8,0.3c-0.4,0.1-0.8,0.3-1.3,0.4c-0.5,0.1-1.2,0.3-1.9,0.4c-1.4,0.3-3.2,0.6-5.2,0.7
					c-2.1,0.2-4.4,0.2-7,0.2c-5.2,0-11.4-0.5-18.1,0.6c-0.8,0.1-1.7,0.3-2.5,0.5c-0.8,0.2-1.7,0.5-2.5,0.7c-1.7,0.6-3.3,1.3-4.8,2.4
					c-1.5,1.1-2.7,2.5-3.3,4.3c-0.6,1.8-0.5,3.8,0.5,5.4c0.2,0.4,0.6,0.7,0.9,1l0,0l0,0c0.6,0.7,1.4,1.3,2.1,1.7
					c0.8,0.5,1.7,0.8,2.5,1.1c1.8,0.6,3.6,0.9,5.4,1c3.6,0.3,7.1-0.1,10.4-0.5c6.6-0.9,12.5-1.9,17.5-2.8c4.9-0.9,8.9-1.7,11.7-2.2
					c1.3-0.3,2.4-0.5,3.2-0.6c0.3-0.1,0.6-0.1,0.8-0.2C229,441.5,229,441.5,229,441.5z"/>
			</g>
			<g>
				<path class="st6" d="M189.3,447.9c-0.1,0-0.1-1.1-0.3-2.8c-0.1-1.7-0.3-4.1-0.7-6.7c-0.3-2.6-0.8-4.9-1.1-6.6
					c-0.3-1.7-0.6-2.7-0.5-2.7c0.1,0,0.4,1,0.8,2.7c0.4,1.7,0.9,4,1.3,6.6c0.3,2.6,0.5,5,0.5,6.7
					C189.4,446.9,189.4,447.9,189.3,447.9z"/>
			</g>
			<polygon class="st16" points="217.9,427 224.8,444.3 230.1,443.3 219.9,426.4 			"/>
		</g>
		<path class="st6" d="M307.7,379.7c-1.1,0.4-72.3-19.6-101.1-27.7c-7.6-2.1-15.7-0.9-22.3,3.4l-0.3,0.2
			c-9.7,6.3-14.4,17.9-11.8,29.2v0c1.7,7.1,6.1,13.3,12.3,17.1c19,11.6,59.2,36.1,60.4,35.6c1.6-0.6,51.8-1.9,51.8-1.9l-60.4-43.4
			l28.7,18.6L307.7,379.7L307.7,379.7z"/>
		<path class="st17" d="M248.2,358.1l15.1-7.8l14.8,9.3l55.5,1.8l8,27l-80.4-18.6c0,0-14.6,1.3-15.7-2
			C244.6,364.5,248.2,358.1,248.2,358.1z"/>
		<path class="st6" d="M293.7,401.4l-7.5,24.6l0.9,7.5l0,0c13.6,13.7,35.3,15.2,50.7,3.4h0c9.3-7.2,14.8-18.3,14.7-30l-0.1-25.7
			L293.7,401.4z"/>
		<g>
			<path class="st19" d="M249.2,401.6c-0.1,0.1-8.8-6.2-19.4-14.1c-10.6-7.9-19.2-14.4-19.1-14.6c0.1-0.1,8.8,6.2,19.4,14.1
				C240.7,394.9,249.3,401.5,249.2,401.6z"/>
		</g>
		<g>
			<path class="st18" d="M262.3,355.2c0,0.1-3.3,1.3-7.4,2.6c-4.1,1.3-7.5,2.3-7.6,2.1c0-0.1,3.3-1.3,7.4-2.6
				C258.9,356,262.3,355,262.3,355.2z"/>
		</g>
		<g>
			<path class="st18" d="M263.5,359.8c0,0.1-1,0.2-2.6,0.5c-1.6,0.3-3.8,0.7-6.2,1.2c-2.4,0.6-4.5,1.2-6.1,1.6
				c-1.5,0.5-2.5,0.8-2.5,0.7c0-0.1,0.9-0.5,2.4-1c1.5-0.6,3.7-1.2,6.1-1.8c2.4-0.6,4.6-0.9,6.3-1.1
				C262.5,359.7,263.5,359.7,263.5,359.8z"/>
		</g>
		<g>
			<path class="st18" d="M262.2,364c0,0.1-3.7,1-8.3,1.9c-4.6,0.9-8.4,1.5-8.4,1.4c0-0.1,3.7-1,8.3-1.9
				C258.4,364.5,262.2,363.9,262.2,364z"/>
		</g>
		<g>
			<path class="st19" d="M242.6,321.8l14,45.9c0.2,0.5,0.6,0.9,1.2,0.9l38,2.9c0.7,0.1,1.2,0.6,1.2,1.3v2.4c0,0.7-0.6,1.3-1.4,1.3
				l-104-2c-0.5,0-1-0.3-1.2-0.9l-18.3-47.9c-0.3-0.8,0.3-1.8,1.2-1.8l67.9-3.2C241.8,320.8,242.4,321.2,242.6,321.8z"/>
			<path class="st0" d="M213.3,341.6c-0.7,0.2-1.9,1.2-2.1,2.3c-0.1,1.1,0.4,2.2,1.3,2.9c1.1,0.8,2.7,0.9,3.8,0.1
				c1.1-0.8,1.6-2.2,1-3.8C216.9,341.8,214.6,340.9,213.3,341.6"/>
		</g>
		<g>
			<path class="st6" d="M230.1,443.3l-11-18.1l80.8-63.3c5-4.1,11.2-6.6,17.6-7.2h0c20.1-1.8,37,14.9,35.3,35l-1.3,15.4L298,422.4
				L230.1,443.3z"/>
			<g>
				<path class="st19" d="M333.7,400.4c0,0-0.1,0.1-0.2,0.2c-0.2,0.1-0.4,0.3-0.7,0.5c-0.6,0.5-1.5,1.2-2.6,2.1
					c-0.6,0.4-1.2,0.9-1.9,1.5c-0.7,0.5-1.5,1-2.3,1.6c-0.8,0.6-1.7,1.2-2.7,1.8c-0.5,0.3-1,0.7-1.5,1c-0.5,0.3-1.1,0.6-1.6,1
					c-2.2,1.3-4.6,2.8-7.3,4.2c-1.3,0.7-2.7,1.5-4.1,2.2c-1.4,0.7-2.9,1.4-4.5,2.1c-6.2,2.8-13,5.6-20.4,8.1
					c-14.8,5.1-28.4,8.7-38.2,11.7c-2.5,0.7-4.7,1.4-6.6,2c-1.9,0.6-3.6,1.1-5,1.6c-1.3,0.4-2.4,0.8-3.1,1c-0.3,0.1-0.6,0.2-0.8,0.3
					c-0.2,0.1-0.3,0.1-0.3,0.1c0,0,0.1,0,0.3-0.1c0.2-0.1,0.5-0.2,0.8-0.3c0.7-0.3,1.8-0.6,3.1-1.1c1.3-0.5,3-1,4.9-1.7
					c1.9-0.6,4.1-1.3,6.6-2.1c9.8-3.1,23.4-6.8,38.1-11.8c7.4-2.5,14.3-5.3,20.4-8.1c1.5-0.7,3-1.4,4.5-2.1c1.4-0.7,2.8-1.5,4.1-2.1
					c2.7-1.3,5.1-2.8,7.3-4.1c0.5-0.3,1.1-0.6,1.6-0.9c0.5-0.3,1-0.7,1.5-1c1-0.6,1.9-1.2,2.7-1.8c0.8-0.6,1.6-1.1,2.3-1.6
					c0.7-0.5,1.3-1,1.9-1.4c1.1-0.8,2-1.5,2.6-2c0.3-0.2,0.5-0.4,0.7-0.5C333.7,400.4,333.7,400.4,333.7,400.4z"/>
			</g>
			<g>
				<path class="st19" d="M335.7,408.8c0,0-0.3,0.2-0.8,0.4c-0.5,0.2-1.3,0.6-2.3,0.9c-2,0.7-4.8,1.6-7.9,2.3
					c-3.2,0.7-6.1,1-8.2,1.2c-1.1,0.1-1.9,0.1-2.5,0.1c-0.6,0-0.9,0-0.9-0.1c0-0.1,1.3-0.2,3.4-0.4c2.1-0.2,5-0.6,8.1-1.3
					c3.1-0.7,5.9-1.5,7.9-2.1C334.5,409.2,335.7,408.7,335.7,408.8z"/>
			</g>
			<g>
				<path class="st19" d="M296.7,364.9c0.1,0.1-17.2,13.7-38.6,30.3c-21.4,16.7-38.9,30.1-38.9,29.9c-0.1-0.1,17.2-13.7,38.6-30.4
					C279.2,378.2,296.6,364.8,296.7,364.9z"/>
			</g>
			<g>
				<g>
					<path class="st8" d="M292,432.1c-3.9-2.1-8.2-0.8-11.9,0.4c-2.5,0.8-5,2.1-7.5,1.4c-1.8-0.5-3.2-2-4.5-3.3
						c-5.6-5.2-13.3-8-20.9-7.5c-2.2,0.1-4.3,1-5.7,2.6c-3.8,4.1-0.9,9.5,2.5,13c6,6.1,14.2,10.1,22.7,11c7.1,0.7,16.8-0.2,24-3.3
						c4.4-1.9,6.7-7.1,4.4-11.4C294.3,433.8,293.3,432.8,292,432.1z"/>
					<g class="st16">
						<path d="M292,435.4c-3.9-2.1-8.2-0.8-11.9,0.4c-2.5,0.8-5,2.1-7.5,1.4c-1.8-0.5-3.2-2-4.5-3.3c-5.6-5.2-13.3-8-20.9-7.5
							c-2.2,0.1-4.3,1-5.7,2.6c-0.8,0.9-1.3,1.9-1.6,2.9c0.6,2.5,2.2,4.9,4.1,6.8c6,6.1,14.2,10.1,22.7,11c7.1,0.7,16.8-0.2,24-3.3
							c2.7-1.1,4.5-3.5,5.1-6.1c-0.2-0.7-0.4-1.3-0.7-2C294.3,437.1,293.3,436.1,292,435.4z"/>
					</g>
				</g>
				<g>
					<path class="st6" d="M295.7,440.3c-0.1,0-0.1-0.9-1-2.3c-0.5-0.7-1.1-1.4-2.1-2c-0.9-0.6-2.2-1.2-3.6-1.4
						c-2.9-0.3-6.2,0.9-9.9,1.9c-1.8,0.5-3.8,1.2-6,1c-1.1-0.1-2.1-0.5-3.1-1.1c-1-0.6-1.8-1.3-2.7-2c-3.2-3.1-7-5.1-10.6-6.3
						c-1.8-0.6-3.6-1-5.3-1.2c-1.7-0.2-3.3-0.2-4.7,0c-1.4,0.2-2.6,0.7-3.6,1.3c-1,0.6-1.7,1.3-2.2,1.9c-1,1.2-1.4,2.1-1.4,2.1
						c0,0,0.3-0.9,1.3-2.2c0.5-0.6,1.2-1.4,2.2-2c1-0.6,2.3-1.1,3.7-1.4c1.5-0.3,3.1-0.2,4.8,0c1.7,0.2,3.5,0.6,5.4,1.2
						c1.8,0.6,3.7,1.4,5.6,2.5c0.9,0.5,1.8,1.1,2.7,1.8c0.9,0.7,1.7,1.4,2.5,2.1c0.8,0.7,1.7,1.4,2.6,2c0.9,0.5,1.9,0.9,2.9,1
						c2,0.3,4-0.4,5.8-0.9c3.7-1,7.1-2.2,10.1-1.8c3,0.5,4.9,2.3,5.8,3.6c0.4,0.7,0.6,1.3,0.7,1.8
						C295.7,440.1,295.7,440.3,295.7,440.3z"/>
				</g>
				<g>
					<path class="st6" d="M295.7,440.3c-0.1,0-0.1-0.9-1-2.3c-0.5-0.7-1.1-1.4-2.1-2c-0.9-0.6-2.2-1.2-3.6-1.4
						c-2.9-0.3-6.2,0.9-9.9,1.9c-1.8,0.5-3.8,1.2-6,1c-1.1-0.1-2.1-0.5-3.1-1.1c-1-0.6-1.8-1.3-2.7-2c-3.2-3.1-7-5.1-10.6-6.3
						c-1.8-0.6-3.6-1-5.3-1.2c-1.7-0.2-3.3-0.2-4.7,0c-1.4,0.2-2.6,0.7-3.6,1.3c-1,0.6-1.7,1.3-2.2,1.9c-1,1.2-1.4,2.1-1.4,2.1
						c0,0,0.3-0.9,1.3-2.2c0.5-0.6,1.2-1.4,2.2-2c1-0.6,2.3-1.1,3.7-1.4c1.5-0.3,3.1-0.2,4.8,0c1.7,0.2,3.5,0.6,5.4,1.2
						c1.8,0.6,3.7,1.4,5.6,2.5c0.9,0.5,1.8,1.1,2.7,1.8c0.9,0.7,1.7,1.4,2.5,2.1c0.8,0.7,1.7,1.4,2.6,2c0.9,0.5,1.9,0.9,2.9,1
						c2,0.3,4-0.4,5.8-0.9c3.7-1,7.1-2.2,10.1-1.8c3,0.5,4.9,2.3,5.8,3.6c0.4,0.7,0.6,1.3,0.7,1.8
						C295.7,440.1,295.7,440.3,295.7,440.3z"/>
				</g>
				<g>
					<path class="st6" d="M247.6,439.4c0-0.1,0.7-0.6,2-1.4c1.3-0.8,3.1-1.8,5.1-2.7c2.1-1,4-1.7,5.4-2.2c1.4-0.5,2.3-0.7,2.3-0.7
						c0,0.1-0.8,0.4-2.2,1c-1.4,0.6-3.3,1.4-5.3,2.3c-2,1-3.9,1.9-5.2,2.6C248.5,439,247.7,439.4,247.6,439.4z"/>
				</g>
				<g>
					<path class="st6" d="M249,443.3c-0.1-0.1,3.3-1.9,7.6-3.9c4.2-2.1,7.7-3.6,7.8-3.5c0.1,0.1-3.3,1.9-7.6,3.9
						C252.5,441.8,249,443.4,249,443.3z"/>
				</g>
				<g>
					<path class="st6" d="M265,444.9c-0.1,0.1-4.2-2.3-9.2-5.5c-5-3.2-9-5.8-8.9-5.9c0.1-0.1,4.2,2.3,9.2,5.5
						C261.1,442.2,265.1,444.8,265,444.9z"/>
				</g>
				<g>
					<path class="st6" d="M267.3,440.9c0,0.1-0.8-0.5-2-1.4c-1.2-0.9-2.9-2.1-4.8-3.4c-1.9-1.3-3.6-2.4-4.8-3.3
						c-1.2-0.8-2-1.4-2-1.4c0-0.1,0.9,0.4,2.2,1.1c1.3,0.8,3.1,1.9,4.9,3.2c1.9,1.3,3.5,2.6,4.7,3.5
						C266.7,440.2,267.4,440.9,267.3,440.9z"/>
				</g>
			</g>
		</g>
	</g>
</g>
</svg>
